<svg xmlns="http://www.w3.org/2000/svg" viewBox="0 0 451 289" width="451" height="289">
<g transform="translate(0.000000,289.000000) scale(0.100000,-0.100000)"
fill="#f9a363" stroke="none">
<path d="M1690 2292 c-26 -26 -49 -56 -51 -66 -3 -12 -14 -20 -34 -22 -16 -2
-31 -8 -33 -13 -2 -5 -10 -7 -19 -4 -9 4 -14 2 -11 -3 3 -5 -3 -17 -14 -26
-10 -10 -18 -16 -18 -13 0 3 -11 -2 -25 -11 -14 -9 -28 -14 -32 -11 -3 4 -15
-5 -25 -19 -11 -14 -23 -23 -25 -20 -3 3 -17 -6 -31 -20 -15 -13 -41 -31 -59
-39 -18 -9 -33 -22 -33 -30 0 -8 -8 -15 -18 -15 -10 0 -25 -11 -32 -25 -12
-22 -58 -42 -87 -37 -6 2 -16 -10 -21 -25 -6 -16 -11 -22 -11 -15 -2 22 -30
13 -37 -12 -4 -16 -11 -23 -20 -19 -8 3 -14 1 -14 -4 0 -6 -18 -18 -40 -29
-22 -10 -40 -25 -40 -31 0 -7 -11 -13 -25 -13 -14 0 -25 -4 -25 -10 0 -5 -15
-17 -32 -26 -18 -9 -40 -23 -48 -30 -8 -8 -30 -26 -47 -40 -18 -14 -33 -32
-33 -40 0 -12 -23 -18 -67 -17 -6 0 -14 -11 -18 -25 -5 -21 -8 -23 -16 -11 -7
11 -9 9 -9 -8 0 -13 -6 -23 -12 -23 -9 0 -8 -4 2 -10 12 -8 11 -10 -7 -10 -13
0 -23 -5 -23 -11 0 -5 -4 -8 -9 -4 -6 3 -15 -3 -21 -14 -7 -13 -16 -18 -27
-14 -13 5 -15 2 -10 -11 6 -16 3 -17 -20 -12 -19 4 -23 4 -14 -3 20 -13 4 -31
-30 -31 -17 0 -29 -5 -29 -13 0 -8 -14 -31 -32 -51 -34 -39 -35 -45 -44 -141
-5 -47 -3 -64 9 -73 12 -10 16 -10 20 2 4 10 1 13 -9 9 -21 -8 -17 2 14 36 78
88 175 180 238 226 15 11 41 34 59 51 17 17 36 29 43 26 7 -2 12 3 12 12 0 9
7 16 16 16 8 0 12 5 9 10 -3 6 -2 10 3 10 6 0 20 11 33 25 13 13 29 25 36 25
7 0 24 11 39 25 15 14 31 25 37 25 5 0 17 8 26 19 9 10 33 24 53 31 20 8 39
22 41 31 3 12 12 17 26 14 12 -2 19 0 16 6 -6 9 22 44 35 44 4 0 15 8 25 18
10 10 43 37 74 60 31 22 60 46 64 54 4 7 19 13 33 13 19 0 29 8 39 33 8 17 14
29 15 25 0 -5 9 1 20 12 11 11 26 17 33 14 9 -3 17 3 20 15 3 12 17 25 31 31
14 5 26 14 26 20 0 5 5 10 11 10 10 0 36 18 89 63 8 6 18 11 22 10 5 -2 8 5 8
15 1 10 9 1 21 -21 11 -22 23 -36 27 -33 3 4 0 12 -6 18 -7 7 -12 31 -12 54 0
43 23 82 75 126 11 10 16 17 12 18 -5 0 -30 -21 -57 -48z M2591 2337 c2 -2 18
-11 34 -21 l30 -17 -24 20 c-13 12 -28 21 -34 21 -6 0 -8 -1 -6 -3z M2671
2270 c36 -58 32 -107 -15 -158 -17 -19 -17 -22 -3 -16 9 3 17 9 17 13 0 4 9
17 21 30 19 21 22 21 45 7 13 -9 30 -16 37 -16 8 0 22 -9 32 -20 10 -11 24
-20 30 -20 7 0 18 -7 25 -15 6 -8 15 -13 19 -12 12 4 53 -41 47 -51 -4 -6 3
-8 15 -5 12 4 25 0 30 -8 4 -8 16 -14 26 -14 12 0 19 -9 21 -28 3 -26 5 -27
17 -11 12 17 17 15 70 -26 31 -25 69 -56 83 -70 15 -13 30 -24 35 -22 4 1 10
-12 14 -30 5 -27 7 -29 14 -13 7 18 8 18 8 2 1 -10 5 -16 10 -12 6 3 14 -3 20
-12 5 -10 12 -17 15 -15 18 7 26 -1 26 -25 0 -19 3 -24 9 -15 4 8 10 14 12 14
13 2 92 -46 122 -74 40 -38 39 -38 72 -38 14 0 25 -6 25 -13 0 -20 42 -50 134
-95 27 -13 55 -30 63 -38 8 -8 18 -14 22 -14 5 0 19 -10 33 -22 39 -36 81 -65
106 -72 12 -4 22 -12 22 -17 0 -5 3 -8 8 -7 15 3 42 -15 42 -29 0 -8 5 -11 11
-7 7 4 9 0 5 -13 -3 -10 1 -28 9 -39 14 -18 14 -18 15 4 0 15 4 21 12 16 7 -5
8 -3 3 6 -4 7 -8 28 -7 46 1 18 -3 36 -8 39 -6 4 -8 11 -4 16 3 6 -4 20 -15
31 -19 17 -20 22 -9 36 10 12 10 14 1 8 -9 -5 -13 1 -14 21 0 15 -3 22 -6 16
-7 -18 -32 -16 -39 2 -4 8 -12 15 -20 15 -8 0 -14 3 -14 8 0 4 -11 12 -25 19
-16 7 -25 8 -25 1 0 -6 -6 -5 -15 2 -8 7 -15 19 -15 26 0 8 -8 14 -18 14 -10
0 -28 9 -40 20 -12 11 -25 20 -31 20 -5 0 -11 3 -13 8 -1 4 -34 23 -71 41 -38
19 -72 42 -77 51 -4 8 -21 17 -36 18 -15 1 -43 11 -61 22 -19 11 -43 20 -54
20 -11 0 -24 10 -30 23 -6 13 -20 24 -32 24 -12 1 -27 9 -33 17 -6 9 -14 12
-18 8 -4 -4 -12 1 -17 11 -6 9 -16 17 -24 17 -8 0 -19 9 -25 20 -8 15 -17 19
-31 15 -13 -4 -19 -2 -19 9 0 9 -3 15 -7 15 -24 -4 -42 4 -73 32 -19 18 -48
38 -65 45 -16 7 -44 27 -62 44 -18 17 -37 29 -43 25 -5 -3 -10 -1 -10 5 0 6
-4 9 -9 6 -5 -3 -11 1 -15 9 -3 8 -14 15 -25 15 -10 0 -21 7 -25 15 -3 8 -10
15 -16 15 -6 0 -33 16 -61 35 -28 19 -57 35 -65 35 -8 0 -14 6 -14 13 0 7 -14
26 -32 43 -30 27 -31 27 -17 4z M2588 2064 c-38 -20 -36 -28 2 -9 17 9 30 18
30 20 0 7 -1 6 -32 -11z M1804 2026 c11 -9 24 -16 30 -16 12 0 7 5 -24 19 -24
11 -24 11 -6 -3z M2290 1970 c-34 -7 -34 -7 -5 -8 17 0 44 4 60 8 27 7 27 8 5
8 -14 -1 -41 -4 -60 -8z M2790 1869 c-22 -18 -22 -19 -3 -10 12 6 25 16 28 21
9 15 3 12 -25 -11z M2860 1775 c-19 -14 -30 -25 -25 -25 6 0 24 11 40 25 39
31 30 31 -15 0z M3154 1487 c-23 -18 -50 -38 -60 -45 -11 -7 -5 -6 11 2 28 14
106 75 95 75 -3 0 -24 -14 -46 -32z M1150 1045 c0 -6 87 -45 98 -45 10 1 -22
19 -63 36 -19 8 -35 12 -35 9z M3703 843 c-13 -2 -23 -8 -23 -12 0 -4 -10 -12
-22 -18 -25 -12 -93 -137 -83 -153 8 -13 72 -13 80 -1 9 16 -12 22 -41 11 -37
-14 -43 -5 -12 20 15 11 30 38 37 64 6 26 19 50 30 56 19 10 111 3 109 -9 -2
-18 3 -31 12 -31 6 0 6 9 1 24 -7 17 -5 28 7 40 16 16 15 16 -12 6 -20 -7 -32
-8 -40 0 -5 5 -12 9 -15 9 -4 -1 -16 -4 -28 -6z M996 755 c-10 -8 -23 -12 -27
-9 -5 3 -9 -2 -9 -11 0 -8 -6 -18 -13 -21 -18 -6 -19 -41 -1 -48 9 -3 14 1 14
12 0 9 12 25 26 35 32 24 52 9 46 -33 -5 -33 1 -32 -140 -31 -50 0 -71 -3 -66
-10 4 -7 -1 -9 -15 -4 -16 5 -20 3 -15 -9 3 -9 11 -17 18 -17 6 -1 18 -2 26
-3 8 0 29 7 45 16 38 23 60 23 93 -1 49 -34 72 -43 66 -27 -3 8 -19 20 -35 26
-40 17 -32 22 14 9 46 -12 61 -5 46 23 -8 15 -8 22 0 27 13 8 -26 91 -43 91
-6 0 -20 -7 -30 -15z M3550 649 c0 -5 -4 -8 -8 -5 -4 2 -19 -5 -32 -16 -20
-16 -21 -19 -5 -13 11 4 27 8 35 10 8 2 17 4 20 5 3 1 9 2 14 1 5 -1 4 5 -4
13 -15 19 -20 20 -20 5z M736 619 c3 -5 12 -9 21 -9 19 0 9 13 -12 16 -8 1
-13 -2 -9 -7z M777 603 c-8 -8 42 -43 61 -43 8 0 12 8 10 17 -2 11 -12 17 -28
17 -14 0 -28 4 -31 8 -3 5 -8 5 -12 1z M1057 567 c-2 -6 5 -20 14 -31 10 -10
16 -23 13 -28 -3 -5 3 -12 15 -15 12 -3 21 -11 21 -19 0 -8 6 -11 15 -8 8 4
15 1 15 -6 0 -7 6 -10 14 -7 7 3 19 0 25 -6 6 -6 11 -7 11 -1 0 5 -19 18 -42
29 -30 14 -42 25 -40 38 2 10 -3 17 -13 17 -8 0 -15 9 -15 19 0 21 -27 36 -33
18z M1004 483 c12 -13 96 -23 96 -12 0 4 -10 9 -22 13 -31 8 -83 8 -74 -1z"/>
</g>
<g transform="translate(0.000000,289.000000) scale(0.100000,-0.100000)"
fill="#f57624" stroke="none">
<path d="M2420 2400 c20 -13 33 -13 25 0 -3 6 -14 10 -23 10 -15 0 -15 -2 -2
-10z M1709 2293 l-24 -28 28 24 c25 23 32 31 24 31 -2 0 -14 -12 -28 -27z
M2657 2090 c-8 -11 -16 -18 -18 -16 -2 2 -13 -6 -24 -17 -16 -16 -17 -19 -3
-14 13 4 15 2 11 -10 -5 -12 -3 -14 7 -8 9 5 11 4 6 -4 -6 -8 -12 -9 -20 -2
-7 6 -16 8 -19 4 -4 -3 -7 -1 -7 6 0 8 -5 9 -19 1 -11 -5 -27 -10 -36 -10 -8
0 -32 -7 -53 -16 -20 -10 -41 -18 -47 -19 -5 0 -17 -4 -25 -7 -41 -17 -160
-29 -160 -16 0 4 -9 8 -20 8 -11 0 -20 -4 -20 -8 0 -5 -22 -7 -49 -5 -27 3
-59 -1 -70 -7 -12 -6 -21 -7 -21 -2 0 4 -42 14 -92 21 -51 7 -99 18 -105 23
-7 6 -19 8 -27 5 -8 -3 -20 1 -27 9 -6 8 -17 14 -23 13 -33 -4 -57 2 -50 13 5
8 2 9 -9 5 -11 -4 -17 -1 -17 9 0 14 -2 14 -15 0 -8 -8 -15 -21 -15 -28 0 -8
-6 -20 -12 -26 -10 -10 -10 -15 2 -22 8 -5 11 -12 7 -16 -3 -4 -13 -2 -20 4
-10 9 -16 9 -25 0 -6 -6 -15 -8 -19 -4 -4 4 8 21 27 38 23 20 30 32 22 35 -10
4 -8 8 5 18 10 7 15 17 10 21 -9 10 -36 -26 -31 -41 3 -6 -7 -17 -20 -25 -14
-7 -23 -16 -21 -20 5 -8 -54 -38 -84 -42 -14 -2 -26 -9 -27 -16 -1 -7 0 -8 3
-2 7 15 33 12 33 -4 0 -8 -6 -17 -12 -19 -8 -3 -6 -6 5 -6 9 -1 17 -5 17 -11
0 -14 76 -55 159 -86 41 -15 69 -30 63 -32 -19 -6 -112 27 -181 66 -41 22 -66
31 -69 24 -6 -20 -42 6 -42 30 0 15 -3 19 -10 12 -6 -6 -8 -17 -5 -25 7 -20
65 -54 65 -39 0 6 5 8 11 4 8 -4 7 -9 -2 -15 -16 -9 -14 -11 31 -31 97 -44
147 -66 170 -76 l25 -10 -25 3 c-30 3 -46 9 -129 46 -36 17 -73 27 -85 24 -12
-3 -15 -2 -8 1 15 7 -12 44 -31 44 -5 0 -20 12 -33 28 -19 21 -24 23 -24 10 0
-10 5 -18 11 -18 6 0 8 -7 5 -16 -7 -19 26 -52 61 -60 13 -4 23 -9 23 -13 0
-18 212 -106 224 -94 3 4 6 -1 6 -10 0 -10 6 -17 13 -17 8 0 7 -4 -3 -10 -8
-5 -19 -10 -25 -10 -5 0 -4 4 3 9 10 6 10 10 -3 21 -8 7 -18 10 -22 7 -3 -4
-12 -2 -20 4 -7 6 -13 9 -13 6 0 -3 -12 0 -26 8 -15 7 -35 12 -45 10 -11 -2
-19 2 -19 9 0 8 -11 17 -25 20 -34 9 -137 70 -157 95 -25 30 -58 28 -58 -4 0
-26 -15 -35 -22 -13 -9 25 -38 -3 -50 -48 -16 -58 -42 -74 -69 -43 -17 20 -19
20 -19 4 0 -18 -1 -18 -15 1 -8 10 -15 14 -15 7 0 -7 14 -28 31 -48 17 -19 28
-35 24 -35 -4 0 5 -10 21 -22 16 -12 31 -25 34 -29 5 -7 158 -99 163 -98 1 1
18 -6 37 -14 19 -9 53 -23 75 -32 l40 -16 -35 7 c-19 3 -43 7 -52 7 -9 1 -15
4 -13 8 4 6 -74 34 -87 31 -5 -1 -8 2 -8 8 0 5 -30 26 -67 46 -37 21 -91 62
-120 91 -32 32 -53 46 -53 36 0 -11 -5 -9 -21 8 l-20 24 17 -32 c9 -17 23 -29
30 -26 8 3 11 -2 7 -15 -3 -14 1 -22 16 -27 12 -3 19 -10 16 -15 -12 -20 254
-174 282 -163 7 3 13 0 13 -7 0 -6 5 -8 10 -5 6 3 10 1 10 -6 0 -6 8 -9 20 -6
11 3 18 2 15 -3 -3 -4 12 -7 33 -7 25 2 37 7 37 17 0 8 9 16 20 18 15 2 17 1
6 -6 -7 -6 -10 -15 -7 -21 4 -6 1 -11 -7 -11 -7 0 -20 -11 -27 -25 -7 -14 -20
-25 -29 -25 -14 1 -14 2 2 14 9 7 17 16 17 20 0 11 -28 6 -34 -6 -3 -9 -8 -7
-17 6 -9 15 -13 16 -20 5 -5 -9 -1 -18 14 -26 12 -7 18 -12 12 -12 -15 -1 -40
17 -41 29 -1 5 -2 15 -3 21 -1 8 -6 8 -16 -1 -13 -11 -14 -10 -10 2 4 10 -1
17 -14 21 -20 5 -26 -4 -21 -28 1 -5 -2 -6 -7 -2 -4 5 -8 15 -8 23 0 9 -37 35
-85 61 -105 57 -209 139 -223 176 -8 21 -37 22 -37 1 0 -19 25 -45 35 -36 4 4
5 -3 1 -14 -5 -17 2 -27 31 -50 21 -15 43 -33 48 -40 25 -29 137 -91 255 -141
51 -21 39 -26 -20 -7 -14 4 -27 6 -29 5 -2 -2 -8 3 -12 11 -7 11 -9 10 -9 -1
0 -9 -6 -7 -19 7 -10 12 -36 29 -57 38 -21 9 -51 26 -66 38 -73 58 -84 66 -93
66 -5 0 -23 18 -40 41 -16 22 -36 38 -45 37 -8 -1 -21 1 -29 6 -7 5 -16 5 -20
-1 -3 -5 -15 -13 -26 -17 -16 -6 -17 -9 -5 -16 11 -7 6 -10 -18 -10 -23 0 -32
-4 -29 -12 2 -8 15 -12 30 -10 15 2 27 -1 27 -7 0 -6 -18 -11 -40 -11 -22 0
-40 -4 -40 -10 0 -5 9 -10 21 -10 12 0 17 -4 14 -11 -4 -6 -14 -8 -22 -5 -8 3
-25 3 -38 0 -21 -5 -23 -9 -14 -31 5 -14 7 -28 4 -31 -3 -3 -5 -1 -5 5 0 8
-41 33 -55 33 -3 0 -5 -9 -5 -20 0 -11 -4 -20 -10 -20 -5 0 -10 -7 -10 -15 0
-9 -10 -15 -26 -15 -28 0 -97 -47 -88 -61 3 -5 0 -9 -5 -9 -6 0 -11 -7 -11
-15 0 -8 -5 -15 -10 -15 -6 0 -23 -11 -38 -25 -26 -24 -27 -24 -34 -5 -11 29
-21 24 -14 -6 6 -21 4 -25 -8 -21 -8 3 -16 -2 -19 -14 -3 -11 -14 -19 -26 -19
-12 0 -25 -8 -28 -17 -4 -10 -15 -27 -25 -37 -17 -19 -18 -19 -18 -2 0 16 -3
15 -20 -7 -11 -14 -20 -32 -20 -41 0 -10 -5 -13 -17 -9 -11 4 -14 3 -9 -5 4
-7 9 -25 12 -40 7 -42 13 -53 26 -51 7 1 24 -3 38 -9 17 -7 20 -11 8 -11 -9
-1 -20 4 -23 9 -4 6 -11 8 -16 4 -6 -4 -1 -16 12 -30 12 -13 19 -24 14 -24 -5
0 0 -7 11 -15 10 -8 15 -15 10 -15 -5 0 6 -15 25 -32 19 -18 34 -35 34 -38 0
-3 6 -4 12 -4 7 1 11 -2 8 -6 -6 -10 63 -86 76 -82 5 1 17 -5 25 -13 9 -8 20
-13 25 -9 5 3 9 2 8 -3 -4 -17 13 -42 26 -37 7 3 16 1 19 -5 4 -6 14 -7 22 -4
13 5 13 8 2 15 -9 7 -8 8 5 4 28 -9 128 5 120 17 -3 6 -2 7 3 4 6 -3 16 -2 24
4 12 7 9 9 -10 10 -16 1 -19 3 -8 6 11 3 15 10 11 20 -5 12 -2 15 11 10 10 -4
16 -2 15 6 -4 30 2 39 21 34 11 -3 20 -1 20 3 0 18 40 20 69 5 31 -16 55 -48
44 -59 -3 -3 -1 -6 6 -6 8 0 10 -8 7 -22 -3 -13 -3 -17 0 -10 9 20 19 14 22
-14 3 -41 -15 -55 -57 -48 -27 5 -33 4 -25 -5 6 -7 21 -13 33 -14 14 -1 20 -6
16 -16 -5 -12 -3 -12 11 0 13 11 15 11 12 -2 -1 -7 9 -30 25 -50 15 -20 27
-41 27 -46 0 -6 14 -13 30 -17 17 -3 30 -10 30 -15 0 -18 -44 -19 -80 -1 -24
12 -41 15 -51 9 -11 -7 -9 -9 9 -9 21 0 61 -17 72 -31 3 -4 15 -9 28 -13 23
-8 31 8 10 18 -7 3 6 4 30 1 28 -4 41 -2 37 5 -3 5 -12 10 -18 10 -7 1 -23 10
-36 21 -21 17 -22 22 -10 30 12 8 12 10 -1 19 -12 8 -12 10 5 10 16 0 17 2 5
9 -8 6 -18 7 -22 5 -4 -3 -5 2 -2 10 4 11 0 16 -15 16 -12 0 -21 5 -21 11 0 7
10 9 25 7 18 -4 26 0 30 13 4 11 13 19 21 19 8 0 12 -4 9 -10 -3 -5 0 -10 8
-10 11 0 13 7 9 22 -4 17 -2 20 11 15 13 -5 17 -1 17 19 0 14 -4 23 -9 19 -12
-7 -34 32 -26 45 11 18 22 10 38 -27 l15 -38 1 30 c1 19 -6 36 -17 44 -12 9
-17 21 -14 37 2 14 0 24 -7 24 -20 0 -12 16 14 28 19 9 25 19 25 43 0 19 7 37
18 45 16 13 16 13 0 14 -13 0 -18 8 -18 29 0 33 -17 51 -26 27 -5 -12 -9 -13
-25 -3 -11 7 -17 18 -14 26 5 11 3 12 -10 1 -14 -12 -15 -11 -4 13 7 15 16 27
21 27 5 0 6 -5 3 -10 -4 -6 6 -10 22 -10 22 0 25 -2 13 -11 -11 -8 -7 -9 18
-4 27 6 32 4 32 -12 0 -15 2 -15 10 -3 5 9 5 19 0 26 -14 16 66 42 82 26 16
-16 48 -15 48 1 0 8 -19 18 -47 23 l-48 10 40 17 c26 11 56 38 83 72 l43 55
-28 0 c-22 0 -25 2 -13 10 8 5 30 7 48 4 27 -5 31 -4 26 10 -3 9 -1 16 5 16 6
0 20 9 30 19 22 22 68 40 57 22 -5 -7 -1 -8 10 -4 14 5 14 7 2 14 -21 12 -90
-9 -81 -24 4 -7 -1 -5 -11 3 -17 13 -16 15 15 23 35 9 74 37 51 37 -7 0 -12
-4 -12 -10 0 -5 -7 -10 -16 -10 -14 0 -14 3 -4 15 7 8 20 15 29 15 9 0 28 7
43 14 16 9 30 11 33 5 7 -11 25 -12 25 -1 0 4 -16 14 -36 21 -32 11 -37 11
-50 -6 -14 -17 -14 -16 -4 5 12 25 11 25 63 13 46 -11 49 2 5 17 -22 8 -25 10
-8 7 14 -2 34 3 45 12 20 15 20 15 -2 10 -15 -3 -20 -1 -16 9 5 13 17 18 36
15 5 -1 6 2 4 6 -3 5 0 13 7 19 10 9 16 12 41 19 35 11 36 14 4 14 -22 1 -36
6 -36 14 0 9 13 13 36 13 44 -1 53 33 11 45 -20 6 -17 7 18 8 42 1 62 21 20
21 -12 0 -19 2 -16 5 3 3 33 1 66 -3 76 -11 72 -1 -6 15 -54 11 -52 11 41 6
69 -4 97 -2 97 6 0 6 -16 11 -37 11 -21 0 -51 7 -67 15 -31 17 -72 22 -47 6
11 -7 9 -10 -8 -16 -13 -4 -25 -4 -28 -1 -4 3 1 6 11 6 13 0 15 4 6 20 -14 27
29 37 200 47 99 5 123 9 88 13 -26 3 -79 1 -117 -4 -78 -11 -76 -11 -85 24 -6
18 -5 21 3 10 12 -18 26 -6 26 23 0 17 6 22 27 22 25 -1 27 2 22 30 -5 30 -5
30 11 8 12 -18 25 -22 61 -21 27 0 51 -5 62 -15 13 -11 30 -13 67 -8 71 9 125
3 125 -14 0 -7 -10 -15 -22 -18 -20 -3 -21 -5 -6 -11 11 -5 23 -2 33 8 23 23
75 21 75 -2 0 -11 10 -24 23 -30 l22 -11 -24 0 c-13 -1 -22 -4 -18 -7 3 -4 18
-3 33 0 25 7 26 8 8 21 -18 14 -17 14 8 15 15 0 30 5 33 10 3 6 12 10 18 10 8
0 7 -3 -2 -9 -7 -5 -9 -11 -5 -13 5 -3 3 -3 -3 -2 -7 2 -13 -3 -13 -10 0 -22
64 2 76 28 5 11 18 22 29 22 24 2 90 36 125 65 14 11 19 18 11 14 -9 -5 -8 1
4 19 10 14 22 26 27 26 6 0 5 -7 -2 -15 -24 -30 -3 -25 23 5 25 28 26 30 7 30
-14 0 -19 6 -17 21 1 16 -6 24 -28 32 -16 5 -37 16 -46 23 -8 8 -23 14 -32 14
-10 0 -19 11 -23 26 -5 18 -10 22 -17 15 -16 -16 -30 -13 -23 4 8 21 0 19 -17
-5z m-930 -96 c-9 -9 -28 6 -21 18 4 6 10 6 17 -1 6 -6 8 -13 4 -17z m-112
-63 c8 -14 -8 -21 -34 -14 -17 4 -19 8 -9 14 17 11 35 11 43 0z m525 -51 c0
-5 -9 -10 -20 -10 -11 0 -20 5 -20 10 0 6 9 10 20 10 11 0 20 -4 20 -10z m343
-40 c-3 -11 -11 -20 -18 -20 -10 0 -11 5 -2 24 14 28 28 25 20 -4z m-1073 -56
c0 -16 -16 -19 -25 -4 -8 13 4 32 16 25 5 -4 9 -13 9 -21z m-82 -54 c2 -23 -2
-40 -8 -40 -5 0 -10 18 -10 40 0 22 4 40 8 40 4 0 9 -18 10 -40z m-283 -180
c3 -5 -1 -10 -9 -10 -9 0 -16 5 -16 10 0 6 4 10 9 10 6 0 13 -4 16 -10z m45
-10 c0 -5 -4 -10 -9 -10 -6 0 -13 5 -16 10 -3 6 1 10 9 10 9 0 16 -4 16 -10z
m-320 -220 c0 -5 -7 -10 -16 -10 -8 0 -12 5 -9 10 3 6 10 10 16 10 5 0 9 -4 9
-10z m789 -20 c4 0 7 -9 8 -21 l2 -21 -18 21 c-10 11 -21 18 -25 14 -3 -3 -6
-1 -6 6 0 8 6 11 16 7 9 -3 19 -6 23 -6z m-380 -258 c20 -9 39 -15 44 -14 11
3 8 -13 -5 -26 -16 -16 -29 -15 -22 2 3 7 -2 16 -10 19 -9 4 -16 1 -16 -6 0
-7 -9 -13 -20 -14 -13 -1 -20 4 -20 15 0 13 2 14 9 3 5 -8 11 -9 15 -3 3 6 -9
20 -27 32 -36 24 -14 21 52 -8z m189 4 c-9 -9 -15 -10 -24 -2 -9 8 -8 12 5 17
22 9 33 0 19 -15z m-88 -211 c0 -15 -6 -25 -14 -25 -11 0 -12 5 -3 25 15 31
17 31 17 0z m-25 -75 c8 -13 -5 -13 -25 0 -13 8 -13 10 2 10 9 0 20 -4 23 -10z
M2925 1930 c-4 -6 -11 -8 -16 -4 -6 3 -17 -2 -25 -12 -9 -11 -13 -13 -9 -7 4
9 1 11 -9 7 -20 -8 -20 -14 2 -31 15 -13 15 -13 -6 -3 -17 8 -27 8 -43 -4
l-21 -14 22 -12 c16 -9 25 -8 38 2 36 27 90 88 79 88 -3 0 -9 -5 -12 -10z
M2932 1889 c-16 -20 -19 -29 -10 -33 7 -3 3 -3 -9 0 -12 3 -25 -1 -30 -8 -11
-17 -69 -58 -83 -58 -5 0 -10 -4 -10 -10 0 -5 -3 -9 -7 -8 -5 1 -21 -2 -36 -7
-22 -6 -26 -10 -15 -17 9 -7 7 -8 -9 -5 -12 3 -24 0 -26 -6 -4 -13 -37 -2 -37
14 0 6 7 8 16 5 21 -8 97 32 91 48 -7 17 12 36 33 36 10 -1 7 -5 -9 -14 -13
-7 -19 -16 -13 -20 5 -3 20 2 33 13 l23 18 -23 8 c-22 7 -87 -18 -102 -39 -4
-5 -11 -6 -17 -2 -6 3 -21 -4 -35 -17 -13 -14 -40 -30 -60 -36 -46 -16 -46
-16 4 -17 26 -1 36 2 28 7 -11 7 -10 9 3 9 10 0 22 -10 29 -21 10 -20 9 -21
-17 -14 -59 15 -155 -1 -110 -18 11 -5 15 -3 10 5 -5 8 0 9 14 5 26 -8 62 -16
45 -10 -7 3 -13 9 -13 15 0 6 8 7 18 3 9 -4 32 -11 50 -17 20 -5 32 -15 32
-26 -1 -16 -1 -16 -11 1 -5 9 -15 17 -20 17 -6 0 -7 -5 -3 -11 4 -8 -1 -9 -15
-4 -25 7 -81 -12 -81 -27 0 -10 17 -8 80 7 34 7 62 -10 40 -26 -12 -8 -9 -10
13 -6 15 2 27 0 27 -4 0 -5 12 -9 26 -9 22 0 25 -2 14 -15 -7 -8 -16 -13 -20
-10 -5 3 -11 1 -15 -5 -6 -10 7 -14 33 -11 6 1 12 -3 12 -9 0 -5 7 -10 15 -10
10 0 15 -10 15 -27 0 -21 3 -24 12 -15 7 7 19 12 28 12 13 -1 13 -2 0 -13 -8
-7 -22 -21 -30 -31 -15 -19 -14 -19 13 -1 15 10 31 15 35 11 4 -4 -1 -12 -11
-18 -24 -13 -3 -41 25 -32 10 3 25 1 32 -5 9 -8 18 -7 32 4 10 8 27 15 36 15
10 0 22 9 28 20 7 12 16 17 27 13 13 -5 15 -2 10 11 -4 10 -3 15 3 11 6 -3 10
-1 10 4 0 6 5 11 11 11 5 0 7 -5 3 -12 -9 -13 49 25 83 55 12 11 20 24 17 28
-3 5 3 6 13 2 10 -3 15 -3 11 2 -4 4 0 15 10 24 17 15 25 71 10 71 -12 0 -26
-34 -21 -50 4 -12 3 -12 -5 -1 -8 11 -14 9 -31 -8 -12 -12 -19 -26 -16 -31 3
-6 -1 -7 -9 -4 -11 4 -16 0 -16 -10 0 -9 -6 -15 -12 -13 -7 1 -12 -4 -11 -10
2 -7 0 -12 -5 -11 -14 4 -52 -13 -52 -23 0 -6 -5 -7 -10 -4 -6 3 -13 -1 -16
-9 -3 -9 -14 -16 -24 -16 -10 0 -21 -7 -24 -16 -3 -9 -12 -14 -18 -12 -7 3
-19 -1 -26 -9 -7 -7 -18 -13 -23 -13 -15 0 -10 20 7 27 13 5 13 7 2 14 -10 7
-11 9 0 9 7 0 10 4 7 10 -3 6 1 7 9 4 9 -3 13 -11 9 -18 -3 -6 3 -3 14 7 11 9
23 14 26 10 4 -3 7 -1 7 5 0 7 3 11 8 10 15 -3 42 15 35 25 -3 6 -1 7 5 3 7
-4 12 -2 12 3 0 6 7 11 15 11 9 0 18 7 21 15 4 8 10 13 14 10 13 -8 91 75 84
88 -4 7 -4 9 1 5 8 -8 34 19 35 36 0 4 -12 5 -27 1 -21 -5 -24 -4 -16 7 13 15
0 36 -35 56 -29 16 -32 15 -32 -5 0 -10 -10 1 -22 24 -12 23 -24 42 -27 41
-28 -3 -40 4 -34 20 6 15 3 14 -17 -3 -44 -37 -59 -59 -47 -68 8 -6 5 -7 -6
-3 -20 6 -70 -21 -62 -34 3 -5 1 -11 -5 -15 -5 -3 -10 -1 -10 4 0 8 -7 7 -19
-1 -11 -7 -18 -14 -17 -18 2 -3 -5 -14 -16 -25 -14 -14 -19 -16 -16 -5 2 8 8
18 13 22 6 5 5 8 -3 8 -7 0 -15 -7 -19 -16 -3 -8 -12 -13 -19 -10 -8 3 -14 1
-14 -4 0 -5 -7 -7 -15 -4 -8 4 -15 1 -15 -6 0 -6 -5 -8 -11 -4 -8 5 -8 9 1 14
7 4 10 12 7 18 -4 5 4 9 16 8 31 -3 62 11 140 62 61 41 72 52 68 75 0 4 4 6
10 5 6 -2 15 7 20 20 5 14 5 21 0 17 -5 -3 -11 -1 -13 3 -1 5 -13 -3 -26 -19z
M2303 1743 c9 -2 23 -2 30 0 6 3 -1 5 -18 5 -16 0 -22 -2 -12 -5z M2437 1734
c6 -15 23 -19 23 -5 0 5 -7 11 -14 14 -10 4 -13 1 -9 -9z M1240 1711 c0 -12 5
-21 10 -21 6 0 10 6 10 14 0 8 -4 18 -10 21 -5 3 -10 -3 -10 -14z M1965 1719
c-26 -10 -27 -10 187 -12 97 -1 174 1 170 5 -11 11 -333 17 -357 7z M3234
1692 c3 -5 1 -12 -5 -14 -7 -2 -10 -11 -7 -18 3 -11 8 -10 16 7 9 16 9 24 0
29 -6 4 -8 3 -4 -4z M2241 1664 c6 -8 18 -14 26 -14 20 0 8 16 -17 23 -17 4
-19 3 -9 -9z M2350 1670 c0 -5 14 -10 32 -10 36 0 35 4 -4 14 -17 4 -28 2 -28
-4z M3260 1663 c0 -7 -17 -28 -37 -48 -30 -29 -35 -38 -23 -45 13 -9 13 -10 0
-11 -8 -1 -19 -1 -23 0 -15 3 -77 -51 -78 -68 0 -9 -3 -11 -5 -4 -3 7 -12 9
-20 6 -7 -3 -11 -10 -7 -16 3 -5 1 -7 -5 -3 -6 3 -18 -2 -28 -11 -10 -10 -22
-18 -28 -19 -24 -1 -56 -16 -56 -26 0 -5 -7 -8 -15 -4 -8 3 -15 1 -15 -4 0 -6
-4 -10 -10 -10 -5 0 -10 7 -10 15 0 20 -6 19 -39 -4 -15 -11 -39 -23 -54 -26
-15 -4 -27 -12 -27 -17 0 -6 8 -7 18 -3 42 16 114 24 132 15 29 -16 38 -11 10
5 -17 10 -20 14 -9 15 27 0 69 -39 63 -58 -5 -14 -4 -15 5 -2 10 13 14 11 31
-10 11 -14 20 -29 20 -35 0 -5 -5 -3 -11 5 -9 13 -10 13 -6 0 2 -8 14 -14 26
-13 11 2 21 -2 21 -8 0 -5 -4 -7 -10 -4 -14 9 -12 -19 2 -33 17 -17 25 -15 33
11 6 19 8 20 12 4 2 -10 0 -31 -5 -47 -8 -22 -7 -30 3 -34 20 -7 31 14 14 26
-11 7 -10 8 5 6 34 -5 28 -26 -16 -54 -52 -33 -53 -33 -46 -39 3 -3 16 -2 29
3 66 25 76 24 71 -7 -6 -41 24 -56 71 -36 33 14 47 12 47 -7 0 -5 -6 -6 -12
-2 -7 4 4 -10 24 -31 22 -22 43 -35 52 -32 9 4 17 -3 21 -16 4 -13 8 -17 11
-10 10 23 34 -13 34 -50 0 -22 6 -37 15 -41 18 -6 20 -27 3 -24 -6 2 -14 -5
-16 -14 -2 -11 2 -18 12 -18 9 0 16 -4 16 -10 0 -5 9 -10 20 -10 24 0 26 -13
5 -30 -21 -17 -19 -30 4 -30 28 0 52 11 46 20 -3 5 0 12 6 16 8 4 9 3 5 -4 -4
-7 -3 -12 3 -12 5 0 13 5 16 10 3 6 12 10 18 10 7 0 -1 -9 -18 -20 -16 -11
-25 -20 -20 -20 6 -1 -7 -10 -27 -21 -39 -20 -51 -42 -20 -37 11 2 17 -3 17
-17 0 -11 -5 -20 -12 -20 -20 0 -28 -16 -13 -25 10 -6 22 -2 37 12 13 12 23
18 23 14 0 -5 7 -3 15 4 12 10 13 15 4 21 -9 5 -8 11 4 24 10 9 15 20 12 25
-8 12 93 109 133 127 68 31 73 33 68 25 -3 -4 4 -13 15 -20 11 -7 19 -8 19 -2
0 5 -5 10 -12 10 -20 0 1 13 25 15 12 1 29 4 37 6 8 2 15 -3 15 -11 2 -18 -44
-70 -61 -70 -7 0 -16 -4 -19 -10 -4 -6 1 -7 12 -3 26 9 93 75 87 85 -3 4 -2 8
3 8 16 0 67 74 65 95 -1 11 12 36 28 55 17 19 30 38 30 43 0 16 2 23 13 35 8
10 7 12 -2 10 -7 -2 -15 8 -17 21 -7 40 -15 38 -11 -2 2 -20 0 -37 -4 -37 -5
0 -9 11 -9 25 0 14 -7 28 -15 31 -8 4 -15 13 -15 21 0 10 -6 12 -19 8 -18 -5
-19 -2 -14 31 l6 36 -22 -18 c-20 -17 -20 -19 -4 -26 10 -3 12 -7 6 -7 -7 -1
-13 -8 -13 -16 0 -8 -7 -15 -16 -15 -13 0 -14 3 -5 14 10 12 6 15 -20 21 -19
4 -33 15 -37 27 -3 12 -10 17 -19 14 -11 -4 -13 -1 -8 14 7 22 -10 28 -19 8
-5 -10 -7 -10 -12 0 -3 6 -18 13 -32 13 -18 1 -21 3 -9 6 28 7 13 28 -17 26
-22 -2 -25 1 -16 12 9 10 2 15 -32 21 l-43 8 35 7 35 6 -32 2 c-26 1 -31 4
-26 18 5 13 2 15 -17 10 -26 -7 -90 19 -90 35 0 6 7 7 15 4 8 -3 22 -9 30 -12
8 -3 15 -2 15 4 0 5 -12 12 -27 15 -22 4 -34 -1 -56 -26 l-28 -32 25 51 c14
28 22 54 19 58 -12 12 -22 6 -26 -16 l-4 -23 -8 23 c-4 12 -15 22 -25 22 -10
0 -20 3 -22 8 -1 4 -21 16 -43 28 -31 15 -39 25 -37 42 3 24 -12 30 -22 10 -4
-7 -4 3 -1 22 4 30 3 32 -7 15 -6 -11 -18 -26 -25 -33 -7 -7 -18 -21 -25 -30
-7 -10 -32 -33 -56 -52 -23 -19 -40 -40 -38 -47 3 -7 2 -12 -2 -12 -4 1 -9 0
-12 -1 -3 -1 -12 -3 -21 -5 -31 -6 -69 -37 -70 -59 -1 -16 -2 -17 -6 -4 -3 14
-7 15 -18 5 -7 -6 -11 -14 -10 -17 7 -12 -45 -4 -57 8 -11 11 -10 13 2 11 26
-5 59 11 66 33 5 16 8 18 15 7 7 -11 9 -11 9 -1 0 7 5 10 10 7 6 -3 10 1 10
10 0 9 4 14 9 10 5 -3 12 4 16 15 4 11 11 18 16 14 5 -3 6 -11 3 -17 -11 -18
45 31 93 83 47 50 87 110 73 110 -4 0 -11 -6 -13 -12 -4 -10 -8 -9 -16 2 -7 9
-11 11 -11 3z m-105 -154 c-5 -16 -9 -18 -15 -9 -4 7 -3 19 3 25 16 17 20 11
12 -16z m-170 -89 c-10 -11 -23 -20 -28 -20 -6 0 0 9 13 20 13 11 25 20 28 20
3 0 -3 -9 -13 -20z m415 -243 c-25 -23 -54 -43 -65 -44 -19 -1 -18 0 3 15 12
9 39 29 59 45 53 40 54 33 3 -16z m-15 23 c-3 -5 -10 -10 -16 -10 -5 0 -9 5
-9 10 0 6 7 10 16 10 8 0 12 -4 9 -10z m42 -45 c-4 -8 -16 -15 -27 -15 -12 0
-18 5 -15 10 4 6 10 8 15 5 4 -3 11 2 14 11 4 9 9 14 12 11 4 -3 4 -13 1 -22z
m-177 -19 c0 -5 -7 -3 -15 4 -8 7 -12 17 -9 22 7 10 24 -9 24 -26z m58 -21
c-3 -3 -13 -2 -22 1 -14 5 -15 9 -4 15 13 8 36 -6 26 -16z m646 -150 c-4 -8
-14 -15 -23 -15 -14 1 -13 3 3 15 25 19 27 19 20 0z m-274 -95 c0 -5 -5 -10
-11 -10 -5 0 -8 -4 -5 -9 3 -5 -2 -12 -11 -15 -9 -4 -20 -1 -25 6 -15 25 -8
38 22 38 17 0 30 -4 30 -10z m-85 -100 c-3 -5 -16 -15 -28 -21 -19 -9 -19 -8
3 10 28 23 34 26 25 11z M2453 1653 c9 -2 23 -2 30 0 6 3 -1 5 -18 5 -16 0
-22 -2 -12 -5z M2399 1648 c-9 -31 -5 -38 19 -38 l27 1 -23 12 c-12 7 -19 16
-16 20 4 4 4 7 1 7 -4 0 -7 -1 -8 -2z M2450 1633 c8 -3 21 -10 28 -16 9 -7 11
-6 6 7 -3 9 -16 16 -28 15 -14 0 -16 -2 -6 -6z M1943 1608 c16 -10 394 -10
400 0 3 4 -89 7 -203 7 -114 0 -203 -3 -197 -7z M875 1480 c-3 -5 1 -10 9 -10
9 0 16 5 16 10 0 6 -4 10 -9 10 -6 0 -13 -4 -16 -10z M2755 1428 c-16 -5 -46
-13 -65 -18 -19 -5 -57 -15 -85 -23 -49 -13 -49 -14 -18 -19 18 -2 30 -1 27 4
-3 4 9 8 26 8 28 0 136 32 148 45 11 10 -4 12 -33 3z M1780 1362 c0 -10 110
-23 170 -21 27 1 22 3 -20 9 -126 18 -150 20 -150 12z M2490 1360 c-13 -8 -13
-10 2 -10 9 0 20 5 23 10 8 13 -5 13 -25 0z M2700 1352 c-60 -17 -66 -19 -58
-27 7 -8 118 27 118 37 0 4 -1 7 -2 7 -2 -1 -28 -8 -58 -17z M2425 1350 c-8
-13 5 -13 25 0 13 8 13 10 -2 10 -9 0 -20 -4 -23 -10z M2895 1351 c3 -5 -1
-12 -7 -14 -8 -4 -7 -6 4 -6 23 -1 32 15 12 23 -8 3 -13 2 -9 -3z M2944 1351
c4 -6 0 -14 -8 -17 -9 -3 -13 -10 -10 -15 3 -5 -3 -9 -12 -9 -10 0 -15 -2 -12
-5 3 -4 16 -3 30 0 25 6 35 39 16 51 -7 4 -8 2 -4 -5z M1683 1327 c2 -6 14
-11 26 -10 13 2 20 -1 16 -7 -3 -5 4 -10 17 -9 13 0 50 -2 83 -5 41 -4 54 -3
40 3 -11 5 -36 10 -55 10 -19 1 -57 8 -83 16 -36 11 -47 11 -44 2z M2078 1333
c45 -2 119 -2 165 0 45 1 8 3 -83 3 -91 0 -128 -2 -82 -3z M2802 1327 c-41
-11 -51 -21 -38 -34 3 -4 6 -1 6 6 0 7 4 10 9 6 12 -7 91 17 91 27 0 10 -15 9
-68 -5z M2860 1305 c-14 -8 -20 -14 -14 -15 5 0 19 7 30 15 24 18 16 19 -16 0z
M2496 1302 c-2 -4 11 -6 30 -4 19 2 34 6 34 8 0 8 -59 4 -64 -4z M2355 1288
c-44 -5 -168 -7 -275 -5 -139 2 -178 1 -135 -5 76 -12 462 -3 495 10 29 12 22
12 -85 0z M3822 1286 c7 -7 19 -11 25 -9 22 9 14 23 -12 23 -21 0 -24 -2 -13
-14z M2625 1273 c-33 -8 -71 -16 -84 -19 -13 -3 -21 -7 -18 -10 5 -5 120 18
172 35 47 15 -1 11 -70 -6z M1680 1266 c0 -10 9 -16 23 -16 12 0 40 -3 62 -7
50 -7 40 7 -12 17 -21 4 -46 11 -55 15 -13 5 -18 2 -18 -9z M3840 1250 c0 -5
4 -10 9 -10 6 0 13 5 16 10 3 6 -1 10 -9 10 -9 0 -16 -4 -16 -10z M1610 1240
c-18 -12 -2 -12 25 0 13 6 15 9 5 9 -8 0 -22 -4 -30 -9z M1880 1230 c30 -5 71
-8 90 -8 28 1 25 2 -15 8 -27 5 -68 8 -90 8 -35 -1 -33 -2 15 -8z M2370 1229
c-23 -5 -10 -5 35 -2 39 3 72 7 74 9 7 7 -72 2 -109 -7z M2092 1213 c37 -2
100 -2 140 0 40 1 10 3 -67 3 -77 0 -110 -1 -73 -3z M2970 1083 l-25 -15 25 6
c14 3 28 6 33 6 4 0 7 5 7 10 0 13 -9 11 -40 -7z M2865 1050 c-25 -11 1 -11
35 0 20 6 21 8 5 8 -11 0 -29 -3 -40 -8z M2665 1000 c-29 -7 -29 -8 10 -9 22
0 47 4 55 9 18 12 -18 12 -65 0z M2575 980 c-18 -8 -17 -9 8 -9 15 -1 27 4 27
9 0 12 -8 12 -35 0z M1329 957 c14 -14 91 -21 91 -8 0 6 -9 12 -20 12 -63 4
-78 3 -71 -4z M2445 960 c3 -5 12 -7 20 -3 21 7 19 13 -6 13 -11 0 -18 -4 -14
-10z M2198 943 c23 -2 61 -2 85 0 23 2 4 4 -43 4 -47 0 -66 -2 -42 -4z M1328
928 c9 -9 15 -9 24 0 9 9 7 12 -12 12 -19 0 -21 -3 -12 -12z M1358 874 c5 -42
8 -43 14 -4 2 16 -1 31 -7 33 -7 3 -9 -7 -7 -29z M2700 886 c0 -3 15 -35 34
-73 19 -37 41 -85 50 -106 l16 -38 30 17 c16 10 30 24 30 31 0 16 -12 17 -26
3 -20 -20 -39 0 -69 71 -16 39 -36 73 -42 76 -7 3 -10 9 -7 14 3 5 0 9 -5 9
-6 0 -11 -2 -11 -4z M2810 880 c-8 -5 -12 -11 -9 -14 2 -3 11 -1 19 4 8 5 12
11 9 14 -2 3 -11 1 -19 -4z M1470 851 c0 -5 -9 -7 -20 -4 -19 5 -27 -7 -13
-21 4 -3 6 -29 4 -57 -2 -33 1 -49 8 -45 6 4 7 -4 1 -23 -9 -33 -6 -34 69 -7
25 8 48 13 52 10 12 -7 49 47 49 72 0 36 -20 72 -44 78 -33 9 -106 7 -106 -3z
M2642 820 c-2 -22 1 -46 5 -53 4 -6 8 -28 9 -47 3 -80 4 -90 14 -90 6 0 9 12
8 26 -4 38 39 55 48 19 3 -14 13 -25 21 -25 8 0 12 3 10 8 -3 4 -25 51 -50
105 -26 53 -50 97 -55 97 -4 0 -9 -18 -10 -40z m47 -60 c3 -3 7 -16 9 -29 6
-43 -21 -17 -34 35 -17 63 -17 65 3 29 9 -16 19 -32 22 -35z M1632 729 c-44
-116 -45 -129 -9 -128 21 0 21 1 2 9 -19 8 -18 9 4 9 19 1 22 5 18 22 -3 12
-3 18 0 15 3 -3 12 2 19 12 12 15 14 14 15 -15 1 -18 2 -38 3 -44 0 -7 12 -13
26 -14 25 -3 26 -2 27 68 1 75 -2 74 -12 -5 -3 -27 -10 -48 -15 -48 -5 0 -4
13 1 29 13 38 8 97 -8 94 -9 -2 -7 11 6 46 l18 49 -21 6 c-11 3 -23 6 -26 6
-3 0 -24 -50 -48 -111z M2543 820 c-3 -11 -10 -17 -16 -13 -7 4 -8 -8 -4 -35
3 -23 2 -40 -2 -38 -12 8 4 -92 18 -108 8 -9 25 -15 40 -15 20 1 22 2 6 6 -31
7 -40 21 -11 16 47 -9 59 13 52 90 -3 37 -13 79 -22 93 -20 29 -54 32 -61 4z
m52 -100 l0 -75 -28 -1 c-15 -1 -30 3 -34 9 -3 6 -1 7 6 3 8 -6 10 3 5 33 -10
64 3 113 29 109 20 -3 22 -8 22 -78z M1379 814 c-8 -10 -22 -13 -38 -10 -14 3
-20 3 -13 0 16 -8 15 -33 -2 -40 -11 -4 -14 -22 -11 -72 2 -65 17 -91 23 -44
2 12 8 22 13 22 5 0 9 6 9 14 0 8 11 28 25 44 18 21 25 40 23 62 -3 38 -11 45
-29 24z M1755 805 c-13 -12 -26 -20 -29 -17 -3 3 -6 0 -6 -6 0 -5 -3 -17 -6
-26 -12 -31 29 -17 66 23 34 36 36 40 18 45 -13 3 -29 -4 -43 -19z M1840 773
c0 -21 -3 -75 -7 -120 l-6 -83 32 0 c19 0 30 4 26 10 -4 6 -14 9 -22 8 -9 -2
-18 3 -20 10 -3 7 1 10 11 6 12 -5 15 1 14 28 -1 19 3 41 8 49 5 8 14 40 20
72 l11 57 -34 0 c-32 0 -33 -2 -33 -37z M1930 772 c-5 -19 -7 -39 -4 -44 3 -4
0 -8 -5 -8 -6 0 -11 -8 -11 -17 0 -9 -10 -27 -22 -40 -13 -14 -17 -23 -9 -23
7 0 11 -6 8 -15 -4 -8 -2 -17 3 -20 6 -4 10 3 10 14 0 12 5 21 12 21 6 0 9 3
5 6 -6 7 30 81 44 89 4 3 2 -10 -6 -29 -8 -20 -15 -41 -14 -48 0 -7 5 -2 10
12 8 19 12 21 18 11 11 -17 37 89 28 112 -3 8 -17 15 -31 15 -21 0 -28 -7 -36
-36z M2401 770 c-6 -21 -11 -65 -10 -99 1 -56 4 -63 30 -82 16 -11 29 -16 29
-10 0 6 7 11 15 11 17 0 35 30 35 59 0 13 -6 21 -16 21 -13 0 -15 -7 -10 -30
5 -26 2 -32 -17 -39 -15 -6 -24 -4 -30 5 -5 8 -12 12 -18 9 -5 -4 -9 1 -9 9 0
9 4 16 9 16 11 0 8 81 -4 99 -5 10 -4 12 3 7 8 -5 12 0 12 14 0 25 25 37 44
21 13 -11 26 -5 26 11 0 5 -4 6 -10 3 -5 -3 -10 -2 -10 4 0 5 -13 9 -29 9 -24
-1 -30 -7 -40 -38z M2041 791 c-8 -5 -11 -16 -8 -25 4 -9 3 -16 -2 -16 -11 0
-46 -91 -42 -110 1 -8 7 -19 13 -25 7 -7 8 -3 3 13 -3 12 -3 22 2 21 18 -3 33
2 33 10 0 5 4 20 9 33 5 13 9 25 9 28 0 3 7 18 16 34 21 41 4 60 -33 37z m-15
-123 c-19 -27 -21 -13 -3 25 8 17 13 22 15 12 2 -8 -4 -25 -12 -37z M2140 752
c0 -33 -3 -43 -14 -39 -9 4 -18 -11 -28 -49 -13 -47 -14 -54 -1 -54 9 0 13 6
10 13 -3 7 2 24 10 38 14 23 14 23 10 2 -3 -13 -1 -23 5 -23 6 0 7 -7 4 -16
-4 -9 -2 -13 5 -8 6 3 9 19 5 35 -3 15 -1 29 4 31 5 2 12 28 16 59 5 47 4 56
-10 56 -12 0 -16 -10 -16 -45z M2209 797 c-9 -26 -12 -123 -4 -155 l8 -33 22
63 c15 44 18 66 11 71 -8 6 -7 10 2 14 22 9 13 39 -13 41 -14 1 -25 1 -26 -1z
m8 -119 c-2 -13 -4 -5 -4 17 -1 22 1 32 4 23 2 -10 2 -28 0 -40z M2300 786 c0
-8 -4 -16 -8 -18 -15 -6 -55 -104 -60 -148 -3 -25 -10 -48 -16 -52 -7 -5 -4
-8 7 -8 13 0 17 9 18 38 0 20 4 46 9 57 7 17 9 16 10 -10 1 -26 3 -27 10 -10
4 11 6 31 3 45 -3 19 -2 22 6 10 5 -8 13 -11 17 -7 4 3 1 13 -5 21 -10 11 -10
19 -1 33 9 15 10 15 4 -7 -6 -21 -5 -22 7 -9 8 8 22 29 31 47 17 32 17 32 -7
32 -15 0 -25 -6 -25 -14z M2116 767 c-5 -15 -6 -31 -2 -34 11 -11 18 5 14 34
l-4 28 -8 -28z M1398 698 c2 -15 10 -28 18 -28 9 0 12 8 10 23 -3 12 -5 25 -5
28 -1 3 -7 6 -14 6 -9 0 -12 -10 -9 -29z M1505 653 c-16 -9 -45 -22 -64 -28
-18 -7 -29 -15 -24 -18 5 -3 22 0 36 8 15 8 30 14 32 14 10 1 65 32 65 36 0 9
-14 5 -45 -12z M2293 654 c-19 -19 -16 -44 5 -43 10 0 12 3 5 6 -18 6 -16 21
2 25 8 2 11 8 7 14 -5 9 -10 8 -19 -2z M1960 640 c0 -19 3 -21 12 -12 9 9 9
15 0 24 -9 9 -12 7 -12 -12z M1939 638 c-6 -15 -5 -68 2 -68 5 0 9 16 9 35 0
28 -6 45 -11 33z M2191 625 c0 -11 -4 -31 -7 -45 -5 -19 -4 -22 5 -14 7 6 11
26 8 45 -2 19 -5 25 -6 14z M3550 620 c0 -5 -7 -7 -15 -4 -8 4 -15 2 -15 -4 0
-11 -18 -11 -35 0 -6 4 -11 -2 -11 -12 0 -28 23 -33 46 -10 11 11 23 20 27 19
4 0 9 4 11 10 2 6 1 11 -2 11 -3 0 -6 -4 -6 -10z M2077 586 c-4 -10 -5 -21 -2
-24 9 -9 17 6 13 25 -3 17 -4 17 -11 -1z M2755 539 c-6 -17 -9 -19 -16 -8 -6
9 -9 10 -9 2 0 -21 16 -22 33 -3 9 11 12 22 7 25 -5 3 -12 -4 -15 -16z M2643
529 c3 -9 0 -22 -6 -28 -8 -8 -8 -11 0 -11 19 0 25 18 13 37 -9 15 -11 15 -7
2z M1667 503 c-3 -5 4 -15 16 -23 21 -12 21 -12 7 6 -8 10 -15 20 -16 22 -1 2
-4 -1 -7 -5z M2341 503 c0 -5 4 -17 9 -28 8 -18 9 -17 9 8 1 15 -3 27 -9 27
-5 0 -10 -3 -9 -7z M2247 478 c2 -5 10 -8 18 -8 8 0 16 3 18 8 3 4 -5 7 -18 7
-13 0 -21 -3 -18 -7z M1824 299 c-11 -18 14 -35 29 -20 10 10 9 12 -3 9 -8 -2
-14 3 -12 10 3 15 -4 16 -14 1z"/>
</g>
<g transform="translate(0.000000,289.000000) scale(0.100000,-0.100000)"
fill="#f88b31" stroke="none">
<path d="M2454 2396 c11 -9 24 -16 30 -16 12 0 7 5 -24 19 -24 11 -24 11 -6
-3z M1759 2339 l-24 -20 30 17 c39 24 40 24 28 24 -6 0 -21 -9 -34 -21z M1630
2178 c0 -10 -3 -17 -8 -15 -4 1 -14 -4 -22 -10 -53 -45 -79 -63 -89 -63 -6 0
-11 -5 -11 -10 0 -6 -12 -15 -26 -20 -14 -6 -28 -19 -31 -31 -3 -12 -11 -18
-20 -15 -7 3 -22 -3 -33 -14 -11 -11 -20 -17 -20 -12 -1 4 -7 -8 -15 -25 -10
-25 -20 -33 -39 -33 -14 0 -29 -6 -33 -13 -4 -8 -33 -32 -64 -54 -31 -23 -64
-50 -74 -60 -10 -10 -21 -18 -25 -18 -13 0 -41 -35 -35 -44 3 -6 -4 -8 -16 -6
-14 3 -23 -2 -26 -14 -2 -9 -21 -23 -41 -31 -20 -7 -44 -21 -53 -31 -9 -11
-21 -19 -26 -19 -6 0 -22 -11 -37 -25 -15 -14 -32 -25 -39 -25 -7 0 -23 -12
-36 -25 -13 -14 -27 -25 -33 -25 -5 0 -6 -4 -3 -10 3 -5 -1 -10 -9 -10 -9 0
-16 -7 -16 -16 0 -9 -5 -14 -12 -12 -7 3 -26 -9 -43 -26 -18 -17 -44 -40 -59
-51 -63 -46 -160 -138 -238 -226 -31 -34 -35 -44 -14 -36 10 4 13 1 9 -8 -3
-8 -9 -12 -14 -9 -16 9 -10 -81 7 -102 14 -18 14 -18 3 5 -10 21 -9 23 5 18
10 -4 16 -1 16 9 0 9 9 27 20 41 17 22 20 23 20 7 0 -17 1 -17 18 2 10 10 21
27 25 37 3 9 16 17 28 17 12 0 23 8 26 19 3 12 11 17 19 14 12 -4 14 0 8 21
-7 30 3 35 14 6 7 -19 8 -19 34 5 15 14 32 25 38 25 5 0 10 7 10 15 0 8 5 15
11 15 5 0 8 4 5 9 -9 14 60 61 88 61 16 0 26 6 26 15 0 8 5 15 10 15 6 0 10 9
10 20 0 11 2 20 5 20 14 0 55 -25 55 -33 0 -6 2 -8 5 -5 3 3 1 17 -4 31 -9 22
-7 26 14 31 13 3 30 3 38 0 8 -3 18 -1 22 5 3 7 -2 11 -14 11 -12 0 -21 5 -21
10 0 6 18 10 40 10 22 0 40 5 40 11 0 6 -12 9 -27 7 -15 -2 -28 2 -30 10 -3 8
6 12 29 12 24 0 29 3 18 10 -12 7 -11 10 5 16 11 4 23 12 26 17 4 6 13 6 20 1
8 -5 21 -7 29 -6 9 1 29 -15 45 -37 17 -23 35 -41 40 -41 9 0 20 -8 93 -66 34
-27 102 -56 102 -43 0 5 -4 9 -10 9 -12 0 -121 68 -135 84 -5 7 -27 25 -48 40
-29 23 -36 33 -31 50 4 11 3 18 -1 14 -10 -9 -35 17 -35 36 0 21 29 20 37 -1
8 -20 23 -35 88 -89 59 -49 225 -140 225 -124 0 6 -20 20 -45 31 -62 27 -196
119 -190 129 3 5 -4 12 -16 15 -15 5 -19 13 -16 27 4 13 1 18 -7 15 -7 -3 -21
9 -30 26 l-17 32 20 -24 c16 -17 21 -19 21 -8 0 10 20 -4 53 -36 79 -78 303
-198 366 -196 9 0 -2 7 -24 15 -22 9 -56 22 -75 31 -19 8 -35 14 -35 13 0 -4
-160 92 -165 99 -3 4 -18 17 -34 29 -16 12 -25 22 -21 22 4 0 -7 16 -24 35
-17 20 -31 41 -31 48 0 7 7 3 15 -7 14 -19 15 -19 15 -1 0 16 2 16 19 -4 27
-31 53 -15 69 43 12 45 41 73 50 48 7 -22 22 -13 22 13 0 35 29 33 68 -4 31
-30 93 -67 147 -87 17 -6 29 -16 28 -22 -2 -6 4 -9 12 -6 24 10 18 18 -35 43
-28 14 -50 28 -50 32 0 4 -10 9 -23 13 -35 8 -68 41 -61 60 3 9 1 16 -5 16 -6
0 -11 8 -11 18 0 13 5 11 24 -10 13 -16 28 -28 33 -28 19 0 46 -37 31 -44 -7
-3 -3 -3 9 0 12 3 40 -4 63 -16 59 -30 90 -41 90 -31 0 8 -21 19 -110 59 -45
20 -47 22 -31 31 9 6 10 11 2 15 -6 4 -11 2 -11 -4 0 -15 -58 19 -65 39 -3 8
-1 19 5 25 7 7 10 3 10 -12 0 -24 36 -50 42 -30 3 8 24 1 60 -20 68 -39 136
-64 143 -52 3 4 -16 15 -41 24 -57 19 -134 63 -134 76 0 6 -8 10 -17 11 -11 0
-13 3 -5 6 6 2 12 11 12 19 0 16 -26 19 -33 4 -3 -6 -4 -5 -3 2 1 7 13 14 27
16 30 4 89 34 84 42 -2 4 7 13 21 20 13 8 23 19 20 25 -5 15 22 51 31 41 5 -4
0 -14 -10 -21 -13 -10 -15 -14 -5 -18 8 -3 1 -15 -22 -35 -32 -28 -38 -60 -7
-34 10 9 16 9 25 0 6 -6 15 -8 19 -4 4 4 1 11 -7 16 -12 7 -12 12 -2 22 6 6
12 18 12 26 0 7 7 20 15 28 13 14 15 14 15 0 0 -10 6 -13 17 -9 10 4 14 2 10
-4 -11 -18 41 -22 55 -5 10 13 10 14 1 8 -8 -4 -13 -2 -13 4 0 7 -7 9 -17 6
-10 -4 -14 -4 -10 0 9 10 -30 37 -43 29 -6 -3 -10 1 -10 9 0 9 -11 23 -25 32
-18 12 -24 23 -20 38 2 11 2 15 -1 7 -5 -10 -10 -8 -20 10 -10 19 -13 20 -14
7z m-370 -474 c0 -8 -4 -14 -10 -14 -5 0 -10 9 -10 21 0 11 5 17 10 14 6 -3
10 -13 10 -21z m-360 -224 c0 -5 -7 -10 -16 -10 -8 0 -12 5 -9 10 3 6 10 10
16 10 5 0 9 -4 9 -10z M2688 2142 c3 -8 1 -13 -4 -10 -5 4 -10 -7 -10 -23 -2
-31 5 -36 23 -18 7 7 12 3 17 -15 4 -15 13 -26 23 -26 9 0 24 -6 32 -14 9 -7
30 -18 46 -23 22 -8 29 -16 28 -32 -2 -15 3 -21 17 -21 19 0 18 -2 -7 -30 -14
-16 -31 -30 -36 -30 -6 0 -2 9 8 20 10 11 13 20 8 20 -6 0 -18 -11 -27 -25 -9
-14 -14 -25 -12 -25 3 0 -6 -11 -20 -25 -13 -14 -30 -24 -36 -22 -6 1 -13 -4
-15 -10 -7 -19 15 -15 36 6 11 11 23 16 27 13 4 -4 4 -1 0 6 -4 6 -2 12 3 12
20 0 26 2 38 12 8 6 20 6 35 -2 21 -10 21 -10 6 3 -22 17 -23 31 -3 23 8 -3
19 2 24 12 5 9 13 14 17 10 4 -5 14 -2 23 5 14 11 15 10 1 -8 -47 -64 -84 -89
-111 -75 -14 8 -19 8 -15 1 4 -6 1 -11 -7 -11 -8 0 -21 -7 -28 -17 -13 -14
-11 -14 19 1 49 25 51 12 3 -19 -46 -28 -83 -45 -154 -71 -26 -9 -46 -19 -44
-20 4 -4 140 44 192 68 41 18 88 50 98 66 5 8 17 10 30 7 13 -4 17 -3 10 2 -8
6 -4 16 13 36 13 16 24 23 24 17 0 -6 4 -8 10 -5 6 4 7 -2 1 -17 -5 -13 -14
-22 -21 -20 -6 1 -9 -2 -6 -7 6 -10 -41 -65 -57 -68 -17 -3 -18 -11 -2 -9 9 1
20 8 25 15 5 9 10 10 14 2 4 -6 13 -11 19 -11 9 0 9 2 0 8 -12 8 4 31 47 67
20 17 23 18 17 3 -6 -16 6 -23 34 -20 3 1 15 -18 27 -41 12 -23 22 -34 22 -24
0 20 3 21 32 5 35 -20 48 -41 35 -56 -8 -11 -5 -12 16 -7 15 4 27 3 27 -1 -1
-17 -27 -44 -35 -36 -5 4 -5 2 -2 -4 8 -15 -36 -63 -95 -103 -27 -17 -48 -37
-48 -44 0 -8 3 -8 9 1 4 8 11 13 15 13 17 -2 23 1 49 25 15 14 32 22 39 18 7
-4 8 -3 4 4 -11 18 34 58 46 41 8 -11 9 -11 5 1 -5 16 9 50 21 50 15 0 7 -56
-10 -71 -10 -9 -14 -20 -10 -24 4 -5 -1 -5 -11 -2 -10 4 -16 3 -12 -2 3 -5 1
-12 -5 -16 -5 -3 -15 -15 -21 -27 -8 -15 -8 -19 0 -14 6 4 11 3 11 -3 0 -5 -5
-12 -10 -14 -6 -3 -5 -4 2 -3 7 2 13 11 13 22 0 10 7 20 15 20 8 1 22 2 30 3
13 1 13 2 0 11 -12 7 -7 16 23 45 20 20 37 41 37 48 0 8 4 6 11 -3 8 -11 12
-12 16 -2 2 6 9 12 14 12 12 0 -19 -49 -63 -100 -21 -23 -38 -47 -38 -53 0
-11 45 26 68 55 7 9 18 23 25 30 7 7 19 22 25 33 10 17 11 15 7 -15 -3 -19 -3
-29 1 -22 10 20 25 14 22 -10 -2 -17 6 -27 37 -42 22 -12 42 -24 43 -28 2 -5
12 -8 22 -8 10 0 21 -10 25 -22 l8 -23 4 23 c4 22 14 28 26 16 3 -4 -5 -30
-19 -58 l-25 -51 28 32 c22 25 34 30 56 26 15 -3 27 -10 27 -15 0 -6 -7 -7
-15 -4 -8 3 -22 9 -30 12 -8 3 -15 2 -15 -4 0 -16 64 -42 90 -35 19 5 22 3 17
-10 -5 -14 0 -17 26 -18 l32 -2 -35 -6 -35 -7 43 -8 c34 -6 41 -11 32 -21 -9
-11 -6 -14 16 -12 30 2 45 -19 17 -26 -12 -3 -9 -5 9 -6 14 0 29 -7 32 -13 5
-10 7 -10 12 0 9 20 26 14 19 -8 -5 -15 -3 -18 8 -14 9 3 16 -2 19 -14 4 -12
18 -23 37 -27 26 -6 30 -9 20 -21 -9 -11 -8 -14 5 -14 9 0 16 7 16 15 0 8 6
15 13 16 6 0 4 4 -6 7 -16 7 -16 9 4 26 l22 18 -6 -36 c-5 -33 -4 -36 14 -31
13 4 19 2 19 -8 0 -8 7 -17 15 -21 8 -3 15 -18 15 -32 0 -15 3 -24 7 -21 3 4
6 21 5 38 -1 46 7 31 17 -31 1 -2 5 0 11 6 5 5 12 41 14 79 3 41 2 60 -2 45
l-8 -25 -12 22 c-7 12 -9 29 -5 39 4 12 3 15 -5 10 -7 -4 -12 -1 -12 7 0 14
-27 32 -42 29 -5 -1 -8 2 -8 7 0 5 -10 13 -22 17 -25 7 -67 36 -106 72 -14 12
-28 22 -33 22 -4 0 -14 6 -22 14 -8 8 -36 25 -63 38 -92 45 -134 75 -134 95 0
10 -37 18 -52 12 -2 -1 -20 15 -42 35 -32 31 -112 80 -125 78 -2 0 -8 -6 -12
-14 -6 -9 -9 -4 -9 15 0 24 -5 29 -27 26 -3 0 -10 6 -15 15 -5 9 -13 14 -19
11 -5 -4 -9 2 -10 12 0 16 -1 16 -8 -2 -7 -16 -9 -14 -14 13 -4 18 -10 31 -14
30 -5 -2 -20 9 -35 22 -14 14 -52 45 -83 70 -53 41 -58 43 -70 26 -12 -16 -14
-15 -17 11 -2 19 -9 28 -21 28 -10 0 -22 6 -26 14 -5 8 -18 12 -30 8 -12 -3
-19 -1 -15 5 6 9 -33 53 -48 53 -4 0 -13 6 -19 13 -7 6 -18 12 -24 12 -7 0
-20 9 -30 20 -10 11 -26 20 -35 20 -9 0 -21 5 -27 11 -18 18 -62 19 -55 1z
m550 -475 c-8 -17 -13 -18 -16 -7 -3 7 0 16 7 18 6 2 8 9 5 14 -4 7 -2 8 4 4
9 -5 9 -13 0 -29z m622 -376 c0 -16 -25 -19 -38 -5 -11 12 -8 14 13 14 14 0
25 -4 25 -9z m5 -41 c-3 -5 -10 -10 -16 -10 -5 0 -9 5 -9 10 0 6 7 10 16 10 8
0 12 -4 9 -10z m168 -54 c4 -10 0 -12 -15 -8 -15 4 -17 7 -6 13 17 11 15 11
21 -5z M2632 2095 c-11 -13 -23 -21 -27 -17 -5 4 -5 2 -1 -5 6 -11 -29 -30
-46 -25 -5 1 -8 -3 -8 -9 0 -5 -4 -8 -9 -4 -5 3 -13 0 -17 -6 -7 -13 23 -9 60
6 14 6 17 5 11 -4 -6 -10 -3 -11 14 -2 25 14 28 23 4 14 -15 -5 -15 -3 2 14
11 11 23 19 28 16 4 -2 7 -1 8 4 0 4 2 16 4 26 4 23 0 22 -23 -8z M1817 2023
c-11 -10 13 -32 29 -26 7 3 12 9 9 14 -3 4 -13 5 -22 2 -11 -4 -14 -3 -9 5 8
13 3 16 -7 5z M2484 2015 c-18 -14 -18 -14 4 -8 12 3 22 9 22 14 0 12 -3 11
-26 -6z M1706 2012 c-3 -6 -1 -14 5 -17 15 -10 25 3 12 16 -7 7 -13 7 -17 1z
M1876 1989 c3 -5 14 -9 25 -9 10 0 19 4 19 9 0 5 -11 9 -25 9 -13 0 -22 -4
-19 -9z M2410 1992 c0 -7 -10 -13 -22 -13 -19 -1 -20 -2 -4 -6 20 -5 44 12 33
24 -4 3 -7 1 -7 -5z M1940 1979 c0 -4 31 -11 70 -15 38 -3 67 -10 64 -15 -3
-5 2 -6 11 -3 9 4 14 9 11 12 -9 9 -156 29 -156 21z M1572 1931 c-10 -6 -8
-10 9 -14 26 -7 42 0 34 14 -8 11 -26 11 -43 0z M2668 1812 c-21 -8 -38 -19
-38 -23 0 -7 58 14 79 28 15 10 -10 7 -41 -5z M1385 1800 c-7 -12 2 -30 16
-30 12 0 12 27 0 35 -5 3 -12 1 -16 -5z M1740 1770 c0 -5 10 -10 23 -10 18 0
19 2 7 10 -19 13 -30 13 -30 0z M1310 1730 c0 -22 5 -40 10 -40 6 0 10 17 8
40 -1 22 -6 40 -10 40 -4 0 -8 -18 -8 -40z M2455 1750 c-38 -10 -61 -19 -50
-19 11 0 52 8 90 18 39 11 61 19 50 19 -11 0 -51 -8 -90 -18z M2760 1723 c-70
-36 -47 -35 34 2 27 12 45 24 40 27 -5 3 -38 -10 -74 -29z M1695 1722 c6 -5
24 -12 40 -16 34 -7 15 7 -25 19 -16 5 -22 4 -15 -3z M1933 1723 c9 -2 25 -2
35 0 9 3 1 5 -18 5 -19 0 -27 -2 -17 -5z M2318 1723 c12 -2 30 -2 40 0 9 3 -1
5 -23 4 -22 0 -30 -2 -17 -4z M2515 1700 c-27 -7 -28 -8 -5 -8 14 0 34 3 45 8
25 11 2 11 -40 0z M1666 1671 c10 -10 86 -32 91 -27 4 3 -84 36 -96 36 -3 0
-1 -4 5 -9z M2288 1663 c12 -2 32 -2 45 0 12 2 2 4 -23 4 -25 0 -35 -2 -22 -4z
M2123 1653 c26 -2 67 -2 90 0 23 2 2 3 -48 3 -49 0 -68 -1 -42 -3z M2433 1623
c9 -2 23 -2 30 0 6 3 -1 5 -18 5 -16 0 -22 -2 -12 -5z M1020 1550 c0 -5 7 -10
16 -10 8 0 12 5 9 10 -3 6 -10 10 -16 10 -5 0 -9 -4 -9 -10z M1065 1540 c3 -5
10 -10 16 -10 5 0 9 5 9 10 0 6 -7 10 -16 10 -8 0 -12 -4 -9 -10z M3097 1525
c-11 -7 -26 -11 -35 -7 -14 5 -15 4 -2 -10 8 -9 17 -12 18 -7 2 5 8 7 12 4 5
-3 14 4 20 15 13 23 11 24 -13 5z M2917 1491 c-44 -28 -45 -34 -3 -17 21 9 40
16 42 16 2 0 4 5 4 10 0 14 -10 12 -43 -9z M3126 1489 c2 -4 -1 -9 -8 -11 -7
-3 -8 -7 -2 -11 5 -3 15 2 21 12 9 14 8 18 -3 18 -7 0 -11 -4 -8 -8z M2950
1440 c-30 -16 -51 -29 -47 -29 16 -2 107 42 107 50 0 5 -1 9 -2 8 -2 -1 -28
-14 -58 -29z M3070 1429 c0 -5 -4 -8 -9 -5 -5 4 -11 3 -13 -2 -3 -8 -120 -62
-135 -62 -5 0 -18 -7 -29 -14 -17 -13 -14 -13 21 -1 74 25 175 74 175 85 0 5
-2 10 -5 10 -3 0 -5 -5 -5 -11z M1455 1393 c13 -13 90 -40 135 -47 40 -6 25 1
-60 29 -30 10 -62 20 -70 23 -10 3 -12 2 -5 -5z M1370 1361 c0 -5 9 -11 20
-14 24 -6 27 8 4 17 -21 8 -24 8 -24 -3z M1420 1341 c0 -8 79 -35 86 -29 2 2
-17 11 -41 20 -25 10 -45 13 -45 9z M745 1320 c-3 -5 1 -10 9 -10 9 0 16 5 16
10 0 6 -4 10 -9 10 -6 0 -13 -4 -16 -10z M1530 1300 c8 -5 22 -9 30 -9 10 0 8
3 -5 9 -27 12 -43 12 -25 0z M3409 1201 c-13 -11 -21 -22 -18 -25 3 -3 16 5
29 19 28 30 22 33 -11 6z M3339 1150 c-13 -10 -19 -19 -13 -20 7 0 22 9 35 20
13 10 19 19 13 20 -7 0 -22 -9 -35 -20z M1110 1060 c35 -25 49 -30 56 -18 4 6
3 8 -4 4 -5 -3 -12 -2 -14 3 -1 4 -14 11 -28 15 -20 6 -22 5 -10 -4z M3986
1028 c5 -7 2 -9 -9 -5 -11 4 -14 2 -11 -8 3 -8 -7 -26 -22 -40 -16 -15 -22
-25 -14 -23 15 3 69 66 70 81 0 4 -5 7 -11 7 -5 0 -7 -5 -3 -12z M1300 981 c0
-10 50 -25 57 -18 2 3 -10 9 -26 15 -17 6 -31 7 -31 3z M2493 963 c9 -2 23 -2
30 0 6 3 -1 5 -18 5 -16 0 -22 -2 -12 -5z M432 920 c7 -11 17 -20 22 -20 5 0
1 9 -9 20 -10 11 -20 20 -22 20 -2 0 2 -9 9 -20z M3852 892 c-10 -3 -8 -8 5
-19 17 -14 17 -14 0 -9 -12 4 -20 -2 -27 -19 -5 -14 -12 -25 -15 -25 -4 0 -3
6 1 13 6 9 3 8 -8 -1 -16 -13 -21 -52 -6 -52 13 0 18 18 6 23 -9 4 -8 6 3 6
24 1 68 53 60 72 -3 9 -12 14 -19 11z M3726 865 c-27 -13 -54 -21 -60 -18 -6
4 -6 8 2 11 23 7 12 22 -18 22 -30 0 -37 -13 -22 -38 5 -8 16 -10 28 -5 17 6
17 5 5 -10 -12 -15 -12 -17 3 -11 9 3 16 10 16 14 0 12 53 19 66 10 12 -11 54
-2 54 11 0 6 -7 12 -15 15 -8 4 -12 10 -9 15 7 12 6 12 -50 -16z M3796 882
c-2 -4 2 -12 9 -19 10 -10 14 -9 18 2 6 14 -19 30 -27 17z M3617 790 c-8 -11
-16 -18 -18 -16 -2 3 -15 -5 -29 -16 l-25 -20 30 18 c28 17 29 17 15 0 -8 -10
-15 -25 -17 -34 -1 -9 -7 -18 -12 -20 -15 -5 -14 -22 2 -22 6 0 27 30 45 65
32 64 36 84 9 45z M978 777 c-7 -8 -20 -12 -30 -9 -17 4 -23 -6 -19 -35 1 -8
-5 -10 -15 -6 -13 5 -16 2 -11 -10 3 -8 1 -18 -6 -21 -7 -2 -4 -5 6 -5 9 -1
17 -6 17 -12 0 -6 -9 -9 -20 -6 -11 3 -18 2 -15 -3 6 -10 -98 -22 -122 -14
-13 4 -14 3 -5 -4 11 -7 11 -10 -2 -15 -8 -3 -18 -2 -21 3 -8 13 -25 13 -25 0
0 -5 3 -9 8 -9 4 1 10 0 15 -1 4 -1 13 -3 20 -4 6 -1 11 -8 9 -15 -2 -8 3 -11
12 -8 8 3 17 -1 20 -8 3 -9 12 -12 21 -9 14 6 13 9 -4 26 -27 24 -26 31 0 23
15 -5 19 -4 14 4 -4 8 4 12 27 11 18 0 47 1 63 3 17 1 37 -2 45 -8 13 -9 13
-8 1 7 -7 10 -17 15 -22 12 -5 -3 -8 6 -7 20 1 14 8 28 15 30 7 3 13 13 13 22
0 10 3 14 6 11 4 -4 20 1 35 10 27 16 29 16 43 -2 21 -27 37 -75 26 -75 -10 0
-5 -58 5 -68 13 -13 39 16 40 46 1 32 -9 43 -19 20 -3 -7 -3 -3 0 10 3 12 1
22 -5 22 -6 0 -10 3 -10 8 4 22 -4 34 -33 52 -39 23 -53 25 -70 7z M634 702
c4 -6 21 -21 39 -34 18 -12 26 -15 20 -7 -7 9 -11 19 -8 22 3 4 2 5 -2 2 -3
-3 -17 2 -31 11 -13 9 -22 11 -18 6z M1312 680 c0 -19 2 -27 5 -17 2 9 2 25 0
35 -3 9 -5 1 -5 -18z M3563 637 c-3 -5 -2 -11 1 -14 3 -4 6 0 6 8 0 11 2 11
10 -1 7 -11 10 -11 10 -2 0 7 4 11 8 8 4 -2 14 0 22 5 11 6 6 8 -18 7 -19 -1
-36 -6 -39 -11z M1054 585 c10 -8 23 -12 27 -9 5 3 9 -6 9 -20 0 -17 5 -26 16
-26 10 0 14 -6 10 -15 -3 -9 0 -15 10 -15 8 0 13 -4 10 -9 -3 -5 1 -11 9 -15
23 -8 18 13 -10 50 -14 19 -26 37 -26 41 0 11 -40 32 -59 32 -11 0 -11 -3 4
-14z M1195 454 c9 -9 19 -13 23 -10 3 4 0 11 -8 16 -24 15 -33 11 -15 -6z
M1130 430 c8 -5 22 -9 30 -9 10 0 8 3 -5 9 -27 12 -43 12 -25 0z M2430 280
c-23 -7 -23 -8 -3 -9 12 -1 25 4 28 9 3 6 5 10 3 9 -2 -1 -14 -5 -28 -9z"/>
</g>
<g transform="translate(0.000000,289.000000) scale(0.100000,-0.100000)"
fill="#f16121" stroke="none">
<path d="M2168 2433 c-20 -5 -24 -18 -9 -28 6 -3 15 4 21 15 6 11 9 19 8 19
-2 -1 -11 -3 -20 -6z M2199 2424 c-6 -7 -9 -19 -6 -26 4 -8 6 -7 6 5 1 24 23
17 38 -13 l13 -25 -7 25 c-5 23 -5 24 13 10 18 -14 18 -14 5 3 -12 15 -11 17
5 17 16 0 17 2 4 10 -10 6 -16 6 -18 0 -2 -6 -8 -10 -13 -10 -6 0 -8 4 -5 8 8
14 -23 10 -35 -4z M1998 2423 c12 -2 30 -2 40 0 9 3 -1 5 -23 4 -22 0 -30 -2
-17 -4z M2291 2408 c-14 -23 -14 -23 8 -4 22 20 25 26 13 26 -4 0 -13 -10 -21
-22z M2355 2409 c17 -7 33 -16 36 -22 4 -5 15 -7 24 -3 28 10 9 20 -65 32 -21
3 -20 2 5 -7z M1885 2399 c-11 -17 -2 -18 25 -4 24 14 24 14 3 15 -12 0 -25
-5 -28 -11z M2039 2408 c-6 -20 -6 -39 0 -42 4 -3 7 6 7 20 0 20 -4 32 -7 22z
M1837 2374 c-23 -12 -30 -34 -11 -34 3 0 2 5 -2 12 -5 8 -2 9 10 5 10 -4 15
-3 11 3 -3 6 1 10 9 10 9 0 16 5 16 10 0 12 1 12 -33 -6z M2443 2375 c-3 -9
-3 -19 1 -22 3 -4 6 1 6 10 0 8 6 18 13 20 9 4 9 6 -1 6 -7 1 -15 -6 -19 -14z
M2120 2370 c0 -5 9 -10 21 -10 11 0 17 5 14 10 -3 6 -13 10 -21 10 -8 0 -14
-4 -14 -10z M2515 2361 c-3 -5 -14 -8 -25 -6 -13 3 -20 -2 -20 -12 0 -11 4
-13 13 -6 6 6 20 9 29 8 20 -4 33 11 19 19 -5 4 -12 2 -16 -3z M2595 2324 c6
-5 23 -20 40 -34 29 -24 29 -24 10 -2 -11 13 -29 28 -40 34 -11 6 -15 6 -10 2z
M1700 2105 c13 -14 26 -25 28 -25 3 0 -5 11 -18 25 -13 14 -26 25 -28 25 -3 0
5 -11 18 -25z M2125 1970 l-40 -7 37 -2 c20 0 40 4 43 9 3 6 5 9 3 9 -2 -1
-21 -5 -43 -9z M2074 1865 c5 -28 3 -31 -22 -30 -21 0 -27 -5 -27 -22 0 -29
-14 -41 -26 -23 -8 11 -9 8 -3 -10 9 -35 7 -35 85 -24 38 5 91 7 117 3 44 -6
42 -7 -28 -9 -41 -1 -106 -5 -145 -9 -69 -7 -69 -7 60 -15 121 -8 223 -1 383
27 25 5 42 17 24 17 -7 0 -12 9 -12 20 0 25 -51 28 -75 4 -10 -10 -22 -13 -33
-8 -15 6 -14 8 6 11 12 3 22 11 22 18 0 17 -54 23 -125 14 -37 -5 -54 -3 -67
8 -11 10 -35 15 -62 15 -36 -1 -49 3 -61 21 -16 22 -16 22 -11 -8z m259 -122
c-7 -2 -21 -2 -30 0 -10 3 -4 5 12 5 17 0 24 -2 18 -5z M2100 1880 c0 -5 9
-10 20 -10 11 0 20 5 20 10 0 6 -9 10 -20 10 -11 0 -20 -4 -20 -10z M2463
1844 c-9 -19 -8 -24 2 -24 14 0 28 37 16 44 -3 2 -11 -7 -18 -20z M2565 1790
c-3 -5 -18 -11 -33 -11 -23 -2 -24 -2 -5 -6 13 -2 33 3 45 11 12 9 17 16 11
16 -7 0 -15 -4 -18 -10z M2618 1774 c-25 -14 -38 -17 -120 -30 -21 -3 -38 -11
-38 -16 0 -6 -8 -7 -17 -4 -20 8 -125 -3 -119 -13 5 -8 -347 -3 -393 5 -31 6
-32 5 -22 -15 7 -11 17 -21 24 -21 7 0 6 4 -3 10 -26 17 12 12 48 -5 35 -18
269 -35 259 -19 -3 5 11 8 33 6 52 -5 222 23 290 48 30 11 43 18 28 15 -40 -8
-34 1 9 16 21 6 44 18 51 26 17 16 5 15 -30 -3z M2635 1721 c-6 -5 -66 -22
-135 -37 -118 -26 -139 -28 -370 -28 -196 -1 -234 -3 -188 -11 77 -14 82 -24
6 -13 -82 11 -86 3 -5 -11 110 -19 465 -12 452 10 -3 4 0 11 6 15 8 4 9 3 5
-4 -4 -7 -4 -12 1 -12 31 0 144 23 173 34 19 8 49 18 65 22 l30 7 -25 7 c-25
8 -25 8 -2 9 13 1 20 6 17 11 -8 12 -18 13 -30 1z m-152 -68 c-7 -2 -21 -2
-30 0 -10 3 -4 5 12 5 17 0 24 -2 18 -5z M2620 1651 c-8 -5 -43 -12 -77 -16
-35 -4 -61 -10 -59 -13 7 -12 -128 -17 -394 -16 -140 0 -244 -2 -230 -6 42
-10 33 -45 -11 -44 -23 0 -36 -4 -36 -13 0 -8 14 -13 36 -14 20 0 29 -3 21 -6
-38 -12 -45 -14 -45 -11 0 2 -8 -4 -17 -12 -9 -8 -14 -18 -11 -23 2 -4 1 -7
-4 -6 -19 3 -31 -2 -36 -15 -4 -10 1 -12 16 -9 22 5 22 5 2 -10 -11 -9 -31
-14 -45 -12 -17 3 -14 1 8 -7 46 -16 40 -28 -10 -17 -29 7 -44 6 -52 -2 -8 -9
-8 -10 2 -5 7 4 31 0 55 -8 23 -9 89 -23 147 -31 l105 -14 -95 5 c-52 3 -111
9 -130 14 -25 7 -48 5 -80 -5 -25 -7 -37 -14 -27 -14 9 -1 19 -1 22 -1 3 -1
26 -7 52 -15 27 -8 64 -15 83 -16 19 0 44 -5 55 -10 14 -6 1 -8 -40 -4 -33 4
-67 6 -75 7 -8 0 -39 7 -68 15 -30 8 -56 12 -59 9 -4 -3 2 -6 13 -7 10 -1 1
-7 -21 -14 -46 -16 -26 -20 24 -5 23 6 39 6 50 -1 14 -9 14 -10 -1 -5 -10 3
-28 1 -40 -4 -21 -8 -22 -9 -3 -10 46 -4 144 -26 153 -35 9 -9 -105 5 -137 17
-32 12 -84 -9 -76 -30 4 -11 -1 -13 -27 -8 -18 3 -40 1 -48 -4 -12 -8 -9 -10
13 -10 l28 0 -43 -55 c-27 -34 -57 -61 -83 -72 l-40 -17 48 -10 c28 -5 47 -15
47 -23 0 -16 -32 -17 -48 -1 -9 9 -21 8 -52 -2 -26 -8 -37 -17 -31 -23 5 -5 7
-15 4 -23 -3 -8 7 -15 31 -20 20 -3 36 -10 36 -15 0 -14 -52 -10 -82 5 -28 15
-28 14 -28 -15 0 -21 5 -29 18 -29 16 -1 16 -1 0 -14 -11 -8 -18 -26 -18 -45
0 -24 -6 -34 -25 -43 -26 -12 -34 -28 -14 -28 6 0 9 -10 7 -23 -2 -13 1 -28 8
-35 19 -17 24 -15 24 12 0 13 7 26 15 30 18 7 20 32 3 40 -7 3 -3 3 10 0 15
-4 30 1 43 12 10 9 19 15 20 13 11 -51 8 -72 -15 -100 -14 -17 -26 -37 -26
-45 0 -8 -4 -14 -10 -14 -5 0 -10 -9 -10 -19 0 -40 -21 -31 -42 16 -25 59 -26
59 -39 46 -13 -13 7 -57 22 -48 5 4 9 -5 9 -19 0 -20 -4 -24 -17 -19 -13 5
-15 2 -11 -15 4 -15 2 -22 -9 -22 -8 0 -11 4 -8 10 3 5 -1 10 -9 10 -8 0 -17
-8 -21 -19 -4 -13 -12 -17 -30 -13 -15 2 -25 0 -25 -7 0 -6 9 -11 21 -11 15 0
19 -5 15 -16 -3 -8 -2 -13 2 -10 4 2 14 1 22 -5 12 -7 11 -9 -5 -9 -17 0 -17
-2 -5 -10 13 -9 13 -11 1 -19 -12 -8 -11 -13 10 -30 13 -11 29 -20 36 -21 6 0
15 -5 18 -10 4 -7 -8 -8 -36 -4 -38 6 -41 6 -28 -8 8 -9 17 -14 22 -11 4 2 7
-1 7 -6 0 -6 3 -10 8 -9 4 1 39 -7 77 -19 39 -12 111 -29 160 -38 50 -9 100
-20 112 -25 15 -6 23 -6 23 1 0 6 7 6 20 -1 11 -6 20 -9 20 -7 0 3 25 -1 55
-8 41 -10 55 -10 55 -2 0 8 3 8 8 2 11 -16 42 -14 42 2 0 9 -5 11 -12 7 -9 -5
-9 -2 1 9 15 18 26 23 16 7 -3 -5 -1 -10 4 -10 6 0 11 -6 11 -13 0 -8 6 -14
13 -14 6 -1 65 -4 130 -8 115 -7 117 -6 125 16 9 22 9 22 14 2 5 -21 10 -21
119 -17 63 3 121 4 129 4 8 0 26 1 40 2 14 1 49 1 78 1 35 0 52 3 52 12 0 8
13 11 38 10 20 -1 42 0 47 4 6 3 26 6 45 7 75 3 211 36 206 50 -3 7 -1 16 5
19 5 4 7 10 5 14 -3 4 3 7 13 8 10 1 18 -4 18 -11 0 -7 -5 -13 -11 -12 -6 0
-11 -3 -11 -9 0 -19 83 -7 135 19 19 9 28 10 23 3 -5 -9 -3 -9 8 0 8 6 17 11
22 11 29 1 68 16 77 30 5 9 10 12 10 5 0 -13 53 0 76 19 7 5 21 10 32 13 29 5
136 55 143 67 3 5 9 9 13 9 20 -3 26 0 20 11 -5 8 -2 9 9 5 9 -3 19 -2 22 3 4
6 1 10 -5 10 -6 0 -8 5 -4 11 4 7 0 9 -13 5 -14 -5 -19 -1 -20 16 -2 16 0 19
6 9 7 -10 13 -11 27 -2 12 6 14 11 6 11 -18 0 -9 25 9 25 8 0 14 9 14 20 0 14
-6 19 -17 17 -31 -5 -19 17 20 37 20 11 33 20 27 21 -5 0 4 9 20 20 17 11 25
20 18 20 -6 0 -15 -4 -18 -10 -3 -5 -11 -10 -16 -10 -6 0 -7 5 -3 12 4 7 3 8
-5 4 -6 -4 -9 -11 -6 -16 6 -9 -18 -20 -46 -20 -23 0 -25 13 -4 30 21 17 19
30 -5 30 -11 0 -20 5 -20 10 0 6 -7 10 -16 10 -10 0 -14 7 -12 18 2 9 10 16
16 15 17 -4 15 17 -3 23 -9 4 -15 19 -15 41 0 37 -24 73 -34 50 -3 -7 -7 -3
-11 10 -4 13 -12 20 -21 16 -9 -3 -30 10 -52 32 -20 21 -31 35 -24 31 6 -4 12
-3 12 2 0 19 -14 21 -47 7 -47 -20 -77 -5 -71 36 5 31 -5 32 -71 7 -13 -5 -26
-6 -29 -3 -7 6 -6 6 46 39 44 28 50 49 16 54 -15 2 -16 1 -5 -6 17 -12 6 -33
-14 -26 -10 4 -11 12 -3 34 5 16 7 37 5 47 -4 16 -6 15 -12 -4 -8 -26 -16 -28
-33 -11 -14 14 -16 42 -2 33 6 -3 10 -1 10 4 0 6 -10 10 -21 8 -12 -1 -24 5
-26 13 -4 13 -3 13 6 0 6 -8 11 -10 11 -5 0 6 -9 21 -20 35 -17 21 -21 23 -29
10 -8 -12 -10 -10 -8 7 1 24 22 37 39 26 7 -3 8 -1 4 5 -4 7 -2 12 5 12 7 0
10 2 7 5 -3 3 -25 -4 -50 -15 -38 -16 -45 -24 -43 -44 2 -19 -3 -26 -22 -31
-14 -3 -28 -4 -31 0 -3 3 3 5 13 5 10 0 15 3 12 7 -4 3 1 12 11 19 20 16 1 19
-26 5 -23 -13 -151 -51 -171 -51 -30 0 23 27 79 40 30 7 60 16 65 20 6 4 32
15 58 25 28 11 43 21 37 25 -8 5 0 17 22 35 l33 27 -32 -18 c-18 -10 -33 -22
-33 -27 0 -5 -10 -6 -22 -2 -21 5 -21 5 2 -10 l25 -16 -25 7 c-14 4 -32 9 -40
11 -8 2 -5 -2 7 -9 20 -12 19 -13 -21 -15 -23 -1 -82 -13 -131 -28 -91 -27
-112 -32 -265 -60 -100 -18 -468 -30 -555 -18 -41 5 18 8 190 8 158 0 279 5
330 13 161 27 350 81 397 114 16 11 32 16 38 13 5 -3 10 -4 10 0 0 3 -12 10
-26 15 -20 8 -41 4 -102 -20 -42 -17 -98 -33 -124 -37 -26 -3 -46 -9 -43 -13
2 -3 -10 -4 -28 -2 -18 3 -27 6 -22 8 134 34 259 74 279 89 29 22 11 30 -21
10 -27 -18 -28 -18 -13 1 8 10 22 24 30 31 13 11 13 12 0 13 -9 0 -21 -5 -28
-12 -9 -9 -12 -6 -12 15 0 17 -5 27 -15 27 -8 0 -15 5 -15 10 0 6 -6 10 -12 9
-26 -3 -39 1 -33 11 4 6 10 8 15 5 4 -3 13 2 20 10 11 13 8 15 -14 15 -14 0
-26 4 -26 9 0 4 -12 6 -27 4 -22 -4 -25 -2 -13 6 29 21 -27 41 -60 22z m-92
-291 c-29 -9 -159 -23 -143 -15 14 7 115 23 145 23 l25 0 -27 -8z m-285 -27
c-46 -2 -120 -2 -165 0 -46 1 -9 3 82 3 91 0 128 -2 83 -3z m633 -28 c-11 -8
-25 -15 -30 -15 -6 1 0 7 14 15 32 19 40 18 16 0z m-181 -26 c-52 -17 -167
-40 -172 -35 -3 3 5 7 18 10 13 3 51 11 84 19 69 17 117 21 70 6z m-1060 -39
c-27 -12 -43 -12 -25 0 8 5 22 9 30 9 10 0 8 -3 -5 -9z m320 -10 c40 -6 43 -7
15 -8 -19 0 -60 3 -90 8 -48 6 -50 7 -15 8 22 0 63 -3 90 -8z m524 6 c-2 -2
-35 -6 -74 -9 -45 -3 -58 -3 -35 2 37 9 116 14 109 7z m-247 -23 c-40 -2 -103
-2 -140 0 -37 2 -4 3 73 3 77 0 107 -2 67 -3z m778 -123 c0 -5 -3 -10 -7 -10
-5 0 -19 -3 -33 -6 l-25 -6 25 15 c31 18 40 20 40 7z m-110 -40 c-34 -11 -60
-11 -35 0 11 5 29 8 40 8 16 0 15 -2 -5 -8z m-163 -47 c-4 -4 -29 -10 -55 -14
-26 -4 -75 -12 -109 -18 -102 -18 -122 -20 -268 -24 -77 -3 -111 -3 -75 -1
106 6 340 34 405 49 67 15 112 18 102 8z m-1385 -75 c-9 -9 -15 -9 -24 0 -9 9
-7 12 12 12 19 0 21 -3 12 -12z m20 -58 c-6 -39 -9 -38 -14 4 -2 22 0 32 7 29
6 -2 9 -17 7 -33z m1382 -56 c20 -41 36 -79 36 -83 0 -14 33 -22 44 -11 14 14
26 13 26 -3 0 -7 -14 -21 -30 -31 l-30 -17 -16 38 c-9 21 -31 69 -50 106 -37
75 -38 77 -25 77 4 0 25 -34 45 -76z m76 64 c0 -4 -4 -8 -10 -8 -5 0 -10 -7
-10 -16 0 -9 5 -12 12 -8 7 4 8 3 4 -4 -12 -20 -24 -13 -28 17 -3 24 -1 29 14
28 10 -1 18 -5 18 -9z m-1254 -24 c24 -6 44 -42 44 -78 0 -26 -37 -79 -49 -71
-5 2 -32 -4 -62 -15 -29 -11 -56 -20 -59 -20 -3 0 -6 34 -7 76 0 41 -4 78 -7
81 -13 13 -5 25 14 20 11 -3 20 -1 20 4 0 10 73 12 106 3z m1131 -91 c25 -54
47 -101 50 -105 2 -5 -2 -8 -10 -8 -8 0 -18 11 -21 25 -9 36 -52 19 -48 -19 1
-14 -2 -26 -8 -26 -5 0 -11 10 -11 23 -1 12 -3 38 -6 57 -10 88 -11 150 -2
150 5 0 30 -44 56 -97z m-1001 71 l21 -6 -18 -49 c-13 -35 -15 -48 -6 -46 16
3 21 -56 8 -94 -5 -16 -6 -29 -1 -29 5 0 12 21 15 48 10 79 13 80 12 4 -1 -58
-4 -71 -15 -67 -8 3 -20 1 -27 -5 -9 -8 -12 -6 -12 7 0 73 -3 88 -17 71 -7
-10 -16 -15 -19 -12 -3 3 -3 -3 0 -15 4 -17 1 -21 -18 -22 l-24 0 24 -10 c13
-5 22 -12 19 -14 -10 -10 -60 15 -56 28 37 101 84 217 88 217 3 0 15 -3 26 -6z
m897 -18 c22 -33 34 -151 17 -171 -17 -20 -49 -19 -74 3 -21 17 -21 17 -2 -5
10 -12 28 -24 40 -26 18 -4 18 -4 -4 -5 -41 -2 -57 18 -61 75 -2 28 -1 49 3
47 3 -2 4 15 1 38 -4 27 -3 39 4 35 6 -4 13 2 16 13 7 28 41 25 60 -4z m-819
-33 c-19 -19 -32 -38 -29 -42 2 -5 -7 -6 -21 -3 -17 3 -23 9 -20 19 3 8 6 20
6 25 0 6 3 9 6 6 3 -3 16 5 29 17 14 15 30 22 43 18 18 -4 17 -7 -14 -40z
m112 -30 c-6 -32 -15 -64 -20 -72 -5 -8 -9 -30 -8 -49 1 -27 -2 -33 -14 -28
-10 4 -14 1 -12 -6 3 -7 12 -13 21 -13 30 0 23 -20 -7 -20 l-29 -1 7 90 c3 49
6 104 6 123 0 31 2 33 33 33 l34 0 -11 -57z m101 40 c9 -23 -17 -129 -28 -112
-6 10 -10 8 -18 -11 -5 -14 -10 -19 -10 -12 -1 7 6 28 14 48 19 46 3 35 -23
-15 -15 -29 -18 -41 -9 -45 7 -2 4 -5 -5 -5 -11 -1 -18 -9 -18 -22 0 -11 -4
-18 -10 -14 -5 3 -7 12 -3 20 3 9 -1 15 -8 15 -8 0 -4 9 9 23 12 13 22 31 22
40 0 9 5 17 11 17 5 0 8 4 5 8 -3 5 -1 25 4 44 8 29 15 36 36 36 14 0 28 -7
31 -15z m473 6 c0 -5 5 -7 10 -4 6 3 10 2 10 -3 0 -16 -13 -22 -26 -11 -19 16
-44 4 -44 -21 0 -14 -4 -19 -12 -14 -7 5 -8 3 -3 -7 12 -18 15 -99 4 -99 -5 0
-9 -7 -9 -16 0 -8 4 -13 9 -9 6 3 13 -1 18 -9 6 -9 15 -11 30 -5 19 7 22 13
17 39 -5 23 -3 30 10 30 10 0 16 -8 16 -21 0 -29 -18 -59 -35 -59 -8 0 -15 -5
-15 -11 0 -5 5 -7 12 -3 7 4 8 3 4 -4 -5 -9 -17 -4 -40 13 -31 24 -33 30 -35
86 -2 92 15 139 51 139 15 0 28 -5 28 -11z m-386 -7 c3 -5 -2 -22 -10 -38 -9
-16 -16 -31 -16 -34 0 -3 -4 -15 -9 -28 -5 -13 -9 -28 -9 -33 0 -8 -15 -13
-32 -10 -11 1 -10 -7 3 -32 10 -20 10 -20 -4 -7 -9 8 -17 22 -18 30 -4 19 31
110 42 110 5 0 6 7 2 16 -9 24 38 47 51 26z m84 -54 c-2 -37 -7 -58 -15 -58
-8 0 -11 -10 -7 -29 4 -16 1 -32 -5 -35 -7 -5 -9 -1 -5 8 3 9 2 16 -4 16 -6 0
-8 10 -5 23 4 21 4 21 -10 -2 -8 -14 -13 -31 -10 -38 3 -7 -1 -13 -10 -13 -13
0 -12 7 1 54 10 38 19 53 28 49 11 -4 14 6 14 39 0 33 4 45 15 45 13 0 15 -12
13 -59z m92 41 c0 -10 -6 -20 -12 -22 -9 -4 -10 -8 -2 -14 7 -5 4 -27 -11 -71
l-22 -63 -8 33 c-8 32 -5 129 4 155 4 12 51 -5 51 -18z m76 -1 c-9 -12 -16
-32 -16 -43 -1 -19 -1 -19 -14 -2 -12 16 -14 16 -20 1 -3 -9 -1 -23 5 -31 7
-7 9 -17 5 -20 -4 -4 -12 -1 -17 7 -8 12 -9 9 -6 -10 3 -14 1 -34 -3 -45 -7
-17 -9 -16 -10 10 l-1 30 -10 -25 c-6 -13 -9 -36 -8 -50 2 -42 0 -46 -26 -48
-31 -2 -37 12 -25 58 l9 35 -2 -42 c-1 -24 0 -43 3 -43 17 1 28 20 32 60 5 44
45 142 60 148 4 2 8 10 8 18 0 8 10 14 26 14 24 0 24 -1 10 -22z m-210 -46
c-12 -12 -18 8 -10 35 l8 28 4 -28 c2 -16 1 -31 -2 -35z m-705 -11 c0 -3 2
-16 5 -28 2 -15 -1 -23 -10 -23 -8 0 -16 13 -18 28 -3 19 0 29 9 29 7 0 13 -3
14 -6z m135 -63 c4 -7 4 -10 -1 -6 -9 9 -65 -19 -65 -32 0 -5 -6 -7 -14 -4 -8
3 -17 0 -21 -5 -3 -6 -11 -9 -16 -6 -5 4 -12 -1 -15 -9 -8 -20 -40 -21 -47 -2
-4 10 5 16 31 21 20 4 57 17 82 30 53 28 57 29 66 13z m749 -16 c-18 -4 -20
-19 -2 -25 7 -3 5 -6 -5 -6 -21 -1 -24 24 -5 43 9 10 14 11 19 2 4 -6 1 -12
-7 -14z m-333 -14 c-9 -9 -12 -7 -12 12 0 19 3 21 12 12 9 -9 9 -15 0 -24z
m-31 -61 c-7 -7 -9 2 -7 29 5 52 8 56 13 15 3 -18 0 -38 -6 -44z m159 -7 c5 0
7 8 4 18 -4 10 -2 13 3 7 4 -5 12 -13 16 -16 4 -4 -5 -11 -21 -17 -27 -9 -29
-8 -27 12 4 36 8 42 12 19 2 -13 8 -23 13 -23z m196 2 c-15 -15 -15 -15 -4 10
7 15 15 23 17 17 2 -6 -4 -18 -13 -27z m484 -31 c0 -14 -7 -18 -26 -15 -15 1
-28 -3 -31 -12 -7 -19 -20 -18 -20 1 0 8 6 15 14 15 7 0 13 6 13 13 0 9 3 8 9
-2 7 -11 10 -9 16 8 7 24 25 19 25 -8z m-120 -33 c0 -10 -7 -18 -15 -18 -17 0
-20 16 -5 25 5 3 7 13 4 23 -5 14 -4 15 5 2 6 -8 11 -23 11 -32z m-100 -21 c0
-5 -7 -2 -15 7 -8 8 -15 20 -15 27 0 14 29 -20 30 -34z m-870 9 c14 -18 14
-18 -7 -6 -12 8 -19 18 -16 23 3 4 6 7 7 5 1 -2 8 -12 16 -22z m401 7 c3 1 2
-1 -1 -5 -3 -3 -18 -4 -33 -1 -20 4 -25 8 -16 14 7 4 20 4 30 -1 9 -5 18 -8
20 -7z m271 -11 c-3 -23 7 -29 24 -12 7 7 11 6 11 -5 0 -25 -37 -17 -47 11
-13 33 -13 37 3 31 6 -2 11 -14 9 -25z m-84 -10 c-8 -9 -14 -9 -24 -1 -18 15
-18 14 10 14 18 0 22 -3 14 -13z m201 9 c10 -7 7 -9 -12 -8 -14 1 -23 5 -20
10 6 9 15 9 32 -2z m672 -14 c-6 -8 -8 -17 -4 -20 3 -4 2 -7 -4 -7 -19 0 -22
13 -5 26 22 17 27 17 13 1z m-1227 -12 c3 -9 0 -15 -9 -15 -9 0 -12 6 -9 15 4
8 7 15 9 15 2 0 5 -7 9 -15z m250 -13 c-8 -2 -24 -2 -36 1 l-23 4 25 10 c17 7
28 7 36 -1 9 -8 9 -12 -2 -14z m-284 2 c0 -2 -9 -4 -21 -4 -11 0 -18 4 -14 10
5 8 35 3 35 -6z m173 -1 c-13 -2 -35 -2 -50 0 -16 2 -5 4 22 4 28 0 40 -2 28
-4z m417 -49 c0 -8 -4 -12 -10 -9 -5 3 -10 10 -10 16 0 5 5 9 10 9 6 0 10 -7
10 -16z m141 7 c6 10 9 10 9 2 0 -7 7 -10 15 -7 8 4 15 2 15 -3 0 -15 -53 -10
-56 5 -2 8 0 8 3 1 4 -8 8 -7 14 2z m-726 -32 c-2 -17 -8 -36 -15 -42 -9 -9
-11 -7 -8 8 2 14 -2 19 -12 17 -8 -2 -11 0 -7 5 5 4 14 8 20 8 7 0 13 6 13 13
2 18 4 22 8 22 2 0 2 -14 1 -31z m204 -29 c0 -10 -3 -8 -9 5 -12 27 -12 43 0
25 5 -8 9 -22 9 -30z m53 -2 c-8 -8 -12 -9 -12 -1 0 6 -3 20 -6 30 -7 17 -6
17 12 1 14 -14 16 -20 6 -30z m164 5 c10 -10 29 -18 42 -18 14 0 27 -7 29 -15
3 -11 2 -11 -4 -3 -7 9 -27 11 -50 4 -10 -3 -18 3 -15 11 1 5 -7 12 -18 15
-11 3 -20 9 -20 14 0 14 17 10 36 -8z m148 -10 c-5 -5 -12 -12 -16 -18 -4 -6
-8 -2 -8 8 0 9 7 17 17 17 9 0 12 -3 7 -7z M2656 800 c7 -28 12 -35 18 -29 2
2 -2 15 -10 29 l-15 25 7 -25z M2670 741 c0 -20 17 -37 27 -28 7 8 -7 47 -18
47 -5 0 -9 -9 -9 -19z M2544 763 c-13 -69 9 -132 41 -119 13 5 15 19 13 78 -3
68 -5 73 -25 74 -18 1 -24 -6 -29 -33z M2023 693 c-18 -38 -16 -52 3 -25 8 12
14 29 12 37 -2 10 -7 5 -15 -12z M2213 695 c0 -22 2 -30 4 -17 2 12 2 30 0 40
-3 9 -5 -1 -4 -23z M1755 1630 c3 -6 1 -10 -6 -10 -7 0 -10 -3 -6 -6 3 -3 13
-2 22 4 16 8 16 9 1 15 -10 4 -15 3 -11 -3z M2905 1511 c3 -5 -1 -12 -7 -14
-8 -4 -7 -6 4 -6 23 -1 32 15 12 23 -8 3 -13 2 -9 -3z M1625 1381 c3 -6 -3
-15 -12 -21 -17 -11 -17 -11 0 -6 10 3 23 6 28 6 4 0 6 7 3 15 -4 8 -10 15
-16 15 -5 0 -7 -4 -3 -9z M1514 1344 c3 -17 34 -40 43 -31 2 3 -5 8 -16 12
-12 4 -18 12 -14 21 3 7 1 14 -5 14 -6 0 -9 -7 -8 -16z M1584 1325 c-16 -12
-17 -14 -3 -15 9 0 19 7 23 15 7 19 5 19 -20 0z M3226 1162 c-3 -5 1 -15 9
-22 16 -14 20 -3 6 19 -5 8 -11 9 -15 3z M1342 1046 c7 -8 15 -11 18 -7 3 3 9
9 14 14 5 4 -3 7 -18 7 -22 0 -25 -2 -14 -14z M1275 980 c6 -9 2 -10 -16 -5
-13 4 -22 6 -19 3 34 -27 38 -28 43 -14 4 9 1 18 -5 22 -7 5 -8 2 -3 -6z
M1263 835 c-9 -20 -8 -25 3 -25 8 0 14 10 14 25 0 31 -2 31 -17 0z M1230 760
c20 -13 33 -13 25 0 -3 6 -14 10 -23 10 -15 0 -15 -2 -2 -10z M1160 440 c20
-13 33 -13 25 0 -3 6 -14 10 -23 10 -15 0 -15 -2 -2 -10z"/>
</g>
<g transform="translate(0.000000,289.000000) scale(0.100000,-0.100000)"
fill="#f9bf9c" stroke="none">
<path d="M2673 2283 c26 -27 47 -54 47 -61 0 -7 6 -12 14 -12 8 0 36 -15 62
-33 27 -18 57 -36 67 -40 9 -3 17 -11 17 -17 0 -5 9 -10 20 -10 11 0 23 -7 26
-15 4 -8 10 -12 15 -9 5 3 9 0 9 -6 0 -6 5 -8 10 -5 6 4 25 -8 43 -25 18 -17
46 -37 62 -44 17 -7 46 -27 65 -45 31 -28 49 -36 73 -32 4 0 7 -6 7 -15 0 -11
6 -13 19 -9 14 4 23 0 31 -15 6 -11 17 -20 25 -20 8 0 18 -8 24 -17 5 -10 13
-15 17 -11 4 4 12 1 18 -8 6 -8 21 -16 33 -17 12 0 26 -11 32 -24 6 -13 19
-23 30 -23 11 0 35 -9 54 -20 18 -11 46 -21 61 -22 15 -1 32 -10 36 -18 5 -9
39 -32 77 -51 37 -18 70 -37 71 -41 2 -5 8 -8 13 -8 6 0 19 -9 31 -20 12 -11
30 -20 40 -20 10 0 18 -6 18 -14 0 -7 7 -19 15 -26 9 -7 15 -8 15 -2 0 7 9 6
25 -1 14 -7 25 -15 25 -19 0 -5 6 -8 14 -8 8 0 16 -7 20 -15 7 -18 33 -20 39
-2 7 20 -73 126 -152 198 -41 38 -129 103 -195 145 -67 42 -139 89 -161 104
-47 32 -184 102 -257 131 -28 11 -77 35 -108 53 -31 18 -87 46 -125 61 -39 15
-92 38 -120 50 -83 38 -189 83 -221 95 -27 10 -25 7 19 -37z M1639 2290 c-37
-15 -98 -46 -136 -68 -38 -22 -94 -51 -125 -65 -30 -14 -80 -40 -109 -58 -30
-19 -72 -43 -94 -54 -119 -59 -474 -310 -591 -418 -38 -36 -83 -85 -99 -109
-17 -23 -32 -45 -35 -48 -15 -14 -43 -66 -56 -103 l-14 -42 30 34 c16 18 30
40 30 47 0 9 11 14 29 14 34 0 50 18 30 31 -9 7 -5 7 14 3 23 -5 26 -4 20 12
-5 13 -3 16 10 11 11 -4 20 1 27 14 6 11 15 17 21 14 5 -4 9 -1 9 4 0 6 10 11
23 11 18 0 19 2 7 10 -10 6 -11 10 -2 10 6 0 12 10 12 23 0 17 2 19 9 8 8 -12
11 -10 16 11 4 14 12 25 18 25 44 -1 67 5 67 17 0 8 15 26 33 40 17 14 39 32
47 40 8 7 30 21 48 30 17 9 32 21 32 26 0 6 11 10 25 10 14 0 25 6 25 13 0 6
18 21 40 31 22 11 40 23 40 29 0 5 6 7 14 4 9 -4 16 3 20 19 7 25 35 34 37 12
0 -7 5 -1 11 15 5 15 15 27 21 25 29 -5 75 15 87 37 7 14 22 25 32 25 10 0 18
7 18 15 0 8 15 21 33 30 18 8 44 26 59 39 14 14 28 23 31 20 2 -3 14 6 25 20
10 14 22 23 25 19 4 -3 18 2 32 11 14 9 25 14 25 11 0 -3 8 3 18 13 11 9 17
21 14 26 -3 5 2 7 11 3 9 -3 17 -1 19 4 2 5 17 11 33 13 20 2 31 9 33 22 2 10
11 26 21 34 20 18 56 60 50 59 -2 0 -34 -13 -70 -29z M4005 1445 c2 -22 4 -41
5 -41 0 -1 7 -5 16 -8 13 -5 14 -3 6 6 -5 7 -15 29 -21 48 l-10 35 4 -40z
M3799 834 c-21 -23 -30 -25 -67 -20 -58 8 -79 -6 -92 -57 -7 -26 -24 -54 -47
-74 -40 -37 -39 -39 10 -18 20 8 42 12 50 10 12 -5 50 20 114 74 14 12 18 22
12 32 -6 10 1 24 23 46 18 18 30 33 27 33 -3 0 -16 -12 -30 -26z M983 711
c-36 -30 -30 -61 11 -61 30 0 34 3 38 30 4 26 -6 51 -21 50 -4 -1 -16 -9 -28
-19z M885 622 c-17 -10 -37 -16 -45 -14 -13 5 -13 3 -1 -11 7 -9 11 -23 8 -30
-3 -9 16 -25 51 -45 74 -40 116 -56 106 -41 -7 13 64 8 99 -6 9 -4 17 -3 17 3
0 5 -9 12 -21 15 -12 3 -18 10 -15 15 3 5 -3 18 -13 28 -9 11 -16 24 -15 29 4
12 -102 75 -125 75 -9 0 -30 -8 -46 -18z M1020 471 c0 -8 41 -23 47 -17 2 1
-8 8 -22 14 -14 6 -25 8 -25 3z"/>
</g>
<g transform="translate(0.000000,289.000000) scale(0.100000,-0.100000)"
fill="#dd3f22" stroke="none">
<path d="M2050 2432 c0 -7 -15 -12 -37 -12 -21 -1 -56 -8 -78 -16 -22 -9 -46
-16 -52 -16 -7 -1 -13 -5 -13 -9 0 -4 -11 -10 -25 -13 -16 -4 -23 -11 -19 -18
4 -7 3 -8 -4 -4 -29 18 -146 -82 -157 -134 -17 -78 86 -164 251 -212 69 -19
102 -22 259 -22 189 1 222 7 366 68 55 23 141 95 135 112 -3 9 -1 12 4 9 6 -4
9 10 8 35 -3 83 -143 175 -206 137 -7 -5 -12 -3 -12 7 0 8 7 13 18 11 9 -1 21
0 26 3 15 9 -77 32 -101 26 -14 -4 -23 -2 -23 6 0 6 5 8 12 4 7 -4 8 -3 4 4
-4 6 -12 9 -20 6 -7 -3 -25 0 -41 6 -23 9 -32 7 -49 -7 -15 -13 -17 -14 -8 -2
13 18 7 30 -13 23 -7 -3 -23 -1 -34 6 -17 8 -21 8 -19 -2 2 -7 -3 -12 -9 -10
-7 1 -13 -6 -14 -15 0 -12 -2 -13 -6 -5 -3 7 0 19 6 26 9 11 -2 14 -59 15 -45
1 -70 -2 -70 -9 0 -6 5 -8 12 -4 7 5 8 3 3 -6 -6 -10 -11 -9 -22 5 -7 11 -13
13 -13 7z m128 -13 c-2 -6 -8 -10 -13 -10 -5 0 -11 4 -13 10 -2 6 4 11 13 11
9 0 15 -5 13 -11z m83 -16 c13 -17 13 -17 -5 -3 -18 14 -18 13 -12 -10 6 -19
5 -21 -3 -10 -24 34 -5 55 20 23z m-215 -17 c0 -14 -3 -23 -7 -20 -6 3 -6 22
0 42 3 10 7 -2 7 -22z m109 -16 c3 -5 -3 -10 -14 -10 -12 0 -21 5 -21 10 0 6
6 10 14 10 8 0 18 -4 21 -10z M2043 493 c9 -2 23 -2 30 0 6 3 -1 5 -18 5 -16
0 -22 -2 -12 -5z M2013 443 c15 -2 37 -2 50 0 12 2 0 4 -28 4 -27 0 -38 -2
-22 -4z M2138 443 c12 -2 30 -2 40 0 9 3 -1 5 -23 4 -22 0 -30 -2 -17 -4z
M2460 401 c0 -6 5 -13 10 -16 6 -3 10 1 10 9 0 9 -4 16 -10 16 -5 0 -10 -4
-10 -9z M2604 398 c3 -15 56 -20 56 -5 0 5 -7 7 -15 3 -8 -3 -15 0 -15 7 0 8
-3 8 -9 -2 -6 -9 -10 -10 -14 -2 -3 7 -5 7 -3 -1z M2885 401 c3 -2 0 -10 -6
-17 -7 -8 -7 -14 1 -19 6 -4 9 -1 8 7 -2 7 4 13 13 12 9 -1 16 5 16 12 0 7 -8
12 -18 11 -10 -1 -16 -3 -14 -6z M1889 395 c-1 -3 -2 -11 -3 -17 0 -7 -6 -13
-13 -13 -6 0 -15 -4 -20 -8 -4 -5 -1 -7 7 -5 10 2 14 -3 12 -17 -3 -15 -1 -17
8 -8 11 10 23 73 14 73 -2 0 -5 -2 -5 -5z M2081 375 c1 -19 18 -51 18 -35 0 8
-4 22 -9 30 -5 8 -9 11 -9 5z M2134 367 c3 -10 6 -24 6 -30 0 -8 4 -7 12 1 10
10 8 16 -6 30 -18 16 -19 16 -12 -1z M2280 351 c0 -5 9 -11 20 -14 11 -3 19
-10 18 -15 -3 -8 5 -14 15 -11 23 7 43 5 50 -4 6 -8 7 -8 4 3 -2 8 -15 15 -29
15 -13 0 -32 8 -42 18 -19 18 -36 22 -36 8z M2440 323 c0 -10 4 -14 8 -8 4 6
11 13 16 18 5 4 2 7 -7 7 -10 0 -17 -8 -17 -17z M1809 313 c-7 -10 -9 -15 -5
-11 5 4 16 2 25 -5 14 -10 14 -10 4 4 -7 9 -10 19 -6 22 3 4 4 7 1 7 -3 0 -12
-8 -19 -17z"/>
</g>
</svg>