<svg xmlns="http://www.w3.org/2000/svg" viewBox="0 0 554 303" width="554" height="303">
<g transform="translate(0.000000,303.000000) scale(0.100000,-0.100000)"
fill="#fae172" stroke="none">
<path d="M2620 2849 c-226 -17 -485 -107 -584 -204 -26 -25 -53 -45 -61 -45
-12 0 -74 -29 -85 -40 -8 -8 -52 -32 -120 -66 -36 -18 -74 -42 -84 -53 -11
-12 -29 -21 -42 -21 -12 0 -24 -5 -26 -10 -2 -6 -14 -12 -27 -15 -13 -2 -34
-13 -45 -24 -12 -10 -40 -29 -63 -41 -24 -12 -43 -28 -43 -34 0 -7 -18 -18
-40 -25 -22 -6 -51 -22 -64 -34 -14 -13 -50 -28 -85 -35 -41 -9 -59 -17 -55
-24 5 -8 1 -9 -12 -4 -10 4 -15 4 -11 0 8 -8 -30 -37 -52 -41 -7 -1 -26 -13
-40 -27 -15 -14 -32 -26 -39 -26 -7 0 -11 -5 -10 -12 2 -7 -26 -21 -63 -34
-37 -12 -76 -31 -88 -43 -11 -11 -29 -22 -39 -23 -38 -3 -48 -5 -64 -13 -10
-4 -15 -11 -12 -16 3 -5 -3 -9 -13 -9 -15 0 -16 -2 -3 -11 12 -8 10 -9 -7 -4
-22 6 -26 3 -64 -48 -12 -16 -27 -26 -34 -24 -8 4 -10 -3 -7 -19 4 -23 3 -23
-28 -12 -29 9 -35 9 -47 -7 -7 -11 -13 -15 -13 -10 0 5 -5 4 -12 -3 -8 -8 -8
-15 2 -27 12 -15 10 -16 -26 -13 -25 2 -38 8 -36 16 3 17 -3 15 -19 -5 -10
-11 -10 -14 -1 -9 6 4 12 3 12 -2 0 -12 -34 -42 -47 -42 -6 0 -16 -7 -24 -16
-7 -8 -21 -13 -31 -11 -10 3 -16 1 -12 -4 7 -12 -45 -59 -66 -59 -17 0 -35
-15 -41 -35 -7 -21 -44 -55 -55 -51 -13 5 -59 -44 -77 -81 -5 -13 -18 -23 -29
-23 -16 0 -23 -11 -19 -33 1 -5 -5 -28 -14 -53 -19 -58 -20 -163 0 -190 8 -12
12 -24 10 -28 -3 -3 -2 -4 1 -1 9 6 31 -18 35 -40 2 -10 10 -20 18 -23 10 -3
12 0 8 13 -16 41 -17 61 -3 80 14 19 15 18 24 -15 l10 -35 1 42 c1 36 4 42 31
52 22 7 32 18 36 41 6 25 11 30 35 30 16 0 29 5 29 10 0 6 7 10 15 10 8 0 15
6 15 13 0 6 18 22 40 35 22 12 40 27 40 32 0 15 49 60 65 60 8 0 15 3 15 8 0
4 18 15 40 25 26 11 44 27 51 44 12 32 26 43 54 43 11 0 36 17 55 36 19 20 62
49 96 65 57 27 114 72 114 90 0 5 8 9 19 9 10 0 24 6 30 14 13 16 143 96 155
96 5 0 18 9 30 20 85 80 122 110 138 110 10 0 18 5 18 10 0 6 7 10 15 10 8 0
33 18 55 40 22 22 43 40 46 40 24 0 96 51 134 95 28 33 59 57 84 66 21 7 60
30 86 51 26 21 56 38 66 38 11 1 44 14 74 30 30 17 61 30 68 30 6 0 12 3 12 8
0 11 86 54 112 55 13 1 33 -2 46 -7 32 -11 29 11 -7 49 -16 16 -33 47 -36 67
-7 34 -4 40 40 83 26 25 64 53 84 61 267 115 549 153 836 113 146 -21 197 -35
291 -79 76 -37 100 -33 27 4 -169 85 -398 117 -693 95z M3400 2690 c100 -76
118 -96 121 -130 3 -28 9 -36 29 -40 39 -8 129 -54 130 -66 0 -6 11 -16 25
-22 14 -7 28 -19 31 -27 4 -8 17 -15 30 -15 13 0 24 -4 24 -9 0 -5 10 -13 22
-17 12 -4 31 -18 41 -31 11 -14 26 -22 34 -19 9 4 20 -6 31 -24 11 -19 25 -30
40 -30 13 0 22 -6 22 -15 0 -8 5 -15 11 -15 6 0 26 -12 44 -27 19 -16 55 -44
81 -63 26 -19 54 -42 63 -50 9 -8 37 -30 61 -49 25 -19 50 -39 55 -45 20 -22
101 -83 118 -89 9 -3 17 -11 17 -17 0 -5 9 -10 20 -10 10 0 23 -6 27 -13 4 -7
46 -37 93 -67 47 -29 92 -62 100 -71 8 -10 29 -21 46 -26 31 -8 85 -46 129
-91 13 -13 66 -45 119 -72 93 -47 106 -56 147 -92 10 -10 21 -18 24 -18 5 0
39 -29 102 -87 13 -13 28 -23 34 -23 5 0 15 -11 21 -25 8 -18 19 -25 40 -25
17 0 28 -5 28 -13 0 -23 71 -106 85 -101 8 4 15 -3 18 -18 3 -17 5 -14 6 11 1
35 -39 195 -47 186 -7 -7 -40 59 -34 69 3 5 0 6 -7 2 -6 -4 -14 0 -17 8 -3 9
-11 16 -18 16 -12 0 -42 59 -38 73 1 5 -2 6 -7 2 -6 -3 -8 -13 -5 -23 2 -9 -3
-2 -11 16 -8 17 -18 32 -21 32 -3 0 -2 -4 1 -10 13 -21 -31 5 -63 38 -26 26
-40 32 -58 28 -13 -4 -24 -10 -24 -15 0 -5 -20 -1 -45 8 -49 17 -57 28 -23 33
20 3 19 5 -14 39 -47 48 -75 58 -80 27 -3 -22 -4 -22 -18 7 -13 25 -21 30 -53
30 -25 0 -43 6 -51 18 -7 9 -18 17 -25 17 -6 0 -11 7 -11 15 0 9 -6 18 -14 21
-8 3 -20 19 -26 35 -7 16 -16 26 -21 23 -5 -3 -9 0 -9 6 0 6 -5 8 -11 5 -19
-12 -59 4 -59 24 0 10 -6 24 -14 30 -11 9 -12 6 -8 -15 4 -24 2 -26 -19 -19
-13 4 -29 13 -35 21 -6 8 -22 14 -35 14 l-24 1 23 18 c31 27 28 30 -20 25 -38
-3 -98 19 -85 32 6 7 -49 64 -62 64 -11 0 -61 47 -61 58 0 4 -16 16 -35 26
-26 14 -32 22 -24 32 7 8 7 14 -1 19 -6 4 -9 3 -8 -2 4 -14 -22 -53 -35 -53
-23 0 -40 39 -25 57 12 15 11 15 -9 4 -13 -6 -23 -17 -23 -23 0 -7 -12 0 -27
14 -16 14 -36 28 -45 31 -11 4 -16 14 -13 27 2 13 -1 20 -11 20 -34 0 -97 54
-89 77 2 7 -4 10 -17 8 -22 -5 -48 10 -48 27 0 5 5 6 12 2 7 -4 8 -3 4 4 -4 7
-21 12 -37 12 -17 0 -28 3 -25 8 2 4 -16 16 -40 27 -24 11 -44 23 -44 28 0 4
-4 6 -9 3 -5 -3 -14 1 -21 9 -7 8 -17 15 -22 15 -16 0 -168 103 -163 111 3 4
-4 5 -16 2 -14 -4 -22 0 -25 13 -3 11 -34 38 -68 62 -63 42 -103 58 -56 22z
M3402 2318 c3 -25 25 -33 47 -19 21 14 5 41 -24 41 -22 0 -26 -4 -23 -22z
M3444 2248 c-4 -6 -2 -14 4 -16 7 -2 12 -12 12 -21 0 -10 9 -30 20 -44 11 -14
20 -29 20 -34 0 -4 11 -21 25 -38 21 -25 26 -28 34 -15 8 12 5 17 -14 23 -14
5 -25 14 -25 21 0 7 -10 28 -23 47 -32 48 -39 69 -22 69 7 0 21 -7 29 -16 9
-8 16 -13 16 -9 0 8 57 -31 93 -63 34 -33 34 -38 -5 -62 -18 -11 -28 -20 -23
-21 6 0 0 -4 -12 -9 -33 -13 -28 -22 25 -49 l48 -23 52 26 c28 14 53 30 57 36
3 5 11 10 17 10 7 0 6 -5 -2 -15 -6 -8 -9 -23 -5 -34 9 -29 -64 -65 -112 -56
-26 5 -33 10 -29 21 4 10 1 14 -6 12 -23 -8 -18 -26 12 -38 32 -13 36 -20 19
-37 -8 -8 -6 -15 8 -24 10 -8 27 -31 38 -52 11 -21 33 -52 48 -69 16 -17 40
-48 53 -70 13 -21 29 -38 34 -38 6 0 10 -9 10 -20 0 -17 7 -20 41 -20 38 0 39
-1 24 -17 -16 -16 -16 -17 1 -30 10 -7 34 -13 53 -14 33 0 34 -1 14 -11 -35
-17 -28 -36 17 -49 35 -11 39 -15 27 -26 -14 -15 3 -39 101 -141 23 -24 42
-47 43 -51 0 -3 17 -19 36 -36 32 -26 44 -30 95 -30 32 1 58 0 58 -2 0 -1 -19
-12 -42 -24 l-43 -22 28 -9 c18 -7 27 -17 27 -32 0 -12 8 -32 17 -45 16 -24
16 -25 -15 -51 -18 -15 -32 -35 -31 -46 0 -10 3 -13 6 -6 2 6 16 12 29 12 15
0 24 6 24 15 0 9 9 15 24 15 36 0 74 -51 81 -108 3 -26 10 -55 16 -64 5 -10 9
-24 9 -32 0 -8 6 -19 14 -23 7 -4 21 -48 31 -98 22 -116 47 -175 74 -175 13 0
18 -5 15 -13 -7 -20 62 -39 143 -41 l69 -1 -37 -30 c-21 -16 -38 -34 -38 -38
-1 -10 57 1 79 15 11 6 9 7 -7 3 -28 -8 -33 20 -5 30 22 7 66 44 60 50 -3 3
-24 -2 -48 -10 -58 -21 -80 -19 -115 9 -25 20 -28 26 -16 40 12 14 11 16 -6
16 -26 0 -53 35 -53 70 0 32 -9 37 -28 18 -8 -8 -14 -4 -23 18 -14 36 -26 62
-44 93 -8 14 -11 38 -8 57 5 28 1 38 -26 63 -17 16 -31 38 -31 49 0 33 -32 79
-72 104 -35 22 -43 37 -39 79 1 9 -10 26 -24 37 -14 11 -25 24 -25 29 0 9 49
49 85 69 71 39 90 52 90 62 0 5 4 14 9 19 5 5 6 2 1 -6 -6 -10 -2 -12 13 -7
13 4 41 -2 71 -15 33 -14 64 -20 91 -17 37 3 40 2 40 -22 0 -20 13 -36 53 -65
28 -22 68 -55 87 -74 19 -18 50 -40 68 -47 17 -8 32 -18 32 -22 0 -6 79 -55
141 -87 10 -5 19 -15 19 -22 0 -7 8 -17 19 -22 10 -6 22 -22 25 -36 5 -18 13
-25 30 -25 35 0 60 -33 53 -70 -6 -29 2 -36 36 -31 11 2 8 -24 -5 -39 -11 -12
-10 -12 5 -1 9 7 17 18 17 24 0 6 10 21 22 34 24 26 6 33 -19 7 -18 -18 -36
-1 -28 26 6 22 -50 84 -69 77 -10 -4 -20 1 -26 13 -13 24 -99 110 -110 110 -5
0 -15 6 -22 13 -7 7 -29 24 -48 37 -19 13 -48 37 -65 52 -16 15 -33 28 -37 28
-5 0 -10 0 -13 1 -2 0 -18 13 -36 30 -17 16 -35 29 -40 29 -5 0 -9 6 -9 13 0
7 -13 18 -30 24 -25 9 -30 17 -30 43 0 32 0 33 -41 26 -62 -10 -112 9 -106 40
5 29 0 30 -33 4 -34 -27 -48 -25 -52 7 -2 14 -10 28 -18 31 -12 4 -13 2 -2 -9
18 -20 15 -33 -15 -64 -43 -42 -122 -78 -174 -79 -44 -1 -48 2 -115 70 -166
171 -165 170 -85 209 33 15 62 34 65 42 5 11 1 11 -22 -1 -61 -31 -133 -46
-153 -32 -23 16 -16 22 81 71 30 15 66 36 79 47 24 18 24 18 41 -9 14 -23 15
-29 4 -36 -8 -4 -14 -13 -14 -19 0 -6 11 -3 25 6 26 17 51 21 57 8 4 -11 205
-192 212 -192 3 0 6 9 6 20 0 13 -7 20 -20 20 -11 0 -23 6 -26 13 -2 7 -40 41
-84 76 l-80 64 25 34 c29 37 14 37 -38 -1 -27 -20 -27 -20 -42 0 -19 26 -19
26 15 59 46 44 36 49 -22 11 -29 -18 -70 -41 -90 -50 -20 -10 -42 -24 -49 -32
-6 -8 -22 -14 -35 -14 -12 0 -26 -4 -29 -10 -8 -12 -55 -13 -73 -1 -15 9 29
51 54 51 7 0 14 4 16 9 3 8 112 71 122 71 2 0 6 -9 9 -20 3 -11 12 -20 21 -20
19 0 20 4 4 30 -10 15 -9 23 6 39 22 24 18 26 -18 10 -22 -11 -29 -6 -88 53
-34 36 -78 73 -96 82 -18 9 -30 21 -27 25 3 5 -3 12 -13 16 -9 3 -31 16 -48
28 -30 20 -31 22 -17 44 14 21 14 23 0 23 -9 0 -22 -7 -31 -15 -21 -22 -33
-19 -40 11 -5 17 -2 32 9 43 34 38 5 32 -54 -11 -13 -10 -28 -18 -33 -18 -5 0
-5 7 0 18 5 9 7 23 5 30 -3 8 7 27 23 43 37 38 26 46 -21 14 -43 -29 -55 -31
-55 -10 0 8 5 15 10 15 6 0 10 5 10 11 0 7 -9 9 -23 5 -18 -4 -27 0 -37 19 -7
14 -21 27 -32 31 -10 3 -18 10 -18 15 0 5 -9 9 -21 9 -11 0 -27 7 -35 15 -18
18 -60 20 -70 3z m246 -163 c0 -8 5 -15 10 -15 7 0 7 -6 0 -20 -6 -11 -18 -20
-28 -20 -13 0 -14 -2 -4 -9 23 -14 -51 -7 -76 7 -23 13 -23 14 30 42 62 34 68
35 68 15z m147 -130 c59 -52 73 -64 154 -123 46 -34 92 -72 101 -86 17 -24 17
-24 -35 -51 -29 -15 -63 -34 -77 -41 -33 -18 -85 -18 -104 1 -8 8 -19 15 -25
15 -6 0 -11 6 -11 13 0 7 -23 37 -51 67 -28 30 -57 70 -65 88 -8 18 -21 35
-29 39 -31 11 -14 38 43 70 70 39 65 38 99 8z M5091 1616 c13 -14 27 -22 32
-19 10 6 -27 43 -44 43 -6 0 -1 -11 12 -24z M4366 973 c-11 -11 -6 -23 9 -23
8 0 15 4 15 9 0 13 -16 22 -24 14z M4270 904 c0 -17 28 -49 36 -41 4 4 -2 17
-14 30 -12 12 -22 17 -22 11z M4320 843 c1 -11 30 -44 60 -68 16 -13 11 -4
-14 28 -38 47 -46 54 -46 40z M4436 775 c4 -8 15 -15 25 -15 23 0 25 16 3 24
-25 10 -34 7 -28 -9z"/>
</g>
<g transform="translate(0.000000,303.000000) scale(0.100000,-0.100000)"
fill="#fbf2cd" stroke="none">
<path d="M2663 2853 c9 -2 23 -2 30 0 6 3 -1 5 -18 5 -16 0 -22 -2 -12 -5z
M2010 2644 c-51 -27 -137 -64 -151 -65 -25 -1 -194 -100 -219 -128 -7 -9 -79
-41 -90 -41 -6 0 -29 -9 -53 -19 -23 -11 -60 -25 -82 -31 -22 -7 -79 -38 -125
-71 -47 -33 -155 -94 -240 -138 -85 -43 -195 -104 -245 -135 -49 -31 -107 -66
-128 -79 -33 -20 -98 -61 -312 -199 -100 -65 -285 -259 -285 -300 0 -17 28 -6
37 15 18 37 64 86 77 81 11 -4 52 33 51 47 0 14 29 39 45 39 21 0 73 47 66 59
-4 5 2 7 12 4 10 -2 24 3 31 11 8 9 19 16 26 16 6 0 19 8 28 18 19 20 23 37 7
27 -16 -10 -12 1 6 15 12 11 15 11 12 -1 -2 -10 9 -15 36 -17 36 -3 38 -2 26
13 -10 12 -10 19 -2 27 7 7 12 8 12 3 0 -5 6 -1 13 10 12 16 18 16 47 7 31
-11 32 -11 28 12 -3 16 -1 23 7 19 7 -2 22 8 34 24 38 51 42 54 64 48 17 -5
19 -4 7 4 -13 9 -12 11 3 11 10 0 16 4 13 9 -3 5 2 12 12 16 16 8 26 10 64 13
10 1 28 12 39 23 12 12 51 31 88 43 37 13 65 27 64 34 -2 7 2 12 9 12 7 0 24
12 39 26 14 14 33 26 40 28 22 4 79 42 73 49 -3 3 22 12 56 19 36 7 72 22 86
35 13 12 42 28 64 34 22 7 40 18 40 25 0 6 19 22 43 34 23 12 51 31 63 41 11
11 32 22 45 24 13 3 25 9 27 15 2 5 14 10 26 10 13 0 31 9 42 21 10 11 48 35
84 53 68 34 112 58 120 66 11 11 73 40 85 40 14 0 71 48 64 53 -2 2 -15 -2
-29 -9z M3520 2609 c0 -5 8 -13 18 -16 9 -4 54 -30 99 -60 44 -29 85 -53 91
-53 5 0 15 -7 22 -15 7 -8 16 -12 21 -9 5 3 9 1 9 -3 0 -5 20 -17 44 -28 24
-11 42 -23 40 -27 -3 -5 7 -8 21 -8 23 0 17 7 -46 55 -40 31 -98 67 -129 81
-30 15 -85 41 -122 59 -38 18 -68 29 -68 24z M3910 2370 c0 -13 28 -32 38 -26
5 3 20 -9 32 -27 22 -31 60 -57 86 -57 8 0 11 -9 9 -20 -3 -13 2 -23 13 -27 9
-3 29 -17 45 -31 15 -14 27 -21 27 -14 0 6 10 17 23 23 20 11 21 11 9 -4 -11
-13 -11 -19 0 -36 17 -28 32 -26 52 4 16 24 15 25 -32 62 -48 38 -68 49 -177
99 -33 15 -68 34 -78 42 -20 18 -47 25 -47 12z M3467 2223 c4 -10 17 -33 30
-52 13 -19 23 -40 23 -47 0 -8 11 -16 24 -20 16 -4 23 -11 19 -20 -7 -19 6
-18 45 6 39 24 39 29 5 62 -36 32 -93 71 -93 63 0 -4 -7 1 -16 9 -21 22 -45
21 -37 -1z M4256 2161 c-3 -4 10 -17 29 -27 19 -10 35 -22 35 -26 0 -11 50
-58 61 -58 13 0 68 -57 62 -64 -13 -13 47 -35 85 -32 48 5 51 2 20 -25 l-23
-18 24 -1 c13 0 29 -6 35 -14 6 -8 22 -17 35 -21 21 -7 23 -5 19 19 -4 21 -3
24 8 15 8 -6 14 -20 14 -30 0 -20 40 -36 59 -24 6 3 11 1 11 -5 0 -6 4 -9 9
-6 5 3 14 -7 21 -23 6 -16 18 -32 26 -35 8 -3 14 -12 14 -21 0 -8 5 -15 11
-15 7 0 18 -8 25 -17 8 -12 26 -18 51 -18 32 0 40 -5 53 -30 14 -29 15 -29 18
-7 5 31 33 21 80 -27 33 -34 34 -36 14 -39 -34 -5 -26 -16 23 -33 25 -9 45
-13 45 -8 0 5 11 11 24 15 18 4 32 -3 60 -31 20 -20 45 -37 56 -38 11 -1 21
-11 25 -26 5 -20 8 -22 16 -10 7 12 9 12 10 -1 1 -8 1 -19 0 -23 -1 -5 3 -6 9
-2 5 3 10 -1 10 -9 0 -9 7 -16 15 -16 8 0 15 -3 15 -7 1 -5 12 -21 26 -38 l26
-30 -18 34 c-28 52 -146 173 -214 220 -33 22 -62 41 -64 41 -2 0 -65 40 -139
90 -75 49 -173 111 -217 137 -45 26 -93 56 -108 65 -15 10 -34 21 -42 25 -8 4
-43 24 -77 45 -35 20 -74 40 -88 44 -14 3 -25 10 -25 14 0 4 -24 20 -52 35
-29 15 -62 36 -74 46 -23 21 -30 23 -38 10z m855 -540 c11 -10 17 -21 12 -24
-5 -3 -19 5 -32 19 -27 28 -10 33 20 5z M3622 2070 l-52 -28 25 -16 c22 -15
31 -15 61 -4 34 12 67 48 44 48 -5 0 -10 7 -10 15 0 20 -6 19 -68 -15z M3751
2046 c-6 -7 -38 -25 -71 -40 -68 -31 -74 -42 -26 -51 47 -9 120 27 111 56 -4
11 -1 26 5 34 7 9 8 15 2 15 -5 0 -15 -6 -21 -14z M3738 1947 c-57 -32 -74
-59 -43 -70 8 -4 21 -21 29 -39 8 -18 37 -58 65 -88 28 -30 51 -60 51 -67 0
-7 5 -13 11 -13 6 0 17 -7 25 -15 19 -19 71 -19 104 -1 14 7 48 26 77 41 52
27 52 27 35 51 -9 14 -55 52 -101 86 -81 59 -95 71 -154 123 -34 30 -29 31
-99 -8z M4060 1678 c-30 -16 -56 -34 -58 -39 -2 -5 -9 -9 -16 -9 -25 0 -69
-42 -54 -51 18 -12 65 -11 73 1 3 6 15 10 26 10 11 0 35 11 52 24 18 13 42 27
55 31 25 7 29 20 7 29 -8 3 -15 12 -15 21 0 20 -6 19 -70 -17z M4149 1632
c-13 -11 -49 -32 -79 -47 -97 -49 -104 -55 -81 -71 20 -14 92 1 153 32 23 12
27 12 22 1 -3 -8 -32 -27 -65 -42 -80 -39 -81 -38 85 -209 67 -68 71 -71 115
-70 52 1 131 37 174 79 44 44 45 41 -103 175 -58 52 -106 98 -108 102 -6 13
-31 9 -57 -8 -14 -9 -25 -12 -25 -6 0 6 6 15 14 19 11 7 10 13 -4 36 -17 27
-17 27 -41 9z M54 1374 c-8 -20 -14 -42 -12 -50 2 -7 10 9 20 36 19 58 14 67
-8 14z M4499 1293 c-23 -17 -51 -34 -94 -57 -35 -19 -85 -59 -85 -69 0 -5 11
-18 25 -29 14 -11 25 -28 24 -37 -4 -42 4 -57 39 -79 40 -25 72 -71 72 -104 0
-11 14 -33 31 -49 27 -25 31 -35 26 -63 -3 -19 0 -43 8 -57 16 -27 32 -62 46
-98 7 -18 13 -21 21 -13 19 19 28 14 28 -18 0 -35 27 -70 53 -70 17 0 18 -2 6
-16 -12 -14 -9 -20 16 -40 35 -28 57 -30 115 -9 24 8 45 13 48 10 6 -6 -38
-43 -60 -50 -28 -10 -23 -38 5 -30 35 11 128 55 172 83 140 89 192 126 253
184 37 35 55 70 35 67 -34 -5 -42 2 -36 31 7 37 -18 70 -53 70 -17 0 -25 7
-30 25 -3 14 -15 30 -25 36 -11 5 -19 15 -19 22 0 7 -9 17 -19 22 -62 32 -141
81 -141 87 0 4 -15 14 -32 22 -18 7 -49 29 -68 47 -19 19 -59 52 -87 74 -40
29 -53 45 -53 65 0 24 -3 25 -40 22 -27 -3 -58 3 -90 17 -59 25 -61 26 -91 4z"/>
</g>
<g transform="translate(0.000000,303.000000) scale(0.100000,-0.100000)"
fill="#eebe1e" stroke="none">
<path d="M2843 2843 c9 -2 23 -2 30 0 6 3 -1 5 -18 5 -16 0 -22 -2 -12 -5z
M3130 2805 c0 -2 10 -10 22 -16 27 -15 94 -31 82 -20 -11 10 -104 42 -104 36z
M2720 2790 c0 -5 21 -10 48 -9 35 0 42 3 27 9 -28 12 -75 12 -75 0z M3260
2750 c0 -5 5 -10 11 -10 5 0 8 -4 5 -9 -4 -5 3 -7 14 -4 19 5 20 6 3 19 -22
16 -33 18 -33 4z M3130 2738 c19 -5 43 -14 53 -19 9 -5 17 -5 17 -1 0 13 -48
32 -78 31 -25 -1 -24 -2 8 -11z M2200 2731 c0 -15 29 -45 36 -38 4 3 -3 16
-15 28 -12 13 -21 17 -21 10z M2147 2709 c-21 -11 -35 -24 -32 -29 9 -14 10
-13 47 20 38 35 36 36 -15 9z M2134 2665 c-10 -8 -14 -14 -9 -15 15 0 40 18
34 24 -3 3 -14 -1 -25 -9z M2080 2660 c-13 -8 -13 -10 2 -10 9 0 20 5 23 10 8
13 -5 13 -25 0z M3430 2662 c0 -7 5 -12 11 -12 5 0 8 -4 5 -9 -3 -5 5 -16 17
-24 13 -8 29 -33 36 -55 13 -37 12 -43 -8 -76 -13 -20 -39 -50 -59 -67 -20
-17 -28 -26 -16 -21 30 15 92 87 99 114 3 13 -2 41 -11 63 -17 41 -74 108 -74
87z M2042 2603 c-12 -40 -3 -34 16 10 6 15 8 27 3 27 -4 0 -13 -16 -19 -37z
M2385 2350 c19 -8 73 -14 64 -6 -2 2 -22 6 -44 9 -28 5 -34 4 -20 -3z M3208
2325 c-56 -16 -168 -25 -321 -27 -76 -1 -98 -4 -67 -8 54 -7 40 -15 -55 -29
-38 -6 -71 -15 -73 -21 -6 -16 -132 -13 -132 3 0 15 -67 50 -80 42 -4 -3 -40
2 -79 10 -39 8 -75 14 -79 14 -20 -3 -33 2 -27 11 4 6 -7 10 -24 10 -17 0 -31
-4 -31 -10 0 -5 -9 -10 -20 -10 -11 0 -21 -3 -21 -7 -1 -5 -3 -18 -4 -31 -1
-12 -10 -31 -19 -41 -9 -9 -16 -23 -16 -29 0 -7 -17 -12 -44 -12 -54 0 -76 -8
-76 -26 0 -9 12 -14 38 -15 20 0 30 -3 22 -6 -8 -3 -18 -11 -22 -17 -5 -8 -8
-7 -8 2 0 6 -9 12 -20 12 -11 0 -20 -4 -20 -10 0 -5 7 -10 15 -10 8 0 15 -4
15 -8 0 -5 18 -17 40 -27 23 -10 37 -22 33 -26 -8 -8 -81 3 -117 17 -13 5 -17
4 -13 -3 4 -6 1 -14 -5 -16 -10 -4 -10 -6 0 -6 7 -1 10 -5 7 -11 -3 -5 -1 -10
5 -10 6 0 27 -7 47 -15 63 -26 25 -36 -55 -14 -69 19 -104 19 -73 0 11 -7 11
-10 0 -14 -11 -4 -10 -6 2 -6 19 -1 99 -39 99 -48 0 -12 -100 6 -141 26 -46
22 -60 21 -39 -4 11 -13 9 -15 -10 -13 -13 2 -26 -4 -31 -14 -5 -10 -13 -26
-18 -35 -4 -10 -18 -19 -29 -21 -12 -2 -28 -12 -36 -23 -8 -12 -22 -19 -33
-17 -29 4 -53 -20 -53 -53 0 -26 -3 -29 -32 -30 -33 0 -32 0 17 -25 28 -13 55
-32 62 -41 7 -9 26 -16 43 -17 17 -1 30 -6 30 -13 0 -7 9 -13 19 -13 11 0 23
-4 26 -10 15 -24 -126 4 -161 32 -6 4 -19 6 -28 2 -11 -4 -16 -1 -16 10 0 9
-5 16 -11 16 -5 0 -7 -4 -4 -10 4 -6 -8 -10 -27 -11 l-33 -1 38 -15 c20 -9 37
-20 37 -24 0 -5 7 -9 15 -9 9 0 37 -10 63 -23 26 -13 66 -29 90 -37 23 -7 42
-17 42 -23 0 -5 -7 -6 -16 -3 -9 4 -37 11 -63 18 -25 6 -57 16 -71 23 -14 7
-40 15 -59 19 -19 3 -42 13 -50 20 -17 15 -91 33 -91 22 0 -27 125 -105 168
-106 9 0 26 -7 36 -15 11 -8 30 -15 42 -15 13 0 26 -4 29 -10 14 -23 -72 -2
-191 45 -34 14 -72 25 -83 25 -12 0 -21 6 -21 15 0 21 -17 19 -30 -5 -6 -11
-19 -20 -29 -20 -10 0 -21 -9 -24 -20 -4 -15 -14 -20 -40 -20 -33 0 -35 -2
-39 -37 -3 -21 -1 -39 3 -41 5 -2 4 -12 -1 -22 -17 -31 -40 -49 -56 -43 -15 5
-54 -22 -54 -39 0 -4 7 -8 16 -8 8 0 12 -4 9 -10 -3 -5 -19 -7 -34 -4 -16 4
-32 1 -35 -5 -4 -6 -18 -11 -32 -11 -13 0 -24 -4 -24 -10 0 -5 7 -10 16 -10 8
0 12 -5 9 -10 -3 -5 -16 -10 -27 -10 -11 0 -34 -13 -50 -30 -15 -17 -35 -30
-43 -30 -8 0 -15 -8 -15 -17 -1 -26 -36 -65 -57 -63 -45 5 -63 0 -63 -19 0
-11 -9 -23 -20 -26 -11 -3 -20 -11 -20 -16 0 -5 -7 -9 -15 -9 -9 0 -18 -7 -21
-15 -4 -8 -13 -15 -20 -15 -26 0 -98 -42 -123 -71 -13 -16 -31 -29 -39 -29 -8
0 -32 -10 -54 -22 -29 -17 -41 -19 -47 -10 -5 8 -22 10 -54 6 -26 -4 -45 -10
-42 -13 2 -4 0 -13 -5 -21 -8 -13 -11 -12 -23 4 -14 19 -14 19 -25 0 -9 -14
-12 -15 -12 -4 -1 10 -4 9 -10 -5 -8 -19 -9 -19 -9 2 -1 12 5 24 12 26 9 4 8
8 -3 16 -23 16 -28 13 -22 -14 5 -27 -6 -32 -28 -12 -8 6 -1 -3 15 -22 28 -31
70 -63 139 -105 17 -10 38 -27 47 -37 9 -10 27 -19 39 -19 12 0 33 -11 45 -25
12 -15 31 -27 43 -28 11 0 19 -4 16 -8 -6 -10 134 -81 146 -74 5 3 18 -3 29
-14 11 -11 21 -15 23 -10 2 6 24 2 53 -10 28 -11 44 -20 38 -20 -20 -1 -15
-21 5 -21 9 0 29 -6 44 -14 16 -9 30 -10 36 -4 6 6 20 0 39 -16 18 -15 37 -23
49 -20 11 3 29 -3 42 -14 13 -12 31 -18 42 -15 11 3 27 -2 35 -11 11 -10 32
-16 58 -15 23 1 32 4 20 6 -13 2 -23 8 -23 13 0 5 -15 12 -33 15 -17 4 -40 16
-50 26 -10 11 -22 19 -27 19 -6 0 -10 6 -10 13 0 11 10 11 52 3 40 -8 52 -8
56 2 2 6 11 12 20 12 15 0 15 1 0 17 -14 13 -20 14 -32 3 -14 -11 -16 -9 -16
10 0 16 4 20 16 16 36 -14 84 30 84 78 0 28 4 36 18 36 9 0 25 12 34 27 l16
27 13 -27 c14 -31 25 -34 33 -9 7 20 89 92 105 92 19 0 51 39 45 54 -3 9 3 20
15 28 12 7 21 21 21 30 0 13 8 18 30 18 28 0 30 2 30 40 0 28 4 40 14 40 8 0
18 9 21 20 9 27 57 59 63 42 5 -17 39 -15 46 3 3 8 12 15 21 15 8 0 15 4 15 9
0 11 233 1 241 -11 7 -11 93 -24 239 -37 63 -6 164 -15 224 -21 75 -7 112 -8
120 0 6 6 6 10 0 10 -57 0 -413 43 -459 55 -33 8 -95 17 -138 20 -52 3 -83 9
-93 20 -8 8 -28 15 -44 15 -47 0 -43 15 15 65 31 26 55 55 55 66 0 10 6 19 14
19 8 0 16 7 20 15 3 8 1 15 -4 15 -5 0 -7 7 -4 15 7 18 30 20 37 3 4 -8 8 -4
12 10 4 12 14 22 21 22 8 0 14 6 14 13 0 21 42 33 90 25 144 -23 295 -38 365
-37 101 0 73 15 -58 29 -140 15 -227 31 -227 41 0 5 -9 9 -20 9 -11 0 -20 5
-20 11 0 8 19 10 63 5 152 -15 310 -24 402 -23 96 1 97 1 20 4 -44 2 -82 8
-85 13 -3 5 -58 12 -123 16 -64 4 -117 10 -117 14 0 4 -25 10 -55 13 -82 8
-101 23 -41 32 34 5 50 4 56 -4 4 -8 30 -12 66 -11 32 1 130 -2 217 -6 100 -4
157 -3 157 3 0 11 -93 23 -176 23 -29 0 -64 4 -79 10 -14 5 -58 11 -97 12 -59
3 -76 7 -95 26 -12 12 -35 22 -50 23 -27 0 -28 1 -5 11 12 6 22 18 22 27 0 9
17 27 38 41 20 14 43 31 51 38 36 34 62 46 71 32 7 -12 12 -11 29 4 20 18 20
18 27 -8 9 -37 24 -32 24 9 0 31 -3 35 -27 35 -52 0 -62 18 -15 26 24 4 42 12
42 20 0 9 24 12 103 10 69 -2 101 -7 99 -15 -1 -6 7 -11 19 -11 13 0 19 5 16
13 -5 12 8 13 149 7 29 -2 57 1 64 5 6 4 56 8 110 9 l98 1 10 -29 c9 -23 14
-27 26 -17 11 9 15 7 20 -12 4 -17 17 -27 46 -36 36 -11 45 -22 42 -52 -1 -3
10 -4 23 -1 17 3 36 -5 64 -27 21 -17 46 -31 55 -31 9 0 16 -4 16 -10 0 -5 -6
-10 -14 -10 -11 0 -13 -10 -9 -40 6 -39 5 -40 -26 -40 -17 0 -31 -4 -31 -10 0
-11 21 -13 83 -10 31 1 37 -2 37 -18 0 -11 -9 -22 -20 -25 -45 -12 -19 -28 40
-26 68 3 100 -14 59 -30 -13 -5 -27 -7 -31 -4 -5 2 -8 0 -8 -6 0 -5 -19 -12
-42 -14 -36 -4 -34 -4 12 -4 65 0 96 -8 124 -34 22 -21 32 -23 41 -9 11 18 32
10 44 -16 6 -15 10 -29 7 -32 -9 -9 26 -67 58 -93 25 -22 28 -29 18 -41 -6 -8
-9 -18 -5 -21 3 -4 1 -7 -5 -7 -7 0 -12 -9 -12 -20 0 -15 7 -20 29 -20 34 0
79 -46 88 -91 7 -36 43 -48 43 -14 0 13 6 26 13 28 7 3 5 6 -5 6 -19 1 -26 31
-8 31 6 0 10 -4 10 -9 0 -5 10 -13 23 -17 29 -9 68 -40 60 -48 -3 -3 1 -6 11
-6 9 0 14 -5 11 -10 -3 -6 7 -30 24 -55 44 -65 54 -85 42 -85 -6 0 -22 22 -36
49 -29 58 -84 86 -112 58 -20 -19 -19 -98 1 -138 23 -45 21 -47 -30 -41 -44 5
-46 4 -42 -19 2 -15 10 -24 21 -24 33 0 61 -80 32 -91 -19 -8 -55 23 -55 45 0
9 -9 34 -20 56 -24 47 -27 125 -6 125 8 0 18 -4 21 -10 11 -17 35 -11 35 10 0
31 -55 55 -91 40 -28 -12 -29 -15 -24 -64 2 -28 13 -70 25 -93 11 -23 20 -50
20 -60 0 -10 14 -33 31 -51 34 -36 67 -36 104 -1 17 16 18 23 7 52 -17 46 -16
63 2 48 12 -10 14 0 11 69 -3 70 -1 80 14 80 11 0 26 -17 39 -44 24 -47 40
-136 26 -136 -17 0 -54 31 -54 45 0 8 -4 16 -8 19 -5 3 -8 -11 -8 -30 3 -61
61 -101 118 -79 16 6 9 100 -10 148 -7 16 -8 26 -3 22 5 -3 15 -22 21 -43 23
-76 43 -112 62 -112 20 0 23 16 8 56 -6 15 -7 31 -2 36 12 12 42 -1 42 -19 0
-13 -3 -13 -16 -2 -13 10 -12 6 3 -24 13 -26 25 -37 43 -38 l25 -1 -27 -11
c-20 -8 -27 -17 -27 -36 2 -43 30 -101 50 -101 10 0 20 -3 23 -8 2 -4 22 -7
43 -6 52 3 75 -11 33 -20 -26 -5 -30 -9 -21 -19 6 -8 8 -17 4 -20 -3 -4 1 -7
10 -7 10 0 17 -7 17 -15 0 -18 20 -19 55 -3 21 9 28 9 34 -1 21 -34 105 -50
98 -19 -4 19 63 34 74 17 7 -11 9 -11 9 -1 0 7 7 21 16 29 13 13 13 17 2 24
-7 5 -8 9 -3 10 26 2 -35 18 -72 18 -23 1 -44 5 -47 10 -3 5 -15 7 -27 4 -16
-4 -17 -8 -7 -14 16 -10 -11 -13 -36 -3 -20 8 -9 34 14 34 11 0 22 4 25 10 3
5 -3 10 -15 10 -14 0 -26 12 -38 37 -9 21 -23 42 -30 46 -8 6 -10 13 -4 20 13
18 -18 167 -35 167 -7 0 -13 9 -13 20 0 11 -4 28 -9 38 -6 9 -13 38 -16 64 -7
57 -45 108 -81 108 -13 0 -24 -5 -24 -11 0 -6 6 -9 13 -6 7 3 28 -8 47 -24 19
-16 30 -29 23 -29 -7 0 -9 -9 -4 -27 4 -16 2 -46 -5 -70 -12 -41 -12 -43 7
-43 11 0 22 -7 25 -15 4 -8 12 -15 20 -15 8 0 14 -10 14 -22 0 -15 -3 -19 -8
-11 -6 9 -16 7 -40 -7 -37 -23 -42 -24 -42 -9 0 10 -168 211 -182 217 -11 5
-10 32 1 32 5 0 21 -16 35 -35 15 -20 31 -33 36 -30 5 3 11 1 15 -5 3 -5 1
-10 -6 -10 -8 0 -8 -4 1 -15 7 -8 17 -12 23 -8 5 3 7 2 4 -4 -3 -5 12 -31 33
-57 22 -27 40 -52 40 -57 0 -11 11 -11 30 1 12 8 11 12 -8 30 -12 11 -22 32
-22 45 0 15 -9 29 -22 36 -29 15 -39 31 -28 44 4 5 10 24 12 40 3 28 0 30 -31
33 -28 3 -33 1 -27 -13 3 -9 6 -20 6 -23 0 -4 5 0 10 8 14 22 30 0 19 -28 -7
-20 -11 -21 -29 -10 -11 7 -20 16 -20 21 0 4 -4 6 -8 3 -5 -3 -7 15 -6 39 3
49 -10 67 -30 39 -20 -26 -30 1 -11 29 16 26 11 57 -10 57 -7 0 -18 6 -24 14
-9 11 -4 18 28 33 22 11 38 23 34 27 -3 3 -11 2 -17 -3 -17 -13 -86 -1 -86 15
0 8 -18 32 -40 54 -22 22 -40 36 -40 30 0 -5 -7 -10 -16 -10 -10 0 -14 7 -12
23 3 19 -1 22 -26 20 -27 -2 -28 0 -23 32 4 24 1 35 -9 39 -8 3 -14 15 -14 26
0 14 -7 20 -21 20 -12 0 -19 5 -16 13 9 24 -13 44 -53 51 -26 4 -38 10 -34 17
4 7 1 10 -7 7 -25 -9 -49 13 -73 66 -13 30 -30 58 -38 62 -8 5 -25 30 -38 57
-13 26 -30 47 -38 47 -11 0 -12 3 -2 15 17 20 5 47 -30 67 -34 19 -51 65 -29
79 11 7 10 9 -5 9 -12 0 -16 5 -12 16 4 11 -1 18 -14 21 -11 3 -20 12 -20 19
0 8 -7 14 -15 14 -8 0 -15 5 -15 10 0 6 5 10 11 10 5 0 8 4 4 10 -3 5 -12 7
-20 3 -22 -8 -19 23 3 33 14 6 11 8 -13 13 -23 5 -32 14 -39 38 -10 34 -36 53
-36 28 0 -8 -5 -15 -11 -15 -12 0 -9 32 9 86 9 28 8 31 -9 27 -10 -3 -19 -14
-19 -25 0 -11 -4 -16 -11 -12 -6 3 -8 16 -5 28 7 29 -24 56 -67 56 -17 0 -50
7 -72 14 l-40 14 35 15 c42 18 31 19 -32 2z m-138 -35 c0 -6 -38 -9 -97 -8
l-98 2 90 6 c50 3 93 7 98 8 4 1 7 -2 7 -8z m-66 -349 c4 -5 1 -13 -6 -17 -21
-13 -390 -25 -459 -15 -55 8 -49 8 46 4 63 -3 127 0 150 6 l40 10 -47 -5 c-25
-3 -70 -2 -100 3 -51 7 -52 8 -18 13 67 10 388 12 394 1z m-46 -65 c89 -1 162
2 162 6 0 4 24 8 53 7 45 0 49 -2 27 -11 -14 -5 -33 -14 -42 -19 -10 -5 -40
-9 -68 -9 -30 0 -50 -4 -50 -11 0 -8 -40 -10 -142 -5 -244 10 -338 18 -338 27
0 5 -11 9 -25 9 -14 0 -25 5 -25 11 0 8 39 10 143 4 78 -4 215 -8 305 -9z
m-413 -76 c-3 -5 -19 -10 -36 -10 -16 0 -29 5 -29 10 0 6 16 10 36 10 21 0 33
-4 29 -10z m-90 -40 c-3 -5 -17 -10 -31 -10 -13 0 -24 5 -24 10 0 6 14 10 31
10 17 0 28 -4 24 -10z m-135 -220 c0 -5 -10 -10 -22 -10 -19 0 -20 2 -8 10 19
13 30 13 30 0z m1600 -420 c0 -5 -7 -10 -16 -10 -8 0 -12 5 -9 10 3 6 10 10
16 10 5 0 9 -4 9 -10z m299 -190 c15 -21 31 -37 34 -34 5 6 38 -49 37 -61 -1
-7 28 -36 35 -35 7 0 8 -7 3 -22 -4 -12 -67 49 -68 65 0 5 -6 15 -12 22 -7 8
-24 30 -38 49 -20 29 -50 48 -50 32 0 -4 35 -45 98 -115 23 -27 42 -53 42 -59
0 -14 35 -34 44 -24 4 4 16 -4 26 -18 29 -37 24 -50 -5 -15 -13 17 -24 25 -25
18 0 -6 5 -15 10 -18 6 -4 8 -10 5 -15 -8 -13 -125 116 -125 139 0 9 -30 31
-43 31 -3 0 0 -11 6 -24 8 -17 14 -21 20 -13 6 8 7 7 4 -3 -6 -19 18 -66 40
-78 15 -9 15 -11 0 -26 -9 -10 -18 -12 -22 -6 -3 5 -1 10 4 10 6 0 11 4 11 10
0 5 -5 9 -11 7 -13 -3 -21 10 -55 88 -14 33 -30 68 -36 78 -7 14 -5 24 8 38
24 26 30 24 63 -21z m-104 -61 c11 -17 2 -18 -19 -3 -17 12 -17 14 -4 14 9 0
20 -5 23 -11z m-3685 -3 c0 -2 -7 -9 -15 -16 -12 -10 -15 -10 -15 4 0 9 7 16
15 16 8 0 15 -2 15 -4z m3735 -76 c29 -57 35 -99 10 -66 -8 11 -15 30 -15 43
0 13 -4 23 -8 23 -5 0 -14 11 -20 25 -22 47 7 26 33 -25z m333 -72 c19 -19 15
-48 -7 -48 -25 0 -32 11 -24 38 6 25 14 27 31 10z m-230 -43 c6 -14 8 -25 3
-25 -4 0 -13 11 -19 25 -6 14 -8 25 -3 25 4 0 13 -11 19 -25z m-112 -36 c3 -5
-4 -9 -14 -9 -11 0 -22 6 -25 14 -6 15 29 11 39 -5z m-3266 -77 c0 -4 -9 -8
-20 -9 -22 -2 -27 13 -7 20 14 5 27 -1 27 -11z m-21 -26 c14 -8 39 -19 55 -25
16 -7 27 -14 24 -16 -7 -8 -136 45 -149 61 -10 13 -8 13 16 4 15 -6 40 -17 54
-24z m3568 8 c-9 -9 -28 6 -21 18 4 6 10 6 17 -1 6 -6 8 -13 4 -17z m-3487
-14 c26 -16 4 -21 -26 -5 -23 12 -25 15 -9 15 11 0 27 -4 35 -10z m115 -44
c22 -8 36 -16 30 -17 -34 -6 -73 -5 -90 3 -15 6 -13 7 8 3 19 -4 26 -2 22 5
-3 5 -15 10 -25 10 -10 0 -22 5 -26 11 -8 14 20 9 81 -15z m123 -3 c2 -8 -5
-13 -17 -13 -12 0 -21 6 -21 16 0 18 31 15 38 -3z m-213 -13 c8 -13 -15 -13
-35 0 -12 8 -11 10 7 10 12 0 25 -4 28 -10z m3692 -33 c-6 -20 -27 -19 -27 2
0 14 5 19 15 14 9 -3 14 -10 12 -16z M2688 2303 c12 -2 30 -2 40 0 9 3 -1 5
-23 4 -22 0 -30 -2 -17 -4z M1577 1793 c-11 -10 -8 -20 8 -27 10 -4 15 1 15
14 0 20 -11 26 -23 13z M4475 1780 c9 -30 13 -35 21 -27 3 3 -2 16 -11 29
l-17 23 7 -25z M4293 1715 c-13 -5 -23 -13 -23 -18 0 -8 35 -4 63 8 9 4 17 12
17 17 0 6 -6 6 -14 -1 -8 -7 -16 -8 -18 -4 -1 5 -13 4 -25 -2z M4640 1645 c0
-10 7 -15 18 -13 21 4 19 22 -2 26 -10 2 -16 -3 -16 -13z M4303 1628 c-20 -26
-26 -41 -15 -34 12 7 36 46 29 46 -3 0 -9 -6 -14 -12z M4423 1615 l-21 -25 28
0 c16 0 31 -6 34 -12 5 -10 7 -10 12 0 12 26 34 13 32 -20 -3 -29 0 -33 25
-36 15 -2 35 -14 44 -26 15 -19 22 -22 40 -13 27 12 30 27 7 27 -11 0 -15 6
-11 20 3 11 1 23 -4 26 -5 3 -8 18 -7 32 2 21 -2 28 -19 30 -16 2 -23 -2 -23
-12 0 -9 7 -16 15 -16 8 0 15 -6 15 -14 0 -8 -7 -16 -15 -20 -10 -4 -15 1 -15
14 0 11 -5 20 -11 20 -6 0 -18 9 -27 20 -28 33 -73 35 -99 5z M3877 1609 c8
-8 16 -8 30 0 16 9 14 10 -11 11 -22 0 -27 -3 -19 -11z M3432 1560 c0 -19 2
-27 5 -17 2 9 2 25 0 35 -3 9 -5 1 -5 -18z M3880 1580 c0 -6 7 -13 15 -17 24
-9 27 1 5 15 -13 8 -20 8 -20 2z M4800 1510 c0 -5 -18 -10 -39 -10 -22 0 -41
-5 -43 -11 -3 -9 -10 -8 -25 1 -28 18 -53 6 -53 -26 0 -22 2 -25 15 -14 16 13
45 7 45 -9 0 -5 -8 -11 -19 -13 -13 -2 -16 -8 -11 -22 6 -19 7 -19 29 3 26 26
37 21 46 -20 9 -40 41 -37 37 4 -4 38 22 63 51 49 21 -10 21 -11 -5 -11 -35
-1 -37 -26 -4 -35 13 -3 31 -9 40 -12 11 -4 16 -1 16 10 0 9 -4 16 -10 16 -27
0 -6 20 23 21 17 0 26 3 20 6 -7 2 -13 16 -13 29 0 14 -4 23 -9 20 -10 -6 -61
16 -61 27 0 4 -7 7 -15 7 -8 0 -15 -4 -15 -10z M4013 1439 c9 -5 17 -16 17
-22 0 -7 9 -19 20 -27 11 -8 20 -18 20 -22 0 -4 11 -18 24 -31 12 -13 25 -29
28 -37 2 -7 9 -11 16 -9 6 2 -5 22 -27 46 -22 23 -51 58 -66 77 -15 20 -32 36
-39 36 -6 0 -3 -5 7 -11z M4595 1420 c3 -5 12 -10 20 -10 8 0 17 5 20 10 4 6
-5 10 -20 10 -15 0 -24 -4 -20 -10z M4951 1313 c-7 -43 -18 -81 -25 -85 -6 -5
-2 -8 12 -8 20 0 22 5 22 55 0 48 3 55 19 55 29 0 31 12 7 38 l-22 22 -13 -77z
M4556 1364 c-9 -24 -7 -28 9 -14 17 14 20 30 6 30 -5 0 -12 -7 -15 -16z M4631
1366 c-8 -9 -10 -16 -5 -17 48 -6 75 -5 80 3 14 23 -57 36 -75 14z M4510 1342
c0 -12 19 -26 26 -19 2 2 -2 10 -11 17 -9 8 -15 8 -15 2z M4160 1265 c0 -10
53 -55 58 -50 6 6 -38 55 -50 55 -4 0 -8 -2 -8 -5z M4305 1210 c-18 -8 -17 -9
8 -9 16 -1 26 3 22 9 -3 6 -7 10 -8 9 -1 0 -11 -4 -22 -9z M5258 1146 c-24
-18 -23 -36 2 -36 15 0 20 7 20 25 0 29 1 29 -22 11z M4316 1075 c17 -25 34
-33 34 -15 0 6 -4 10 -10 10 -5 0 -10 7 -10 15 0 8 -7 15 -15 15 -14 0 -13 -3
1 -25z M5425 995 c-3 -11 -11 -28 -16 -37 -5 -10 -9 -28 -8 -40 0 -15 2 -17 6
-8 2 8 11 30 20 48 8 18 12 38 10 45 -3 7 -8 4 -12 -8z M5277 910 c-3 -11 -1
-20 4 -20 5 0 9 9 9 20 0 11 -2 20 -4 20 -2 0 -6 -9 -9 -20z M5317 846 c-4
-10 -5 -21 -2 -24 9 -9 17 6 13 25 -3 17 -4 17 -11 -1z M1600 810 c0 -11 7
-20 15 -20 8 0 15 9 15 20 0 11 -7 20 -15 20 -8 0 -15 -9 -15 -20z M3758 823
c-11 -3 -19 -18 -23 -41 -3 -20 -8 -49 -10 -64 -2 -15 -1 -30 4 -32 16 -10 19
-56 5 -56 -16 0 -19 -47 -4 -84 10 -28 30 -35 30 -11 0 8 -4 15 -10 15 -13 0
-13 24 2 72 l11 39 24 -27 c15 -18 21 -34 17 -49 -4 -16 0 -24 13 -28 10 -4
26 -12 35 -19 29 -21 33 0 8 45 -13 23 -27 44 -31 47 -3 3 -17 23 -29 44 -22
41 -22 117 1 131 5 4 7 11 4 16 -6 9 -18 10 -47 2z M3626 791 c-3 -4 1 -17 9
-27 8 -11 14 -14 15 -6 0 23 21 12 31 -18 10 -27 39 -43 39 -21 0 19 -21 66
-33 73 -16 10 -55 10 -61 -1z M3560 781 c0 -17 12 -41 21 -41 5 0 9 11 9 25 0
16 -6 25 -15 25 -8 0 -15 -4 -15 -9z M4230 540 c0 -5 -7 -10 -15 -10 -21 0
-19 -23 4 -48 20 -24 46 -29 57 -11 3 6 17 9 30 6 31 -6 31 13 -1 47 -23 25
-75 37 -75 16z m68 -30 c4 -13 3 -13 -11 -2 -13 11 -15 10 -10 -7 4 -14 1 -21
-9 -21 -17 0 -38 20 -38 36 0 17 62 12 68 -6z M4140 511 c0 -18 18 -21 30 -6
10 13 9 15 -9 15 -11 0 -21 -4 -21 -9z M4087 504 c-10 -11 36 -64 55 -64 18 0
18 1 -2 22 -11 12 -20 28 -20 35 0 13 -22 18 -33 7z M4170 466 c0 -9 7 -16 16
-16 9 0 14 5 12 12 -6 18 -28 21 -28 4z M4360 463 c0 -23 15 -39 23 -26 3 5
-1 17 -9 28 -14 18 -14 18 -14 -2z M4060 456 c0 -9 7 -16 16 -16 17 0 14 22
-4 28 -7 2 -12 -3 -12 -12z M4360 405 c-7 -8 -11 -17 -9 -19 14 -11 71 -28 76
-22 3 3 -1 6 -10 6 -20 0 -22 11 -4 29 10 11 9 13 -4 8 -9 -3 -21 -1 -26 4 -6
6 -15 4 -23 -6z M4543 333 c9 -2 23 -2 30 0 6 3 -1 5 -18 5 -16 0 -22 -2 -12
-5z"/>
</g>
<g transform="translate(0.000000,303.000000) scale(0.100000,-0.100000)"
fill="#f6d419" stroke="none">
<path d="M3502 2579 c12 -35 18 -37 18 -5 0 13 -6 26 -14 29 -12 5 -13 1 -4
-24z M3514 2508 c-17 -54 -107 -126 -198 -158 -28 -10 -64 -23 -81 -30 l-30
-12 40 -14 c22 -7 55 -14 72 -14 43 0 74 -27 67 -56 -3 -12 -1 -25 5 -28 7 -4
11 1 11 13 0 12 6 21 14 21 7 0 19 7 26 15 7 8 23 15 36 15 12 0 29 -7 38 -15
8 -8 24 -15 35 -15 12 0 21 -4 21 -9 0 -5 8 -12 18 -15 11 -4 25 -17 32 -31
10 -19 19 -23 37 -19 14 4 23 2 23 -5 0 -6 -4 -11 -10 -11 -5 0 -10 -7 -10
-15 0 -21 12 -19 55 10 47 32 58 24 21 -14 -16 -16 -26 -35 -23 -43 2 -7 0
-21 -5 -30 -5 -11 -5 -18 0 -18 5 0 20 8 33 18 40 28 69 43 69 33 0 -5 -6 -14
-14 -20 -14 -12 -10 -57 5 -67 5 -3 16 2 25 10 8 9 22 16 31 16 14 0 14 -2 0
-23 -14 -22 -13 -24 17 -44 17 -12 39 -25 48 -28 10 -4 16 -11 13 -16 -3 -4 9
-16 27 -25 18 -9 47 -32 64 -50 18 -19 36 -34 41 -34 5 0 17 -14 27 -31 18
-31 24 -32 71 -13 19 7 20 7 2 -13 -15 -17 -16 -25 -7 -42 14 -27 34 -27 71 0
36 25 38 11 3 -24 -14 -14 -24 -34 -22 -43 4 -21 39 -28 53 -10 13 16 55 27
55 15 0 -6 -11 -21 -24 -34 l-24 -23 79 -63 c43 -35 81 -69 83 -76 3 -7 20
-13 38 -14 18 0 27 -3 21 -6 -20 -8 -15 -28 14 -62 33 -38 39 -38 47 -6 4 14
11 25 16 25 13 0 13 -13 0 -28 -7 -9 -7 -9 2 -2 19 16 26 12 21 -14 -10 -49
107 -61 128 -13 l10 22 -5 -22 c-2 -12 1 -24 7 -26 7 -2 11 -16 9 -31 -1 -23
4 -30 28 -39 17 -6 30 -16 30 -22 0 -5 26 -27 59 -48 32 -21 69 -49 82 -61 13
-12 53 -42 89 -66 61 -41 150 -125 150 -142 0 -5 10 -8 23 -8 28 0 70 -51 77
-94 5 -28 6 -29 22 -13 9 9 20 17 25 17 13 0 73 106 73 129 0 12 4 29 9 39 43
85 60 209 27 202 -12 -3 -76 79 -76 96 0 9 -11 14 -28 14 -21 0 -32 7 -40 25
-6 14 -16 25 -21 25 -6 0 -21 10 -34 23 -63 58 -97 87 -102 87 -3 0 -14 8 -24
18 -41 36 -54 45 -147 92 -53 27 -106 59 -119 72 -44 45 -98 83 -129 91 -17 5
-38 16 -46 26 -8 9 -53 42 -100 71 -47 30 -89 60 -93 67 -4 7 -16 13 -26 13
-11 0 -21 7 -25 15 -3 8 -10 15 -17 15 -10 0 -91 61 -114 86 -5 6 -30 26 -55
45 -24 19 -52 41 -61 49 -9 8 -37 31 -63 50 -26 19 -62 47 -81 63 -18 15 -38
27 -44 27 -6 0 -11 7 -11 15 0 9 -9 15 -22 15 -15 0 -29 11 -40 30 -11 18 -22
28 -31 24 -8 -3 -23 5 -34 19 -10 13 -29 27 -41 31 -12 4 -22 12 -22 17 0 5
-11 9 -24 9 -13 0 -26 7 -30 15 -3 8 -17 20 -31 27 -14 6 -25 16 -26 22 0 11
-98 61 -136 69 -16 4 -24 -1 -29 -15z m-57 -184 c7 -18 -14 -35 -37 -31 -8 1
-16 12 -18 25 -3 18 1 22 23 22 14 0 28 -7 32 -16z m1039 -571 c-8 -8 -12 -3
-21 27 l-7 25 17 -23 c9 -13 14 -26 11 -29z m-160 -32 c8 7 14 7 14 1 0 -5 -8
-13 -17 -17 -28 -12 -63 -16 -63 -8 0 12 44 30 48 20 2 -4 10 -3 18 4z m337
-76 c1 -5 -6 -11 -15 -13 -11 -2 -18 3 -18 13 0 17 30 18 33 0z m-151 -35 c9
-11 21 -20 27 -20 6 0 11 -9 11 -20 0 -13 5 -18 15 -14 8 4 15 12 15 20 0 8
-7 14 -15 14 -8 0 -15 7 -15 16 0 10 7 14 23 12 17 -2 21 -9 19 -30 -1 -14 2
-29 7 -32 5 -3 7 -15 4 -26 -4 -14 0 -20 11 -20 23 0 20 -15 -7 -27 -18 -9
-25 -6 -40 13 -9 12 -29 24 -44 26 -25 3 -28 7 -25 36 2 33 -20 46 -32 20 -5
-10 -7 -10 -12 0 -3 6 -18 12 -34 12 l-28 0 21 25 c26 30 71 28 99 -5z m308
-97 c0 -11 51 -33 61 -27 5 3 9 -6 9 -20 0 -13 6 -27 13 -29 6 -3 -3 -6 -20
-6 -29 -1 -50 -21 -23 -21 6 0 10 -7 10 -16 0 -11 -5 -14 -16 -10 -9 3 -27 9
-40 12 -33 9 -31 34 4 35 26 0 26 1 5 11 -29 14 -55 -11 -51 -49 4 -41 -28
-44 -37 -4 -9 41 -20 46 -46 20 -22 -22 -23 -22 -29 -3 -5 14 -2 20 11 22 11
2 19 8 19 13 0 16 -29 22 -45 9 -13 -11 -15 -8 -15 14 0 32 25 44 53 26 15 -9
22 -10 25 -1 2 6 21 11 43 11 21 0 39 5 39 10 0 6 7 10 15 10 8 0 15 -3 15 -7z
m-195 -93 c-3 -5 -12 -10 -20 -10 -8 0 -17 5 -20 10 -4 6 5 10 20 10 15 0 24
-4 20 -10z m368 -82 c-2 -5 -13 -8 -24 -8 -16 0 -19 -7 -19 -55 0 -50 -2 -55
-22 -55 -14 0 -18 3 -12 8 7 4 18 42 25 85 l13 77 22 -22 c12 -13 19 -26 17
-30z m-295 28 c17 -18 -19 -25 -82 -17 -5 1 -3 8 5 17 12 14 62 14 77 0z m572
-231 c0 -18 -5 -25 -20 -25 -25 0 -26 18 -2 36 23 18 22 18 22 -11z m10 -225
c0 -11 -4 -20 -9 -20 -5 0 -7 9 -4 20 3 11 7 20 9 20 2 0 4 -9 4 -20z m36 -87
c-11 -11 -17 4 -9 23 7 18 8 18 11 1 2 -10 1 -21 -2 -24z M2015 2461 c-37 -12
-95 -45 -95 -53 0 -4 -6 -8 -12 -8 -7 0 -38 -13 -68 -30 -30 -16 -63 -29 -74
-30 -10 0 -40 -17 -66 -38 -26 -21 -65 -44 -86 -51 -25 -9 -56 -33 -84 -66
-38 -44 -110 -95 -134 -95 -3 0 -24 -18 -46 -40 -22 -22 -47 -40 -55 -40 -8 0
-15 -4 -15 -10 0 -5 -8 -10 -18 -10 -16 0 -53 -30 -138 -110 -12 -11 -25 -20
-30 -20 -12 0 -142 -80 -155 -96 -6 -8 -20 -14 -30 -14 -11 0 -19 -4 -19 -9 0
-18 -57 -63 -114 -90 -34 -16 -77 -45 -96 -65 -19 -19 -44 -36 -55 -36 -28 0
-42 -11 -54 -43 -7 -17 -25 -33 -51 -44 -22 -10 -40 -21 -40 -25 0 -5 -7 -8
-15 -8 -16 0 -65 -45 -65 -60 0 -5 -18 -20 -40 -32 -22 -13 -40 -29 -40 -35 0
-7 -7 -13 -15 -13 -8 0 -15 -4 -15 -10 0 -5 -13 -10 -29 -10 -24 0 -29 -5 -35
-30 -4 -23 -14 -34 -36 -41 -27 -10 -30 -16 -31 -52 l-1 -42 -10 35 c-9 33
-11 34 -24 15 -19 -26 -18 -45 4 -45 10 0 13 -3 6 -8 -6 -4 -10 -20 -9 -37 3
-45 4 -47 15 -40 6 3 13 -2 16 -12 12 -37 29 -68 46 -84 10 -9 18 -20 18 -24
0 -10 52 -55 64 -55 4 0 6 11 4 25 -6 27 -1 30 22 14 11 -8 12 -12 3 -16 -7
-2 -13 -14 -12 -26 0 -21 1 -21 9 -2 5 12 9 14 9 6 1 -11 4 -10 15 4 13 18 13
18 24 -1 10 -16 13 -17 21 -4 5 8 8 17 6 21 -3 3 16 9 42 13 32 4 49 2 54 -6
6 -9 18 -7 47 10 22 12 46 22 54 22 8 0 26 13 39 29 25 29 97 71 123 71 7 0
16 7 20 15 3 8 12 15 21 15 8 0 15 4 15 9 0 5 9 13 20 16 11 3 20 15 20 26 0
19 18 24 63 19 21 -2 56 37 57 63 0 9 7 17 15 17 8 0 28 14 43 30 16 17 39 30
50 30 11 0 24 5 27 10 3 6 -1 10 -9 10 -9 0 -16 5 -16 10 0 6 11 10 24 10 14
0 28 5 32 11 3 6 19 9 35 5 15 -3 31 -1 34 4 3 6 -1 10 -9 10 -9 0 -16 4 -16
8 0 17 39 44 54 39 16 -6 39 12 56 43 5 10 6 20 1 22 -4 2 -6 20 -3 41 4 35 6
37 39 37 26 0 36 5 40 20 3 11 14 20 24 20 10 0 23 9 29 20 13 24 30 26 30 5
0 -9 9 -15 21 -15 11 0 49 -11 83 -25 119 -47 205 -68 191 -45 -3 6 -16 10
-29 10 -12 0 -31 7 -42 15 -10 8 -27 15 -36 15 -43 1 -168 79 -168 106 0 11
74 -7 91 -22 8 -7 31 -17 50 -20 19 -4 45 -12 59 -19 14 -7 46 -17 71 -23 26
-7 54 -14 63 -18 9 -3 16 -2 16 3 0 6 -19 16 -42 23 -24 8 -64 24 -90 37 -26
13 -54 23 -63 23 -8 0 -15 4 -15 9 0 4 -17 15 -37 24 l-38 15 33 1 c19 1 31 5
27 11 -3 6 -1 10 4 10 6 0 11 -7 11 -16 0 -11 5 -14 16 -10 9 4 22 2 28 -2 35
-28 176 -56 161 -32 -3 6 -15 10 -26 10 -10 0 -19 6 -19 13 0 7 -13 12 -30 13
-17 1 -36 8 -43 17 -7 9 -34 28 -62 41 -49 25 -50 25 -17 25 29 1 32 4 32 30
0 33 24 57 53 53 11 -2 25 5 33 17 8 11 24 21 36 23 11 2 24 10 28 18 22 47
29 55 50 52 19 -2 21 0 10 13 -21 25 -7 26 39 4 41 -20 141 -38 141 -26 0 9
-81 47 -99 47 -13 0 -13 2 -2 9 11 7 11 9 0 13 -8 3 -11 9 -7 12 3 4 39 -1 80
-13 80 -22 118 -12 55 14 -20 8 -41 15 -47 15 -6 0 -9 4 -6 9 4 5 0 12 -6 14
-10 4 -10 6 0 6 7 1 10 6 6 13 -5 8 -2 9 12 4 36 -14 109 -25 117 -17 4 4 -10
16 -33 26 -22 10 -40 22 -40 27 0 4 -7 8 -15 8 -8 0 -15 5 -15 10 0 6 9 10 20
10 11 0 20 -6 20 -12 0 -9 3 -10 8 -2 4 6 14 14 22 17 8 3 -2 6 -22 6 -26 1
-38 6 -38 15 0 18 22 26 76 26 27 0 44 5 44 12 0 6 7 20 16 29 9 10 18 29 19
41 1 13 3 26 4 31 0 4 10 7 21 7 11 0 20 5 20 10 0 6 14 10 31 10 17 0 28 -4
24 -10 -6 -9 7 -14 27 -11 4 0 40 -6 79 -14 39 -8 75 -13 79 -10 13 8 80 -27
80 -42 0 -16 126 -19 132 -3 2 6 37 16 78 22 104 15 106 25 8 33 -147 12 -370
47 -427 67 -31 10 -69 23 -86 27 -16 4 -57 21 -90 37 -33 16 -69 29 -80 30
-11 0 -29 3 -40 6 -11 3 -29 3 -40 -1z m-415 -681 c0 -13 -5 -18 -15 -14 -16
7 -19 17 -8 27 12 13 23 7 23 -13z M2965 2290 l-90 -6 98 -2 c59 -1 97 2 97 8
0 6 -3 9 -7 8 -5 -1 -48 -5 -98 -8z M3422 2190 c-15 -48 -15 -70 -2 -70 6 0
10 7 10 15 0 25 26 6 36 -28 7 -24 16 -33 39 -38 24 -5 27 -7 13 -13 -22 -10
-25 -41 -3 -33 8 4 17 2 20 -3 4 -6 1 -10 -4 -10 -6 0 -11 -4 -11 -10 0 -5 7
-10 15 -10 8 0 15 -6 15 -14 0 -7 9 -16 20 -19 13 -3 18 -10 14 -21 -4 -11 0
-16 12 -16 15 0 16 -2 5 -9 -22 -14 -5 -60 29 -79 35 -20 47 -47 30 -67 -10
-12 -9 -15 2 -15 8 0 25 -21 38 -47 13 -27 30 -52 38 -57 8 -4 25 -32 38 -62
24 -53 48 -75 73 -66 8 3 11 0 7 -7 -4 -7 8 -13 34 -17 40 -7 62 -27 53 -51
-3 -8 4 -13 16 -13 14 0 21 -6 21 -20 0 -11 6 -23 14 -26 10 -4 13 -15 9 -39
-5 -32 -4 -34 23 -32 25 2 29 -1 26 -20 -2 -16 2 -23 12 -23 9 0 16 5 16 10 0
6 18 -8 40 -30 22 -22 40 -46 40 -54 0 -16 69 -28 86 -15 6 5 15 4 20 -1 5 -5
18 -3 33 4 23 13 22 13 -23 25 -26 6 -51 9 -55 6 -13 -8 -61 42 -61 64 0 14
-5 18 -18 14 -12 -3 -22 4 -30 22 -7 14 -19 28 -27 31 -8 4 -15 11 -15 18 0 6
-9 18 -20 26 -11 8 -20 20 -20 27 0 6 -8 16 -17 22 -15 8 -15 11 -3 26 16 20
1 35 -37 35 -26 0 -39 18 -24 33 19 19 12 27 -23 27 -37 0 -57 17 -36 30 8 5
2 12 -19 21 -17 8 -31 19 -31 25 0 11 -25 44 -77 100 -13 14 -23 29 -23 34 0
6 -4 10 -10 10 -5 0 -19 22 -32 50 -14 31 -28 49 -38 47 -16 -2 -22 43 -7 54
5 3 -5 12 -22 19 -34 14 -39 25 -16 38 13 7 7 12 -24 28 -47 22 -50 31 -18 44
21 8 21 9 -5 9 -26 1 -68 44 -68 70 0 6 -9 16 -20 23 -12 8 -20 24 -20 40 0
41 -23 34 -38 -12z M2525 1910 c51 -8 202 -13 194 -6 -2 2 -58 6 -124 8 -75 4
-101 3 -70 -2z M4218 1152 c-28 -18 -23 -42 8 -42 20 0 25 -32 9 -57 -19 -28
-9 -55 11 -29 16 22 38 11 31 -16 -8 -27 10 -71 33 -86 18 -11 22 -10 29 10 6
14 5 27 -1 33 -7 7 -12 6 -15 -2 -4 -10 -8 -9 -19 1 -21 21 -17 42 11 60 l26
17 -21 29 c-15 21 -17 30 -8 30 10 0 9 3 -2 10 -10 6 -11 10 -2 10 6 0 12 7
12 15 0 8 -6 12 -13 9 -8 -3 -20 2 -27 11 -16 20 -29 19 -62 -3z M4360 1000
c-10 -6 -8 -11 9 -19 23 -13 28 -31 9 -31 -16 0 -38 -44 -29 -58 3 -5 16 -14
29 -21 12 -6 22 -20 22 -31 0 -34 12 -50 37 -50 13 0 21 4 18 10 -3 6 -15 10
-25 10 -18 0 -18 3 -6 43 7 24 9 54 5 69 -4 16 -3 28 3 30 6 2 -5 16 -24 30
-22 17 -39 23 -48 18z M4210 970 c0 -16 47 -63 64 -66 10 -1 5 11 -16 37 -31
39 -48 49 -48 29z M4146 941 c-4 -5 -2 -18 3 -28 5 -10 21 -45 35 -78 34 -78
42 -91 55 -88 6 2 11 -2 11 -7 0 -6 -5 -10 -11 -10 -5 0 -7 -5 -4 -10 4 -6 12
-4 22 5 13 14 13 17 -5 33 -20 17 -76 112 -66 112 13 0 44 -22 44 -31 0 -20
115 -151 124 -142 8 8 -25 53 -34 48 -5 -3 -12 5 -16 17 -3 13 -25 44 -48 69
-22 26 -55 64 -72 84 -19 21 -34 32 -38 26z M4096 866 c21 -15 30 -14 19 3 -3
6 -14 11 -23 11 -13 0 -13 -2 4 -14z M400 854 c0 -14 3 -14 15 -4 8 7 15 14
15 16 0 2 -7 4 -15 4 -8 0 -15 -7 -15 -16z M4305 860 c-3 -5 -5 -10 -3 -11 33
-8 38 -7 27 7 -14 17 -16 17 -24 4z M4132 815 c6 -14 15 -25 20 -25 4 0 8 -10
8 -23 0 -13 7 -32 15 -43 25 -33 19 9 -10 66 -26 51 -55 72 -33 25z M4364 796
c1 -8 10 -23 19 -34 9 -10 17 -24 17 -30 0 -16 4 -15 42 9 l33 21 -37 -5 c-34
-5 -67 11 -53 25 3 3 -1 11 -9 17 -11 10 -14 9 -12 -3z M4070 720 c0 -8 5 -22
10 -30 9 -13 10 -13 10 0 0 8 -5 22 -10 30 -9 13 -10 13 -10 0z M4467 708 c-8
-27 -1 -38 24 -38 22 0 26 29 7 48 -17 17 -25 15 -31 -10z M4252 675 c6 -14
15 -25 19 -25 5 0 3 11 -3 25 -6 14 -15 25 -19 25 -5 0 -3 -11 3 -25z M4117
644 c3 -8 14 -14 25 -14 23 0 16 16 -11 23 -14 3 -18 1 -14 -9z M799 556 c13
-16 142 -69 149 -61 3 2 -8 9 -24 16 -16 6 -41 17 -55 25 -14 7 -39 18 -54 24
-24 9 -26 9 -16 -4z M4416 562 c-3 -6 -1 -14 5 -17 15 -10 25 3 12 16 -7 7
-13 7 -17 1z M4280 515 c7 -9 15 -13 17 -11 7 7 -7 26 -19 26 -6 0 -6 -6 2
-15z M4567 486 c-6 -15 12 -26 41 -26 15 0 15 2 2 10 -12 8 -12 10 5 10 17 0
17 2 5 10 -22 14 -47 12 -53 -4z M1005 470 c27 -12 43 -12 25 0 -8 5 -22 9
-30 9 -10 0 -8 -3 5 -9z M4640 439 c0 -12 5 -19 12 -17 18 6 20 25 3 31 -10 5
-15 0 -15 -14z M4680 384 l-25 -15 35 6 c39 6 66 25 35 25 -11 -1 -31 -8 -45
-16z"/>
</g>
<g transform="translate(0.000000,303.000000) scale(0.100000,-0.100000)"
fill="#d09a2c" stroke="none">
<path d="M2733 2853 c9 -2 23 -2 30 0 6 3 -1 5 -18 5 -16 0 -22 -2 -12 -5z
M2515 2465 c-27 -7 -72 -14 -98 -14 -31 -1 -50 -6 -53 -15 -6 -15 -44 -10 -44
5 0 5 -5 9 -12 9 -9 0 -9 -3 0 -12 22 -22 13 -28 -28 -22 -59 10 -49 -1 23
-24 239 -77 532 -107 769 -79 141 16 263 48 317 84 l25 16 -25 10 c-13 5 -34
9 -46 8 -13 -1 -28 1 -35 6 -7 4 -33 9 -58 11 -24 1 -48 8 -52 15 -5 9 -62 13
-205 14 -130 2 -193 -1 -183 -7 9 -6 10 -10 3 -10 -6 0 -15 5 -18 10 -9 14
-220 10 -280 -5z M5458 1090 c-3 -16 -1 -30 4 -30 4 0 8 14 8 30 0 17 -2 30
-4 30 -2 0 -6 -13 -8 -30z M5446 1025 c-3 -9 -5 -29 -5 -43 1 -20 3 -17 9 13
8 43 7 57 -4 30z M185 915 c94 -135 360 -313 638 -428 50 -21 48 -11 -3 12
-22 10 -37 21 -32 26 4 5 2 5 -4 2 -13 -7 -41 4 -114 43 -25 13 -48 24 -51 25
-11 0 -235 150 -284 189 -27 22 -79 70 -114 106 -49 50 -57 56 -36 25z M5421
943 c0 -6 -4 -20 -7 -30 -5 -14 -4 -15 5 -7 7 7 11 20 8 30 -3 11 -5 14 -6 7z
M5372 838 c-16 -29 -39 -62 -51 -72 -11 -11 -21 -24 -21 -29 0 -6 10 1 21 14
31 35 91 130 86 135 -2 3 -18 -19 -35 -48z M2730 470 c-8 -5 -11 -12 -7 -16 4
-4 15 0 24 9 18 18 8 23 -17 7z M920 452 c0 -19 184 -85 440 -157 519 -146
946 -200 1590 -200 611 0 998 42 1410 152 181 48 447 139 437 149 -2 3 -29 -5
-58 -17 -30 -11 -61 -22 -69 -24 -8 -2 -40 -12 -70 -24 -30 -11 -77 -23 -105
-27 -27 -3 -54 -9 -60 -12 -5 -4 -12 -7 -15 -8 -3 0 -30 -8 -60 -16 -61 -18
-198 -44 -217 -42 -7 1 -10 -2 -7 -7 3 -5 1 -9 -5 -9 -5 0 -13 5 -16 10 -4 7
-14 5 -28 -5 -27 -19 -87 -20 -87 -1 0 9 -8 12 -27 8 -20 -4 -23 -7 -10 -10
24 -5 21 -19 -5 -25 -30 -7 -179 -18 -153 -11 11 3 34 12 52 20 17 8 38 14 46
14 9 0 18 4 21 8 3 5 0 9 -7 9 -7 0 -27 3 -44 7 -28 7 -33 5 -33 -12 0 -17 -8
-19 -60 -20 -33 0 -60 3 -60 9 0 5 -9 9 -20 9 -11 0 -20 5 -20 11 0 7 -14 8
-40 4 -29 -5 -40 -3 -40 6 0 9 -17 10 -66 5 -110 -11 -224 26 -151 49 20 6 20
8 3 12 -10 3 -21 1 -25 -4 -10 -14 -314 -15 -323 0 -5 8 -8 7 -8 -5 0 -11 -8
-18 -20 -18 -11 0 -20 7 -20 15 0 12 -13 15 -55 15 l-55 0 0 -36 0 -37 -61 7
c-34 3 -79 6 -100 6 -32 0 -39 3 -39 20 0 18 7 20 60 20 33 0 60 4 60 10 0 6
-27 10 -60 10 -33 0 -60 -4 -60 -9 0 -5 -9 -13 -20 -16 -24 -7 -27 -35 -4 -35
8 0 12 -4 9 -10 -3 -6 -27 -10 -52 -10 -36 0 -46 -4 -50 -20 -4 -16 -14 -20
-44 -20 -22 0 -48 -6 -59 -12 -16 -10 -24 -10 -40 0 -17 10 -20 10 -20 -3 0
-11 -11 -15 -40 -15 -22 0 -40 -4 -40 -8 0 -19 -30 -7 -31 12 -1 18 -2 19 -6
3 -4 -16 -13 -18 -66 -13 -75 6 -187 20 -282 36 -38 6 -81 13 -95 15 -14 2
-25 4 -25 5 0 2 -15 5 -105 20 -91 15 -100 17 -145 30 -22 6 -55 13 -74 16
-19 3 -41 9 -50 13 -9 5 -36 12 -61 16 -25 4 -49 11 -55 15 -5 4 -26 11 -45
15 -19 4 -46 12 -60 18 -14 5 -29 11 -35 12 -40 5 -92 23 -202 69 -35 14 -63
22 -63 18z m2808 -299 c-10 -2 -28 -2 -40 0 -13 2 -5 4 17 4 22 1 32 -1 23 -4z
m-1326 -12 c-8 -4 -25 -7 -39 -5 -41 4 -36 11 9 12 27 1 38 -1 30 -7z m158 -3
c0 -5 -4 -6 -10 -3 -5 3 -10 1 -10 -6 0 -9 -3 -9 -14 0 -8 7 -26 10 -40 7 -14
-3 -28 -1 -30 3 -3 3 20 7 50 7 30 0 54 -3 54 -8z m850 -3 c0 -1 -12 -2 -26
-2 -17 0 -22 2 -13 7 10 7 39 3 39 -5z M2981 401 c-9 -16 -6 -18 32 -18 23 0
35 2 27 5 -8 3 -19 11 -23 18 -11 19 -24 17 -36 -5z M3277 363 c-2 -10 -8 -26
-12 -35 -4 -10 -3 -18 3 -18 6 0 13 14 17 31 7 33 1 51 -8 22z M2962 341 c2
-7 7 -12 11 -12 12 1 9 15 -3 20 -7 2 -11 -2 -8 -8z M3080 335 c0 -8 5 -15 10
-15 6 0 10 7 10 15 0 8 -4 15 -10 15 -5 0 -10 -7 -10 -15z M3335 337 c-4 -10
-5 -21 -1 -24 10 -10 18 4 13 24 -4 17 -4 17 -12 0z M2530 240 c0 -5 7 -10 15
-10 8 0 15 5 15 10 0 6 -7 10 -15 10 -8 0 -15 -4 -15 -10z M4018 238 c17 -8
26 -8 34 0 9 9 4 12 -22 11 -33 0 -34 -1 -12 -11z M2180 190 c0 -11 4 -20 9
-20 11 0 22 26 14 34 -12 12 -23 5 -23 -14z M2135 180 c3 -5 10 -10 16 -10 5
0 9 5 9 10 0 6 -7 10 -16 10 -8 0 -12 -4 -9 -10z"/>
</g>
<g transform="translate(0.000000,303.000000) scale(0.100000,-0.100000)"
fill="#e5ad24" stroke="none">
<path d="M2704 2841 c-2 -2 -23 -4 -46 -3 -33 0 -38 -2 -23 -8 26 -11 9 -12
-37 -1 -21 5 -38 6 -38 2 0 -3 -14 -7 -32 -7 -18 -1 -34 -6 -36 -13 -2 -6 -14
-8 -28 -5 -32 8 -77 -3 -68 -18 5 -7 -1 -9 -17 -5 -27 7 -104 -16 -125 -38 -8
-8 -21 -12 -29 -9 -20 8 -19 -1 1 -21 9 -9 14 -19 10 -22 -3 -3 -14 3 -24 15
l-19 21 -31 -29 c-21 -19 -38 -27 -49 -23 -10 4 -14 2 -10 -4 4 -6 -4 -18 -17
-27 -35 -22 -50 -75 -33 -109 29 -57 109 -112 144 -101 15 5 16 4 3 -5 -17
-12 -16 -12 63 -15 59 -2 66 1 45 22 -9 9 -9 12 0 12 7 0 12 -4 12 -9 0 -15
38 -20 44 -5 3 9 21 14 48 14 24 0 70 7 103 15 69 16 271 20 280 5 3 -5 12
-10 18 -10 7 0 6 4 -3 10 -10 6 53 9 183 7 143 -1 200 -5 205 -14 4 -7 28 -14
52 -15 25 -2 51 -7 58 -11 7 -5 22 -8 35 -7 12 1 32 -1 45 -5 19 -6 21 -10 10
-24 -7 -9 3 -4 22 10 19 14 48 45 64 67 28 40 29 43 16 83 -8 22 -24 48 -37
56 -13 9 -22 18 -19 20 8 9 -28 40 -71 62 -23 11 -44 25 -48 30 -4 7 -15 7
-33 0 -14 -6 -24 -7 -20 -3 12 11 -19 34 -54 41 -18 3 -46 12 -61 20 -16 8
-35 12 -43 9 -8 -3 -14 -2 -14 2 0 20 -378 61 -396 43z m91 -51 c15 -6 8 -9
-27 -9 -27 -1 -48 4 -48 9 0 12 47 12 75 0z m380 -52 c14 -6 25 -15 25 -20 0
-4 -8 -4 -17 1 -10 5 -34 14 -53 19 -32 9 -33 10 -8 11 15 1 39 -4 53 -11z
m-1025 -78 c-24 -15 -37 -11 -16 5 11 8 22 12 25 9 3 -3 -1 -9 -9 -14z M2240
2400 c0 -5 12 -10 28 -9 24 0 25 1 7 9 -27 12 -35 12 -35 0z M2310 2380 c8 -5
22 -10 30 -10 13 0 13 1 0 10 -8 5 -22 10 -30 10 -13 0 -13 -1 0 -10z M2643
2313 c9 -2 23 -2 30 0 6 3 -1 5 -18 5 -16 0 -22 -2 -12 -5z M3118 2313 c12 -2
30 -2 40 0 9 3 -1 5 -23 4 -22 0 -30 -2 -17 -4z M2753 2303 c9 -2 25 -2 35 0
9 3 1 5 -18 5 -19 0 -27 -2 -17 -5z M2610 1940 c-61 -10 159 -33 273 -28 103
4 133 11 121 29 -6 11 -327 9 -394 -1z m153 -17 c-7 -2 -21 -2 -30 0 -10 3 -4
5 12 5 17 0 24 -2 18 -5z M2510 1881 c0 -6 11 -11 25 -11 14 0 25 -4 25 -9 0
-9 94 -17 338 -27 102 -5 142 -3 142 5 0 7 20 11 50 11 28 0 58 4 68 9 9 5 28
14 42 19 22 9 18 11 -27 11 -29 1 -53 -3 -53 -7 0 -9 -261 -8 -467 3 -104 6
-143 4 -143 -4z M3010 1806 c-5 -5 -33 -8 -62 -6 -144 6 -156 5 -151 -7 3 -8
-3 -13 -16 -13 -12 0 -20 5 -18 11 1 8 -31 13 -100 15 -79 2 -103 -1 -103 -10
0 -8 -18 -16 -42 -20 -47 -8 -37 -26 15 -26 24 0 27 -4 27 -35 0 -41 -15 -46
-24 -9 -7 26 -7 26 -27 8 -17 -15 -22 -16 -29 -4 -9 14 -35 2 -71 -32 -8 -7
-31 -24 -51 -38 -21 -14 -38 -32 -38 -41 0 -9 -10 -21 -22 -27 -23 -10 -22
-11 5 -11 15 -1 38 -11 50 -23 19 -19 36 -23 95 -26 39 -1 83 -7 97 -12 15 -6
50 -10 79 -10 83 0 176 -12 176 -23 0 -6 -57 -7 -157 -3 -87 4 -185 7 -217 6
-36 -1 -62 3 -66 11 -6 8 -22 9 -56 4 -60 -9 -41 -24 41 -32 30 -3 55 -9 55
-13 0 -4 53 -10 117 -14 65 -4 120 -11 123 -16 3 -5 41 -11 85 -13 77 -3 76
-3 -20 -4 -92 -1 -250 8 -402 23 -44 5 -63 3 -63 -5 0 -6 9 -11 20 -11 11 0
20 -4 20 -9 0 -10 87 -26 227 -41 131 -14 159 -29 58 -29 -70 -1 -221 14 -365
37 -48 8 -90 -4 -90 -25 0 -7 -6 -13 -14 -13 -7 0 -17 -10 -21 -22 -4 -14 -8
-18 -12 -10 -7 17 -30 15 -37 -3 -3 -8 -1 -15 4 -15 5 0 7 -7 4 -15 -4 -8 -12
-15 -20 -15 -8 0 -14 -9 -14 -19 0 -11 -24 -40 -55 -66 -58 -50 -62 -65 -15
-65 16 0 36 -7 44 -15 10 -11 41 -17 93 -20 43 -3 105 -12 138 -20 46 -12 402
-55 459 -55 6 0 6 -4 0 -10 -8 -8 -45 -7 -120 0 -60 6 -161 15 -224 21 -146
13 -232 26 -239 37 -8 12 -241 22 -241 11 0 -5 -7 -9 -15 -9 -9 0 -18 -7 -21
-15 -7 -18 -41 -20 -46 -3 -6 17 -54 -15 -63 -42 -3 -11 -13 -20 -21 -20 -10
0 -14 -12 -14 -40 0 -38 -2 -40 -30 -40 -22 0 -30 -5 -30 -18 0 -9 -9 -23 -21
-30 -12 -8 -18 -19 -15 -28 6 -15 -26 -54 -45 -54 -16 0 -98 -72 -105 -92 -8
-25 -19 -22 -33 9 l-13 27 -16 -27 c-9 -15 -25 -27 -34 -27 -14 0 -18 -8 -18
-36 0 -48 -48 -92 -84 -78 -12 4 -16 0 -16 -16 0 -19 2 -21 16 -10 12 11 18
10 32 -3 15 -16 15 -17 0 -17 -9 0 -18 -6 -20 -12 -4 -10 -16 -10 -56 -2 -42
8 -52 8 -52 -3 0 -7 4 -13 10 -13 5 0 17 -8 27 -19 10 -10 33 -22 50 -26 18
-3 33 -11 33 -16 0 -5 10 -10 23 -10 12 -1 4 -5 -18 -8 l-40 -7 55 -13 c30 -8
61 -18 68 -24 7 -5 37 -10 68 -10 31 0 50 -3 43 -8 -8 -5 -1 -11 22 -17 19 -5
36 -5 37 0 2 5 10 4 18 -3 17 -14 65 -26 179 -45 90 -15 120 -21 120 -24 0 -1
11 -3 25 -5 14 -2 57 -9 95 -15 95 -16 207 -30 282 -36 53 -5 62 -3 66 13 4
16 5 15 6 -3 1 -19 31 -31 31 -12 0 4 18 8 40 8 29 0 40 4 40 15 0 13 3 13 20
3 16 -10 24 -10 40 0 11 6 37 12 59 12 30 0 40 4 44 20 4 16 14 20 50 20 25 0
49 5 52 10 3 6 -1 10 -9 10 -23 0 -20 28 4 35 11 3 20 11 20 16 0 5 27 9 60 9
33 0 60 -4 60 -10 0 -6 -27 -10 -60 -10 -53 0 -60 -2 -60 -20 0 -17 7 -20 39
-20 21 0 66 -3 100 -6 l61 -7 0 37 0 36 55 0 c42 0 55 -3 55 -15 0 -8 9 -15
20 -15 12 0 20 7 20 18 0 12 3 13 8 5 9 -15 313 -14 323 0 4 5 15 7 25 4 17
-4 17 -6 -3 -12 -73 -23 41 -60 151 -49 49 5 66 4 66 -5 0 -9 11 -11 40 -6 26
4 40 3 40 -4 0 -6 9 -11 20 -11 11 0 20 -4 20 -9 0 -6 27 -9 60 -9 52 1 60 3
60 20 0 17 5 19 33 12 17 -4 37 -7 44 -7 7 0 10 -4 7 -9 -3 -4 -12 -8 -21 -8
-8 0 -29 -6 -46 -14 -18 -8 -41 -17 -52 -20 -26 -7 123 4 153 11 26 6 29 20 5
25 -13 3 -10 6 10 10 19 4 27 1 27 -8 0 -19 60 -18 87 1 14 10 24 12 28 5 3
-5 11 -10 16 -10 6 0 8 4 4 9 -3 6 3 9 12 8 17 -1 91 12 196 35 26 6 54 17 62
25 10 10 15 11 15 2 0 -8 4 -8 13 -1 6 5 35 13 62 16 79 11 96 18 60 28 -26 6
-24 7 10 4 22 -3 49 -1 59 3 16 6 14 10 -17 24 -19 10 -37 23 -39 29 -4 10
-10 10 -32 0 -36 -16 -56 -15 -56 3 0 8 -7 15 -17 15 -9 0 -13 3 -10 7 4 3 2
12 -4 20 -9 10 -5 14 21 19 42 9 19 23 -33 20 -21 -1 -41 2 -43 6 -3 5 -13 8
-23 8 -20 0 -48 58 -50 101 0 19 7 28 27 36 l27 11 -25 1 c-18 1 -30 12 -43
38 -15 30 -16 34 -3 24 13 -11 16 -11 16 2 0 18 -30 31 -42 19 -5 -5 -4 -21 2
-36 15 -40 12 -56 -8 -56 -19 0 -39 36 -62 112 -6 21 -16 40 -21 43 -5 4 -4
-6 3 -22 19 -48 26 -142 10 -148 -46 -17 -83 -2 -121 53 -29 42 -38 34 -21
-18 12 -37 12 -43 -6 -59 -36 -35 -70 -35 -103 1 -17 18 -31 41 -31 51 0 10
-9 37 -20 60 -12 23 -23 65 -25 93 -5 49 -4 52 24 64 36 15 91 -9 91 -40 0
-21 -24 -27 -35 -10 -3 6 -13 10 -21 10 -21 0 -18 -78 6 -125 11 -22 20 -47
20 -56 0 -22 36 -53 55 -45 29 11 1 91 -32 91 -11 0 -19 9 -21 24 -4 23 -2 24
42 19 51 -6 53 -4 30 41 -20 40 -21 119 -1 138 28 28 83 0 112 -58 14 -27 30
-49 36 -49 12 0 2 20 -42 85 -17 25 -27 49 -24 55 3 5 -2 10 -11 10 -10 0 -14
3 -11 6 8 8 -31 39 -60 48 -13 4 -23 12 -23 17 0 5 -4 9 -10 9 -18 0 -11 -30
8 -31 10 0 12 -3 5 -6 -7 -2 -13 -15 -13 -28 0 -34 -36 -22 -43 14 -9 45 -54
91 -88 91 -22 0 -29 5 -29 20 0 11 5 20 12 20 6 0 8 3 5 7 -4 3 -1 13 5 21 10
12 7 19 -18 41 -32 26 -67 84 -58 93 3 3 -1 17 -7 32 -12 26 -33 34 -44 16 -9
-14 -19 -12 -41 9 -28 26 -59 34 -124 34 -46 0 -48 0 -12 4 23 2 42 9 42 14 0
6 3 8 8 6 4 -3 18 -1 31 4 41 16 9 33 -59 30 -59 -2 -85 14 -40 26 11 3 20 14
20 25 0 16 -6 19 -37 18 -62 -3 -83 -1 -83 10 0 6 14 10 31 10 31 0 32 1 26
40 -4 30 -2 40 9 40 8 0 14 5 14 10 0 6 -7 10 -16 10 -9 0 -34 14 -55 31 -28
22 -47 30 -64 27 -13 -3 -24 -2 -23 1 3 30 -6 41 -42 52 -29 9 -42 19 -46 36
-5 19 -9 21 -20 12 -12 -10 -17 -6 -26 17 l-10 29 -100 0 c-54 0 -103 -4 -108
-9z m427 -263 c-3 -10 -5 -2 -5 17 0 19 2 27 5 18 2 -10 2 -26 0 -35z m-1807
-733 c0 -11 -7 -20 -15 -20 -8 0 -15 9 -15 20 0 11 7 20 15 20 8 0 15 -9 15
-20z m2175 11 c3 -5 1 -12 -4 -16 -23 -14 -23 -90 -1 -131 12 -21 26 -41 29
-44 4 -3 18 -24 31 -47 25 -45 21 -66 -8 -45 -9 7 -25 15 -35 19 -13 4 -17 12
-13 28 4 15 -2 31 -17 49 l-24 27 -11 -39 c-15 -48 -15 -72 -2 -72 6 0 10 -7
10 -15 0 -24 -20 -17 -30 11 -15 37 -12 84 4 84 14 0 11 46 -5 56 -5 2 -6 17
-4 32 2 15 7 44 10 64 5 34 15 43 52 47 6 0 14 -3 18 -8z m-118 -29 c12 -7 33
-54 33 -73 0 -22 -29 -6 -39 21 -10 30 -31 41 -31 18 -1 -8 -7 -5 -15 6 -8 10
-12 23 -9 27 6 11 45 11 61 1z m-97 -27 c0 -28 -15 -34 -24 -9 -10 25 -7 34 9
34 9 0 15 -9 15 -25z m715 -241 c32 -34 32 -53 1 -47 -13 3 -27 0 -30 -6 -11
-18 -37 -13 -57 11 -23 25 -25 48 -4 48 8 0 15 5 15 10 0 21 52 9 75 -16z
m-135 -19 c-12 -15 -30 -12 -30 6 0 5 10 9 21 9 18 0 19 -2 9 -15z m-50 -8 c0
-7 9 -23 20 -35 20 -21 20 -22 2 -22 -19 0 -65 53 -55 64 11 11 33 6 33 -7z
m-1373 -34 c-9 -9 -20 -13 -24 -9 -4 4 -1 11 7 16 25 16 35 11 17 -7z m1451
-1 c2 -7 -3 -12 -12 -12 -9 0 -16 7 -16 16 0 17 22 14 28 -4z m185 -25 c-8
-13 -23 3 -23 26 0 20 0 20 14 2 8 -11 12 -23 9 -28z m-295 15 c2 -7 -3 -12
-12 -12 -9 0 -16 7 -16 16 0 17 22 14 28 -4z m-1071 -46 c4 -7 15 -15 23 -18
8 -3 -4 -5 -27 -5 -38 0 -41 2 -32 18 12 22 25 24 36 5z m1392 1 c13 5 14 3 4
-8 -18 -18 -16 -29 4 -29 9 0 13 -3 10 -6 -5 -6 -62 11 -76 22 -2 2 2 11 9 19
8 10 17 12 23 6 5 -5 17 -7 26 -4z m-1124 -66 c-4 -17 -11 -31 -17 -31 -6 0
-7 8 -3 18 4 9 10 25 12 35 9 29 15 11 8 -22z m-304 -4 c-1 -12 -15 -9 -19 4
-3 6 1 10 8 8 6 -3 11 -8 11 -12z m119 -2 c0 -8 -4 -15 -10 -15 -5 0 -10 7
-10 15 0 8 5 15 10 15 6 0 10 -7 10 -15z m246 -22 c-11 -11 -19 6 -11 24 8 17
8 17 12 0 3 -10 2 -21 -1 -24z m-786 -73 c0 -5 -7 -10 -15 -10 -8 0 -15 5 -15
10 0 6 7 10 15 10 8 0 15 -4 15 -10z m1492 -2 c-8 -8 -17 -8 -34 0 -22 10 -21
11 12 11 26 1 31 -2 22 -11z m-1849 -34 c8 -8 -3 -34 -14 -34 -5 0 -9 9 -9 20
0 19 11 26 23 14z m-43 -24 c0 -5 -4 -10 -9 -10 -6 0 -13 5 -16 10 -3 6 1 10
9 10 9 0 16 -4 16 -10z M4230 517 c0 -17 20 -37 37 -37 20 0 15 28 -6 40 -26
13 -31 13 -31 -3z M2480 1800 c0 -5 13 -10 29 -10 17 0 33 5 36 10 4 6 -8 10
-29 10 -20 0 -36 -4 -36 -10z M2400 1760 c0 -5 11 -10 24 -10 14 0 28 5 31 10
4 6 -7 10 -24 10 -17 0 -31 -4 -31 -10z M2290 1540 c-12 -8 -11 -10 8 -10 12
0 22 5 22 10 0 13 -11 13 -30 0z M3895 1120 c-3 -5 1 -10 9 -10 9 0 16 5 16
10 0 6 -4 10 -9 10 -6 0 -13 -4 -16 -10z M4165 960 c-3 -5 0 -10 7 -10 7 0 24
-16 38 -36 14 -19 31 -41 38 -49 6 -7 12 -17 12 -22 1 -16 64 -77 68 -65 5 15
4 22 -3 22 -7 -1 -36 28 -35 35 1 12 -32 67 -37 61 -3 -3 -19 13 -34 34 -30
41 -43 48 -54 30z M4074 793 c9 -60 31 -110 56 -123 30 -16 33 -12 26 36 -8
65 -44 134 -69 134 -17 0 -19 -5 -13 -47z M364 763 c16 -20 36 -23 36 -6 0 4
-3 3 -7 0 -3 -4 -16 1 -27 10 -21 18 -21 18 -2 -4z M4361 720 c13 -16 24 -28
27 -26 6 6 -29 56 -39 56 -5 0 0 -13 12 -30z M416 725 c10 -8 23 -15 28 -15 6
0 1 7 -10 15 -10 8 -23 15 -28 15 -6 0 -1 -7 10 -15z M491 677 c23 -18 69 -47
69 -44 0 13 -40 47 -55 47 -10 0 -16 -1 -14 -3z M590 610 c19 -15 26 -16 35
-5 5 7 17 15 25 18 12 4 12 6 -2 6 -9 1 -20 -3 -23 -9 -3 -5 -11 -10 -16 -10
-6 0 -8 4 -5 8 2 4 -5 9 -17 9 -21 2 -21 2 3 -17z M863 573 c-20 -7 -15 -22 7
-20 20 1 27 12 13 20 -5 2 -14 2 -20 0z M745 540 c-4 -6 3 -10 14 -10 25 0 27
6 6 13 -8 4 -17 2 -20 -3z M924 525 c16 -9 32 -13 35 -10 8 9 -21 25 -44 25
-16 0 -14 -3 9 -15z M800 522 c0 -5 16 -19 36 -31 29 -18 38 -19 49 -8 11 11
7 16 -23 27 -21 7 -43 15 -49 17 -7 3 -13 1 -13 -5z M984 501 c4 -6 14 -11 22
-11 8 0 25 -7 38 -15 13 -9 31 -12 41 -9 13 5 8 10 -22 21 -60 23 -87 28 -79
14z M1150 486 c0 -10 9 -16 21 -16 24 0 21 23 -4 28 -10 2 -17 -3 -17 -12z
M953 466 c15 -7 25 -15 21 -18 -3 -4 8 -14 26 -23 18 -9 34 -14 36 -12 9 8
-74 67 -92 66 -14 0 -12 -4 9 -13z M4783 459 c-25 -9 -30 -19 -10 -19 15 0 43
17 37 23 -3 3 -15 1 -27 -4z M1060 412 c0 -10 44 -32 62 -32 6 0 1 9 -12 20
-24 20 -50 27 -50 12z M1154 375 c25 -19 37 -19 30 0 -4 8 -16 15 -28 15 -21
-1 -21 -1 -2 -15z M4688 373 c-10 -2 -18 -9 -18 -14 0 -6 8 -5 20 1 15 8 31
25 18 19 -2 -1 -11 -3 -20 -6z M3688 153 c12 -2 30 -2 40 0 9 3 -1 5 -23 4
-22 0 -30 -2 -17 -4z M2334 143 c9 -9 55 -10 68 -2 8 6 -3 8 -30 7 -23 -1 -40
-3 -38 -5z M2456 139 c2 -4 16 -6 30 -3 14 3 32 0 40 -7 11 -9 14 -9 14 0 0 7
5 9 10 6 6 -3 10 -2 10 3 0 5 -24 8 -54 8 -30 0 -53 -4 -50 -7z M3371 140 c-9
-5 -4 -7 13 -7 29 0 32 2 13 10 -8 3 -20 2 -26 -3z"/>
</g>
</svg>