<svg xmlns="http://www.w3.org/2000/svg" viewBox="0 0 223 500" width="223" height="500">
<g transform="translate(0.000000,500.000000) scale(0.100000,-0.100000)"
fill="#020203" stroke="none">
<path d="M990 4844 c-139 -36 -213 -93 -319 -244 -352 -499 -561 -1069 -626
-1710 -32 -312 -13 -746 46 -1065 97 -520 336 -1068 635 -1456 154 -201 467
-241 701 -90 135 87 215 300 183 488 -14 89 -49 163 -132 284 -102 148 -208
365 -208 426 0 31 41 61 120 88 330 112 550 350 642 693 26 99 36 330 18 439
-30 188 -124 386 -248 525 -95 106 -281 220 -427 264 -33 10 -73 30 -88 44
l-28 27 34 89 c43 111 98 222 147 294 20 30 58 86 83 123 173 254 97 616 -156
740 -116 56 -259 72 -377 41z m295 -152 c154 -77 233 -247 191 -412 -13 -50
-35 -92 -95 -180 -43 -63 -82 -114 -85 -113 -7 1 -420 258 -549 340 l-68 43
32 48 c177 261 253 316 429 308 71 -3 95 -8 145 -34z m-331 -563 c160 -100
297 -187 304 -194 10 -9 4 -30 -32 -106 -43 -91 -95 -232 -116 -315 l-10 -41
-92 -7 c-246 -17 -444 -103 -611 -265 -83 -80 -122 -131 -182 -242 -26 -46
-44 -75 -41 -64 2 11 7 47 11 80 29 277 124 632 247 920 74 172 203 415 222
415 5 0 140 -82 300 -181z m336 -769 c546 -158 800 -797 509 -1282 -116 -193
-312 -340 -534 -399 -114 -31 -317 -31 -430 0 -281 76 -508 284 -604 554 -174
494 123 1027 639 1142 97 22 322 14 420 -15z m-953 -1455 c159 -188 407 -309
653 -322 l105 -6 48 -146 c26 -80 66 -184 88 -230 32 -68 37 -87 27 -97 -19
-18 -580 -366 -598 -371 -10 -3 -32 27 -72 99 -200 360 -319 707 -388 1130
-31 190 -29 199 28 99 26 -46 75 -116 109 -156z m1038 -950 c112 -165 133
-240 101 -365 -74 -291 -448 -371 -638 -137 -70 85 -150 208 -145 221 6 14
598 388 608 384 4 -2 37 -48 74 -103z"/>
</g>
<g transform="translate(0.000000,500.000000) scale(0.100000,-0.100000)"
fill="#5b9098" stroke="none">
<path d="M865 4618 l-40 -43 43 40 c39 36 47 45 39 45 -2 0 -21 -19 -42 -42z
M1350 4647 c0 -2 15 -16 33 -33 l32 -29 -29 33 c-28 30 -36 37 -36 29z M1482
4365 c0 -16 2 -22 5 -12 2 9 2 23 0 30 -3 6 -5 -1 -5 -18z M950 3380 c-348
-43 -634 -286 -731 -622 -43 -153 -36 -371 18 -523 79 -222 263 -418 475 -507
489 -206 1045 73 1177 589 29 111 29 298 1 406 -109 430 -511 710 -940 657z
M1482 675 c0 -16 2 -22 5 -12 2 9 2 23 0 30 -3 6 -5 -1 -5 -18z"/>
</g>
<g transform="translate(0.000000,500.000000) scale(0.100000,-0.100000)"
fill="#99effc" stroke="none">
<path d="M1062 4718 c-121 -18 -199 -86 -344 -303 -15 -22 -24 -43 -20 -47 12
-11 584 -369 594 -371 18 -4 157 212 174 270 74 253 -139 491 -404 451z M597
4211 c-188 -327 -315 -689 -383 -1089 -33 -196 -32 -200 22 -108 156 266 459
445 778 459 l79 4 24 84 c27 93 82 237 120 313 14 27 21 52 16 56 -4 4 -141
91 -304 193 l-297 184 -55 -96z M190 2088 c0 -96 87 -488 150 -678 71 -211
198 -493 283 -626 l32 -51 297 186 c163 102 299 189 302 192 3 3 -16 56 -44
117 -27 61 -65 162 -84 224 l-34 113 -97 8 c-330 25 -617 204 -769 477 -30 54
-36 60 -36 38z M1069 910 c-123 -76 -259 -161 -301 -188 l-78 -48 67 -100
c131 -193 213 -248 373 -248 71 0 94 4 142 26 158 73 244 261 195 428 -13 45
-152 269 -168 270 -3 0 -106 -63 -230 -140z"/>
</g>
<g transform="translate(0.000000,500.000000) scale(0.100000,-0.100000)"
fill="#31545a" stroke="none">
<path d="M675 4295 c11 -9 29 -21 40 -26 l20 -10 -20 16 c-11 9 -29 21 -40 26
l-20 10 20 -16z M608 4248 c-22 -34 -52 -95 -41 -83 13 14 65 105 60 105 -3 0
-11 -10 -19 -22z M755 4245 c11 -9 29 -21 40 -26 l20 -10 -20 16 c-11 9 -29
21 -40 26 l-20 10 20 -16z M835 4195 c11 -9 29 -21 40 -26 l20 -10 -20 16
c-11 9 -29 21 -40 26 l-20 10 20 -16z M900 4156 c0 -2 24 -19 53 -37 28 -17
62 -38 75 -47 12 -8 22 -12 22 -9 0 3 -28 23 -62 44 -85 53 -88 55 -88 49z
M504 4059 c-14 -28 -24 -53 -22 -55 2 -2 16 21 31 51 15 30 25 55 22 55 -3 0
-16 -23 -31 -51z M1155 3995 c11 -9 29 -21 40 -26 l20 -10 -20 16 c-11 9 -29
21 -40 26 l-20 10 20 -16z M1239 3942 l23 -19 -26 -51 c-14 -28 -26 -55 -26
-59 1 -4 14 18 31 50 31 61 31 70 -4 88 -21 10 -20 9 2 -9z M336 3655 c-3 -9
-6 -22 -5 -28 0 -7 5 -1 10 12 5 13 8 26 5 28 -2 2 -6 -3 -10 -12z M296 3524
c-4 -14 -5 -28 -3 -31 3 -2 8 8 11 23 4 14 5 28 3 31 -3 2 -8 -8 -11 -23z
M933 3463 c9 -2 25 -2 35 0 9 3 1 5 -18 5 -19 0 -27 -2 -17 -5z M670 3395
c-14 -8 -20 -14 -15 -14 6 0 21 6 35 14 14 8 21 14 15 14 -5 0 -21 -6 -35 -14z
M948 3383 c12 -2 32 -2 45 0 12 2 2 4 -23 4 -25 0 -35 -2 -22 -4z M1108 3383
c12 -2 32 -2 45 0 12 2 2 4 -23 4 -25 0 -35 -2 -22 -4z M470 3277 c-86 -68
-185 -179 -234 -263 -37 -64 -45 -72 -49 -52 -3 16 -5 11 -6 -14 0 -20 -4 -45
-7 -55 -3 -10 15 20 40 66 77 139 173 251 285 330 24 17 40 31 35 31 -5 0 -34
-20 -64 -43z M577 3255 c-20 -14 -37 -28 -37 -31 0 -2 18 8 40 22 35 23 47 34
37 34 -1 0 -19 -11 -40 -25z M1530 3247 c0 -3 17 -17 37 -33 20 -15 33 -23 29
-16 -8 13 -66 56 -66 49z M1660 3135 c30 -30 57 -55 59 -55 3 0 -19 25 -49 55
-30 30 -57 55 -59 55 -3 0 19 -25 49 -55z M212 3155 c0 -16 2 -22 5 -12 2 9 2
23 0 30 -3 6 -5 -1 -5 -18z M430 3135 c-24 -25 -42 -45 -39 -45 3 0 25 20 49
45 24 25 42 45 39 45 -3 0 -25 -20 -49 -45z M202 3095 c0 -16 2 -22 5 -12 2 9
2 23 0 30 -3 6 -5 -1 -5 -18z M1756 3020 c46 -67 64 -87 38 -42 -10 19 -32 48
-47 65 -20 23 -18 17 9 -23z M192 3030 c0 -19 2 -27 5 -17 2 9 2 25 0 35 -3 9
-5 1 -5 -18z M269 2909 c-16 -34 -29 -63 -27 -65 2 -2 18 26 36 61 17 36 30
65 27 65 -3 0 -19 -27 -36 -61z M1841 2880 c0 -3 11 -34 25 -70 13 -36 22 -51
19 -35 -6 28 -43 116 -44 105z M1914 2520 c0 -63 1 -89 3 -57 2 31 2 83 0 115
-2 31 -3 5 -3 -58z M184 2525 c0 -55 1 -76 3 -47 2 29 2 74 0 100 -2 26 -3 2
-3 -53z M192 2385 c0 -16 2 -22 5 -12 2 9 2 23 0 30 -3 6 -5 -1 -5 -18z M1833
2159 c-17 -38 -29 -69 -27 -69 7 0 67 130 63 135 -3 2 -18 -28 -36 -66z M180
2103 c0 -24 2 -43 4 -43 8 0 12 60 4 72 -4 8 -8 -4 -8 -29z M225 2050 c9 -16
18 -30 21 -30 2 0 -2 14 -11 30 -9 17 -18 30 -21 30 -2 0 2 -13 11 -30z M1760
2030 c-17 -27 -73 -89 -123 -137 -51 -48 -78 -78 -62 -66 43 30 186 183 208
221 28 50 13 38 -23 -18z M192 2015 c0 -16 2 -22 5 -12 2 9 2 23 0 30 -3 6 -5
-1 -5 -18z M260 1991 c5 -11 15 -23 21 -27 6 -3 3 5 -6 20 -20 30 -30 35 -15
7z M429 1918 c36 -37 85 -81 110 -98 40 -27 41 -28 11 -3 -19 15 -69 59 -110
98 l-75 69 64 -66z M311 1924 c13 -17 26 -30 28 -27 3 2 -8 16 -24 31 l-28 27
24 -31z M397 1832 c29 -28 67 -60 85 -72 l33 -22 -25 22 c-14 11 -52 44 -85
71 l-60 51 52 -50z M1507 1791 c-41 -26 -46 -36 -10 -17 17 9 35 20 38 26 8
13 6 12 -28 -9z M660 1655 c14 -8 30 -14 35 -14 6 0 -1 6 -15 14 -14 8 -29 14
-35 14 -5 0 1 -6 15 -14z M1163 1663 c9 -2 23 -2 30 0 6 3 -1 5 -18 5 -16 0
-22 -2 -12 -5z M1013 1653 c20 -2 54 -2 75 0 20 2 3 4 -38 4 -41 0 -58 -2 -37
-4z M735 1625 c17 -8 37 -14 45 -14 8 0 -1 7 -20 14 -46 18 -64 17 -25 0z
M281 1580 c0 -8 4 -24 9 -35 5 -13 9 -14 9 -5 0 8 -4 24 -9 35 -5 13 -9 14 -9
5z M893 1583 c9 -2 23 -2 30 0 6 3 -1 5 -18 5 -16 0 -22 -2 -12 -5z M975 1574
c46 -7 125 -8 125 -1 0 4 -33 6 -72 6 -40 -1 -64 -3 -53 -5z M311 1480 c0 -8
4 -24 9 -35 5 -13 9 -14 9 -5 0 8 -4 24 -9 35 -5 13 -9 14 -9 5z M1121 1473
c-1 -16 58 -183 76 -213 16 -28 16 -29 -38 120 -21 58 -38 100 -38 93z M346
1370 c3 -14 11 -32 16 -40 6 -10 7 -7 2 10 -3 14 -11 32 -16 40 -6 10 -7 7 -2
-10z M1220 1207 c0 -4 10 -26 21 -49 21 -40 21 -42 3 -55 -52 -38 -57 -43 -26
-26 54 29 56 36 28 90 -14 26 -25 44 -26 40z M411 1195 c0 -5 6 -21 14 -35 8
-14 14 -20 14 -15 0 6 -6 21 -14 35 -8 14 -14 21 -14 15z M451 1105 c0 -5 6
-21 14 -35 8 -14 14 -20 14 -15 0 6 -6 21 -14 35 -8 14 -14 21 -14 15z M1108
1017 c-61 -39 -106 -73 -68 -52 41 23 140 87 140 91 0 6 -2 6 -72 -39z M983
939 c-35 -22 -46 -37 -15 -20 22 13 58 40 52 41 -3 0 -20 -10 -37 -21z M868
867 c-61 -39 -106 -73 -68 -52 41 23 140 87 140 91 0 6 -2 6 -72 -39z M565
870 c9 -16 18 -30 21 -30 2 0 -2 14 -11 30 -9 17 -18 30 -21 30 -2 0 2 -13 11
-30z M743 789 c-35 -22 -46 -37 -15 -20 22 13 58 40 52 41 -3 0 -20 -10 -37
-21z M860 425 c13 -14 26 -25 28 -25 3 0 -5 11 -18 25 -13 14 -26 25 -28 25
-3 0 5 -11 18 -25z M1113 313 c9 -2 23 -2 30 0 6 3 -1 5 -18 5 -16 0 -22 -2
-12 -5z"/>
</g>
</svg>