<svg xmlns="http://www.w3.org/2000/svg" viewBox="0 0 223 500" width="223" height="500">
<g transform="translate(0.000000,500.000000) scale(0.100000,-0.100000)"
fill="#010104" stroke="none">
<path d="M990 4844 c-139 -36 -213 -93 -319 -244 -352 -499 -561 -1069 -626
-1710 -32 -312 -13 -746 46 -1065 97 -520 336 -1068 635 -1456 154 -201 467
-241 701 -90 135 87 215 300 183 488 -14 89 -49 163 -132 284 -102 148 -208
365 -208 426 0 31 41 61 120 88 330 112 550 350 642 693 26 99 36 330 18 439
-30 188 -124 386 -248 525 -95 106 -281 220 -427 264 -33 10 -73 30 -88 44
l-28 27 34 89 c43 111 98 222 147 294 20 30 58 86 83 123 173 254 97 616 -156
740 -116 56 -259 72 -377 41z m235 -126 c148 -37 264 -190 265 -347 0 -64 -26
-171 -42 -171 -4 0 -8 -5 -8 -11 0 -6 -21 -41 -48 -78 -26 -36 -54 -79 -62
-95 -20 -38 -36 -43 -63 -18 -12 12 -36 27 -52 34 -17 7 -76 43 -131 81 -56
37 -107 67 -113 67 -6 0 -11 5 -11 10 0 6 -4 10 -9 10 -9 0 -141 78 -151 90
-3 3 -30 21 -60 40 -30 18 -57 35 -59 37 -4 3 86 141 106 161 7 7 13 17 13 20
0 4 24 33 54 65 101 107 225 142 371 105z m-259 -596 c72 -45 136 -82 142 -82
5 0 12 -4 14 -9 2 -4 36 -29 76 -55 39 -25 72 -48 72 -50 0 -2 -18 -42 -41
-90 -49 -105 -122 -314 -115 -332 9 -23 -22 -35 -99 -39 -72 -4 -172 -19 -205
-32 -8 -3 -22 -7 -30 -8 -67 -12 -247 -104 -298 -152 -19 -18 -38 -33 -42 -33
-6 0 -120 -119 -145 -152 -19 -24 -73 -112 -93 -153 l-21 -40 -1 38 c-1 138
130 695 200 842 30 66 100 239 100 250 0 7 4 15 8 17 5 2 35 53 67 113 32 61
67 122 78 136 l19 27 92 -57 c50 -32 150 -94 222 -139z m264 -746 c312 -66
566 -300 657 -605 60 -205 38 -450 -60 -646 -199 -400 -702 -582 -1117 -404
-120 51 -178 90 -275 187 -84 83 -118 131 -166 232 -108 224 -117 481 -27 710
81 204 274 399 478 481 139 56 364 76 510 45z m-955 -1385 c109 -167 302 -310
490 -365 33 -10 74 -22 90 -27 17 -6 77 -13 135 -16 l105 -6 48 -146 c26 -80
65 -182 87 -226 22 -44 39 -84 39 -90 0 -5 -33 -30 -74 -55 -41 -25 -75 -48
-75 -52 0 -5 -6 -8 -12 -8 -7 -1 -112 -63 -233 -139 -171 -108 -222 -136 -230
-126 -20 26 -36 51 -54 85 -63 120 -95 175 -102 178 -5 2 -9 12 -9 21 0 10
-14 49 -30 87 -37 82 -43 97 -63 149 -39 101 -67 181 -67 193 0 7 -4 20 -10
30 -31 56 -130 543 -130 643 0 32 0 32 26 -16 14 -27 45 -78 69 -114z m1092
-1017 c111 -164 128 -209 121 -318 -17 -244 -254 -401 -488 -323 -19 7 -37 14
-40 17 -3 3 -17 11 -32 19 -51 26 -128 120 -232 282 l-16 26 162 102 c90 56
172 108 183 114 58 35 140 92 143 99 2 4 13 8 23 8 11 0 17 5 14 10 -3 6 2 10
12 10 10 1 31 12 47 25 17 13 33 22 37 19 4 -2 33 -43 66 -90z"/>
</g>
<g transform="translate(0.000000,500.000000) scale(0.100000,-0.100000)"
fill="#161a48" stroke="none">
<path d="M623 4278 c-15 -20 -25 -38 -20 -38 3 0 12 11 21 25 17 26 16 35 -1
13z M1277 3988 c2 -5 10 -8 18 -8 8 0 16 3 18 8 3 4 -5 7 -18 7 -13 0 -21 -3
-18 -7z M306 3565 c-3 -9 -6 -22 -5 -28 0 -7 5 -1 10 12 5 13 8 26 5 28 -2 2
-6 -3 -10 -12z M943 3383 c15 -2 37 -2 50 0 12 2 0 4 -28 4 -27 0 -38 -2 -22
-4z M1103 3383 c15 -2 39 -2 55 0 15 2 2 4 -28 4 -30 0 -43 -2 -27 -4z M1203
3373 c9 -2 23 -2 30 0 6 3 -1 5 -18 5 -16 0 -22 -2 -12 -5z M1265 3360 c11 -5
27 -9 35 -9 9 0 8 4 -5 9 -11 5 -27 9 -35 9 -9 0 -8 -4 5 -9z M745 3339 c-22
-10 -29 -16 -15 -13 28 7 80 33 65 33 -5 0 -28 -9 -50 -20z M607 3274 c-89
-53 -215 -166 -258 -233 -29 -45 -29 -45 -2 -11 91 113 187 195 305 261 29 16
48 29 43 29 -6 0 -45 -21 -88 -46z M1401 3317 c15 -12 139 -77 139 -73 0 6
-124 76 -135 76 -5 0 -6 -1 -4 -3z M231 3273 c0 -12 -4 -30 -7 -40 -5 -17 -5
-17 6 0 6 10 9 28 7 40 -4 22 -4 22 -6 0z M1550 3233 c0 -6 12 -16 26 -24 15
-7 63 -52 107 -99 45 -47 66 -66 49 -43 -57 73 -182 187 -182 166z M374 3188
l-29 -33 33 29 c30 28 37 36 29 36 -2 0 -16 -15 -33 -32z M1769 3005 c5 -11
17 -29 26 -40 l16 -20 -10 20 c-5 11 -17 29 -26 40 l-16 20 10 -20z M180 2921
c0 -25 6 -27 13 -6 4 8 2 17 -3 20 -6 4 -10 -3 -10 -14z M1845 2865 c4 -11 14
-39 22 -63 8 -24 17 -41 19 -39 6 5 -27 100 -39 112 -7 7 -7 3 -2 -10z M226
2815 c-3 -9 -6 -22 -5 -28 0 -7 5 -1 10 12 5 13 8 26 5 28 -2 2 -6 -3 -10 -12z
M205 2740 c-4 -17 -5 -34 -2 -36 2 -3 7 10 11 27 8 42 0 50 -9 9z M184 2525
c0 -55 1 -76 3 -47 2 29 2 74 0 100 -2 26 -3 2 -3 -53z M200 2329 c0 -13 5
-31 10 -39 7 -11 8 -5 4 20 -8 43 -14 51 -14 19z M1845 2183 c-8 -20 -13 -38
-10 -41 3 -3 5 -3 5 0 0 3 7 22 15 42 8 20 13 36 10 36 -2 0 -12 -16 -20 -37z
M260 2156 c0 -12 39 -84 49 -91 6 -3 -2 16 -16 42 -30 55 -33 59 -33 49z
M1774 2053 c-61 -96 -69 -115 -17 -43 38 52 78 120 70 120 -2 0 -26 -35 -53
-77z M343 2010 c66 -83 205 -215 216 -205 3 3 -6 13 -20 21 -13 9 -69 62 -124
118 -55 55 -87 85 -72 66z M1650 1903 c-30 -31 -46 -51 -35 -45 25 13 100 90
94 96 -2 2 -29 -21 -59 -51z M1554 1818 l-19 -23 25 20 c14 11 27 21 29 22 2
2 0 3 -6 3 -5 0 -18 -10 -29 -22z M221 1820 c0 -8 4 -24 9 -35 5 -13 9 -14 9
-5 0 8 -4 24 -9 35 -5 13 -9 14 -9 5z M570 1796 c0 -3 14 -12 30 -21 17 -9 30
-13 30 -11 0 3 -13 12 -30 21 -16 9 -30 13 -30 11z M1290 1690 c-18 -12 -2
-12 25 0 13 6 15 9 5 9 -8 0 -22 -4 -30 -9z M870 1670 c14 -4 36 -8 50 -8 22
0 22 1 -5 8 -42 11 -79 11 -45 0z M1008 1653 c23 -2 59 -2 80 0 20 2 1 4 -43
4 -44 0 -61 -2 -37 -4z M790 1610 c8 -5 24 -10 34 -10 26 0 18 6 -19 14 -22 5
-26 4 -15 -4z"/>
</g>
<g transform="translate(0.000000,500.000000) scale(0.100000,-0.100000)"
fill="#c3c3c3" stroke="none">
<path d="M1002 4701 c-29 -10 -74 -36 -100 -58 -47 -39 -202 -244 -202 -266 0
-7 19 -23 42 -37 23 -14 80 -50 128 -80 107 -68 95 -61 272 -170 153 -94 163
-99 171 -76 3 7 33 52 67 100 101 142 121 235 78 370 -57 182 -268 282 -456
217z M638 4276 c-7 -13 -24 -43 -37 -67 -13 -24 -27 -46 -31 -49 -11 -8 -114
-227 -160 -340 -87 -216 -152 -449 -196 -705 -27 -158 -29 -180 -12 -150 177
319 492 506 866 514 25 1 32 5 32 22 0 26 60 206 95 284 15 33 36 79 46 102
l18 42 -73 45 c-41 25 -78 46 -84 46 -6 0 -12 4 -14 8 -1 4 -46 34 -98 67 -52
32 -125 78 -162 102 -37 23 -70 43 -74 43 -3 0 -20 11 -37 24 -49 36 -65 38
-79 12z M195 2065 c4 -22 8 -55 10 -75 22 -221 181 -769 257 -882 10 -14 18
-32 18 -40 0 -18 78 -170 123 -241 21 -32 37 -62 37 -67 0 -24 27 -18 88 21
37 23 119 74 182 112 63 38 124 78 136 88 11 11 23 19 27 19 8 0 139 81 147
90 3 4 13 11 22 16 16 9 13 20 -32 118 -27 59 -59 140 -70 180 -12 39 -28 85
-36 102 -9 17 -14 37 -12 44 2 11 -18 16 -92 22 -89 7 -252 39 -288 57 -10 4
-35 16 -57 27 -63 29 -199 114 -208 130 -4 8 -12 14 -18 14 -9 0 -70 62 -118
120 -11 14 -25 30 -31 37 -5 7 -22 34 -36 60 -15 26 -33 57 -41 68 -14 18 -14
17 -8 -20z M1235 1013 c-22 -13 -59 -36 -82 -51 -24 -15 -96 -60 -160 -100
-65 -40 -159 -99 -210 -130 l-91 -58 40 -59 c131 -197 185 -247 303 -280 122
-35 237 -2 334 93 105 103 135 223 93 359 -22 67 -148 254 -172 252 -8 -1 -33
-12 -55 -26z"/>
</g>
<g transform="translate(0.000000,500.000000) scale(0.100000,-0.100000)"
fill="#737373" stroke="none">
<path d="M1088 4723 c17 -2 47 -2 65 0 17 2 3 4 -33 4 -36 0 -50 -2 -32 -4z
M1215 4710 c11 -5 27 -9 35 -9 9 0 8 4 -5 9 -11 5 -27 9 -35 9 -9 0 -8 -4 5
-9z M884 4638 c-25 -23 -55 -56 -66 -72 -15 -23 -11 -21 14 8 19 22 52 54 74
73 21 18 36 33 31 33 -4 0 -28 -19 -53 -42z M1343 4649 c21 -19 52 -50 69 -69
25 -29 27 -30 10 -5 -21 31 -62 71 -97 94 -11 8 -3 -1 18 -20z M1461 4480 c0
-8 4 -24 9 -35 5 -13 9 -14 9 -5 0 8 -4 24 -9 35 -5 13 -9 14 -9 5z M733 4448
c-15 -20 -25 -38 -20 -38 3 0 12 11 21 25 17 26 16 35 -1 13z M1483 4370 c0
-25 2 -35 4 -22 2 12 2 32 0 45 -2 12 -4 2 -4 -23z M710 4357 c0 -3 12 -12 26
-22 15 -9 23 -12 20 -6 -7 11 -46 35 -46 28z M789 4303 c13 -10 43 -29 65 -41
34 -20 37 -20 16 -3 -14 11 -43 29 -65 41 -30 15 -34 16 -16 3z M640 4302 c0
-4 9 -8 20 -9 11 -1 18 2 15 8 -7 11 -35 12 -35 1z M1457 4248 c-9 -28 -12
-47 -8 -42 11 12 34 84 29 89 -2 3 -12 -18 -21 -47z M616 4256 c-23 -36 -20
-44 5 -12 12 15 19 29 16 32 -2 2 -12 -7 -21 -20z M576 4185 c-9 -14 -13 -25
-8 -25 5 0 14 11 20 25 6 14 10 25 8 25 -2 0 -11 -11 -20 -25z M845 4185 c22
-18 86 -53 70 -38 -5 6 -28 20 -50 32 -22 13 -31 15 -20 6z M1401 4143 c-25
-36 -26 -41 -6 -18 26 30 49 65 42 65 -2 0 -18 -21 -36 -47z M1109 4103 c13
-10 43 -28 65 -41 23 -13 30 -15 17 -5 -13 10 -43 28 -65 41 -23 13 -30 15
-17 5z M1322 4030 c-19 -34 -28 -36 -62 -14 l-25 16 24 -21 c32 -29 46 -26 70
14 11 19 18 35 15 35 -3 0 -13 -13 -22 -30z M1090 4032 c0 -6 9 -12 20 -15 11
-3 20 -3 20 -1 0 2 -9 8 -20 14 -11 6 -20 7 -20 2z M482 4005 c-17 -37 -14
-45 4 -12 9 16 14 31 11 33 -2 2 -9 -7 -15 -21z M1106 3545 c-3 -9 -6 -24 -5
-33 0 -9 5 -4 10 12 9 32 6 48 -5 21z M286 3485 c-3 -9 -6 -22 -5 -28 0 -7 5
-1 10 12 5 13 8 26 5 28 -2 2 -6 -3 -10 -12z M918 3463 c12 -2 30 -2 40 0 9 3
-1 5 -23 4 -22 0 -30 -2 -17 -4z M266 3405 c-3 -9 -6 -24 -5 -33 0 -9 5 -4 10
12 9 32 6 48 -5 21z M985 3384 c-181 -21 -290 -60 -422 -149 -251 -171 -383
-437 -370 -747 9 -233 78 -397 230 -552 123 -125 178 -164 297 -213 168 -70
429 -84 575 -31 66 23 140 53 145 58 3 3 27 16 53 30 27 14 55 33 64 43 9 9
19 17 24 17 4 0 38 30 75 68 68 68 159 198 184 262 7 19 16 40 20 45 22 35 60
224 60 303 0 143 -60 343 -139 467 -40 62 -158 191 -218 237 -47 36 -171 98
-246 122 -65 21 -251 50 -291 45 -6 -1 -24 -4 -41 -5z M529 3319 l-24 -20 28
17 c15 9 27 18 27 20 0 8 -8 4 -31 -17z M435 3254 c-38 -35 -27 -39 13 -3 18
16 28 29 24 29 -5 0 -21 -11 -37 -26z M292 3105 c-6 -14 -10 -25 -8 -25 2 0
11 11 20 25 9 14 13 25 8 25 -5 0 -14 -11 -20 -25z M229 3010 c-26 -45 -36
-55 -41 -42 -6 14 -7 14 -7 -4 -2 -41 13 -32 51 33 21 36 37 67 35 69 -2 2
-19 -23 -38 -56z M180 2098 c0 -19 2 -20 10 -8 13 19 13 30 0 30 -5 0 -10 -10
-10 -22z M250 2004 c0 -5 7 -18 15 -28 8 -11 15 -16 15 -10 0 5 -7 18 -15 28
-8 11 -15 16 -15 10z M290 1954 c0 -13 18 -39 24 -34 2 3 -2 14 -10 24 -8 11
-14 16 -14 10z M350 1876 c57 -64 71 -78 76 -74 2 2 -22 29 -54 59 -33 31 -42
38 -22 15z M445 1788 c5 -12 75 -63 75 -55 0 2 -18 18 -40 36 -22 17 -37 26
-35 19z M260 1664 c0 -10 5 -26 10 -34 8 -11 9 -7 4 15 -8 37 -14 45 -14 19z
M973 1573 c9 -2 23 -2 30 0 6 3 -1 5 -18 5 -16 0 -22 -2 -12 -5z M1040 1576
c0 -2 13 -6 29 -8 17 -2 28 -1 25 4 -5 8 -54 12 -54 4z M1091 1540 c0 -8 6
-24 14 -34 19 -25 19 -9 0 24 -8 14 -14 19 -14 10z M356 1350 c3 -14 11 -32
16 -40 6 -10 7 -7 2 10 -3 14 -11 32 -16 40 -6 10 -7 7 -2 -10z M1156 1350 c3
-14 11 -32 16 -40 6 -10 7 -7 2 10 -3 14 -11 32 -16 40 -6 10 -7 7 -2 -10z
M456 1100 c20 -43 24 -47 24 -29 0 8 -10 25 -21 39 l-20 25 17 -35z M1273
1043 c-10 -10 -14 -15 -9 -10 23 17 45 4 80 -48 20 -30 38 -55 41 -55 7 0 -79
130 -86 130 -4 0 -15 -8 -26 -17z M1121 1027 c-19 -11 -29 -23 -23 -25 6 -2
24 8 39 22 33 31 30 32 -16 3z M1049 983 c-13 -15 -12 -15 9 -4 23 12 28 21
13 21 -5 0 -15 -7 -22 -17z M1170 979 c-22 -18 -22 -19 -3 -10 12 6 25 16 28
21 9 15 3 12 -25 -11z M521 960 c14 -31 19 -36 19 -24 0 6 -7 19 -16 30 -14
18 -14 18 -3 -6z M1410 890 c12 -16 24 -30 26 -30 3 0 -4 14 -16 30 -12 17
-24 30 -26 30 -3 0 4 -13 16 -30z M550 905 c0 -10 40 -75 47 -75 2 0 -6 17
-18 38 -28 45 -29 47 -29 37z M820 839 c-22 -18 -22 -19 -3 -10 12 6 25 16 28
21 9 15 3 12 -25 -11z M600 815 c0 -5 9 -21 20 -35 11 -14 20 -20 20 -15 0 6
-9 21 -20 35 -11 14 -20 21 -20 15z M838 774 c-21 -13 -38 -26 -38 -29 0 -6
69 35 76 46 7 13 4 11 -38 -17z M1483 680 c0 -25 2 -35 4 -22 2 12 2 32 0 45
-2 12 -4 2 -4 -23z M725 613 c15 -24 30 -43 32 -43 7 0 -31 61 -46 73 -8 7 -2
-7 14 -30z M1355 413 c-33 -31 -46 -47 -30 -35 41 29 57 43 79 70 31 36 15 24
-49 -35z M899 396 c13 -16 51 -41 51 -33 0 2 -15 14 -32 27 -21 15 -28 17 -19
6z M1025 330 c11 -5 27 -9 35 -9 9 0 8 4 -5 9 -11 5 -27 9 -35 9 -9 0 -8 -4 5
-9z M1190 330 c-20 -6 -21 -8 -5 -8 11 0 29 3 40 8 25 11 -1 11 -35 0z"/>
</g>
</svg>