<svg xmlns="http://www.w3.org/2000/svg" viewBox="0 0 223 500" width="223" height="500">
<g transform="translate(0.000000,500.000000) scale(0.100000,-0.100000)"
fill="#020203" stroke="none">
<path d="M990 4844 c-139 -36 -213 -93 -319 -244 -352 -499 -561 -1069 -626
-1710 -32 -312 -13 -746 46 -1065 97 -520 336 -1068 635 -1456 154 -201 467
-241 701 -90 135 87 215 300 183 488 -14 89 -49 163 -132 284 -102 148 -208
365 -208 426 0 31 41 61 120 88 330 112 550 350 642 693 26 99 36 330 18 439
-30 188 -124 386 -248 525 -95 106 -281 220 -427 264 -33 10 -73 30 -88 44
l-28 27 34 89 c43 111 98 222 147 294 20 30 58 86 83 123 173 254 97 616 -156
740 -116 56 -259 72 -377 41z m295 -151 c148 -76 226 -233 195 -396 -13 -70
-25 -94 -118 -227 -45 -63 -67 -88 -75 -82 -7 5 -140 89 -297 187 -157 97
-291 182 -297 187 -21 17 146 248 217 300 104 77 260 90 375 31z m-332 -565
c161 -99 298 -186 305 -193 10 -9 4 -30 -32 -106 -43 -92 -95 -232 -116 -316
-11 -43 -11 -43 -58 -43 -26 0 -90 -7 -143 -15 -301 -45 -549 -223 -697 -500
-24 -44 -41 -71 -38 -60 2 11 7 47 11 80 29 276 124 631 247 920 78 182 202
414 221 415 5 0 140 -82 300 -182z m309 -762 c499 -127 777 -644 609 -1133
-94 -273 -335 -488 -627 -560 -103 -25 -305 -22 -409 6 -406 109 -678 483
-652 895 22 349 246 648 577 770 141 52 348 61 502 22z m-925 -1461 c160 -188
407 -309 655 -322 l106 -6 17 -61 c27 -100 85 -256 122 -330 29 -57 32 -71 21
-81 -19 -19 -580 -367 -598 -372 -19 -5 -128 188 -215 382 -119 266 -237 700
-260 961 l-7 69 49 -84 c26 -46 76 -116 110 -156z m1038 -950 c112 -165 133
-240 101 -365 -74 -291 -448 -371 -638 -137 -83 102 -151 209 -142 224 10 16
595 384 605 380 4 -1 37 -47 74 -102z"/>
</g>
<g transform="translate(0.000000,500.000000) scale(0.100000,-0.100000)"
fill="#999943" stroke="none">
<path d="M1083 4723 c9 -2 25 -2 35 0 9 3 1 5 -18 5 -19 0 -27 -2 -17 -5z
M1350 4647 c0 -2 15 -16 33 -33 l32 -29 -29 33 c-28 30 -36 37 -36 29z M1482
4365 c0 -16 2 -22 5 -12 2 9 2 23 0 30 -3 6 -5 -1 -5 -18z M950 3381 c-229
-27 -449 -152 -586 -334 -209 -278 -232 -644 -61 -957 49 -90 189 -235 287
-298 224 -145 537 -172 788 -69 249 102 443 328 511 594 23 89 29 278 12 369
-83 436 -508 747 -951 695z M1482 680 c0 -19 2 -27 5 -17 2 9 2 25 0 35 -3 9
-5 1 -5 -18z"/>
</g>
<g transform="translate(0.000000,500.000000) scale(0.100000,-0.100000)"
fill="#fefd6f" stroke="none">
<path d="M1074 4719 c-122 -14 -189 -66 -311 -238 -59 -84 -71 -107 -61 -116
33 -31 602 -377 605 -369 2 6 35 56 73 113 83 122 104 184 98 285 -14 207
-191 349 -404 325z M597 4211 c-188 -327 -315 -689 -383 -1089 -33 -196 -32
-200 22 -108 156 266 459 445 778 459 l79 4 24 84 c27 93 82 237 120 313 14
27 21 52 16 56 -4 4 -141 91 -304 193 l-297 184 -55 -96z M190 2088 c0 -96 87
-488 150 -678 71 -211 198 -493 283 -626 l32 -51 297 186 c163 102 299 189
302 192 3 3 -16 56 -44 117 -27 61 -65 162 -84 224 l-34 113 -97 8 c-330 25
-617 204 -769 477 -30 54 -36 60 -36 38z M1210 1000 c-41 -27 -142 -90 -225
-141 -82 -51 -183 -114 -222 -139 l-73 -47 68 -99 c131 -194 210 -247 367
-248 80 -1 97 2 149 28 160 79 242 259 193 426 -16 53 -154 270 -172 269 -5
-1 -44 -22 -85 -49z"/>
</g>
<g transform="translate(0.000000,500.000000) scale(0.100000,-0.100000)"
fill="#595920" stroke="none">
<path d="M608 4248 c-22 -34 -52 -95 -41 -83 13 14 65 105 60 105 -3 0 -11
-10 -19 -22z M755 4245 c11 -9 29 -21 40 -26 l20 -10 -20 16 c-11 9 -29 21
-40 26 l-20 10 20 -16z M835 4195 c11 -9 29 -21 40 -26 l20 -10 -20 16 c-11 9
-29 21 -40 26 l-20 10 20 -16z M915 4145 c11 -9 29 -21 40 -26 l20 -10 -20 16
c-11 9 -29 21 -40 26 l-20 10 20 -16z M504 4059 c-14 -28 -24 -53 -22 -55 2
-2 16 21 31 51 15 30 25 55 22 55 -3 0 -16 -23 -31 -51z M995 4095 c11 -9 29
-21 40 -26 l20 -10 -20 16 c-11 9 -29 21 -40 26 l-20 10 20 -16z M1075 4045
c11 -9 29 -21 40 -26 l20 -10 -20 16 c-11 9 -29 21 -40 26 l-20 10 20 -16z
M1239 3942 l23 -19 -26 -51 c-14 -28 -26 -55 -26 -59 1 -4 14 18 31 50 31 61
31 70 -4 88 -21 10 -20 9 2 -9z M336 3655 c-3 -9 -6 -22 -5 -28 0 -7 5 -1 10
12 5 13 8 26 5 28 -2 2 -6 -3 -10 -12z M296 3524 c-4 -14 -5 -28 -3 -31 3 -2
8 8 11 23 4 14 5 28 3 31 -3 2 -8 -8 -11 -23z M928 3463 c12 -2 30 -2 40 0 9
3 -1 5 -23 4 -22 0 -30 -2 -17 -4z M948 3383 c12 -2 32 -2 45 0 12 2 2 4 -23
4 -25 0 -35 -2 -22 -4z M1118 3383 c12 -2 32 -2 45 0 12 2 2 4 -23 4 -25 0
-35 -2 -22 -4z M470 3277 c-64 -51 -187 -181 -213 -226 -28 -48 -14 -37 26 22
37 54 150 168 217 219 19 15 33 27 30 28 -3 0 -30 -19 -60 -43z M577 3255
c-20 -14 -37 -28 -37 -31 0 -2 18 8 40 22 35 23 47 34 37 34 -1 0 -19 -11 -40
-25z M1560 3223 c19 -15 64 -55 100 -88 l65 -59 -54 56 c-30 31 -75 71 -100
88 -40 27 -41 28 -11 3z M212 3155 c0 -16 2 -22 5 -12 2 9 2 23 0 30 -3 6 -5
-1 -5 -18z M430 3135 c-24 -25 -42 -45 -39 -45 3 0 25 20 49 45 24 25 42 45
39 45 -3 0 -25 -20 -49 -45z M202 3095 c0 -16 2 -22 5 -12 2 9 2 23 0 30 -3 6
-5 -1 -5 -18z M1745 3035 c40 -56 51 -66 29 -27 -10 18 -28 41 -38 50 -12 10
-8 0 9 -23z M192 3030 c0 -19 2 -27 5 -17 2 9 2 25 0 35 -3 9 -5 1 -5 -18z
M211 2973 c-19 -35 -20 -36 -22 -13 -1 14 -5 3 -9 -25 -4 -27 -6 -51 -6 -52 1
-1 16 27 34 62 34 69 36 91 3 28z M264 2899 c-14 -28 -24 -53 -22 -55 2 -2 16
21 31 51 15 30 25 55 22 55 -3 0 -16 -23 -31 -51z M1841 2880 c0 -3 11 -34 25
-70 13 -36 22 -51 19 -35 -6 28 -43 116 -44 105z M1914 2525 c0 -60 1 -84 3
-52 2 32 2 81 0 110 -2 29 -3 3 -3 -58z M184 2525 c0 -55 1 -76 3 -47 2 29 2
74 0 100 -2 26 -3 2 -3 -53z M192 2385 c0 -16 2 -22 5 -12 2 9 2 23 0 30 -3 6
-5 -1 -5 -18z M1822 2135 c-12 -25 -20 -45 -17 -45 7 0 47 81 43 86 -3 2 -14
-17 -26 -41z M180 2090 c0 -16 2 -30 4 -30 2 0 6 14 8 30 3 17 1 30 -4 30 -4
0 -8 -13 -8 -30z M225 2050 c9 -16 18 -30 21 -30 2 0 -2 14 -11 30 -9 17 -18
30 -21 30 -2 0 2 -13 11 -30z M1765 2038 c-16 -24 -22 -38 -14 -31 15 12 53
73 46 73 -2 0 -17 -19 -32 -42z M192 2015 c0 -16 2 -22 5 -12 2 9 2 23 0 30
-3 6 -5 -1 -5 -18z M260 1991 c5 -11 15 -23 21 -27 6 -3 3 5 -6 20 -20 30 -30
35 -15 7z M1640 1897 c-52 -50 -81 -82 -65 -70 30 22 174 163 165 163 -3 -1
-48 -42 -100 -93z M430 1916 c36 -37 85 -81 110 -97 44 -29 44 -29 10 -2 -19
15 -69 59 -110 98 l-75 69 65 -68z M329 1902 c39 -47 121 -122 161 -147 9 -6
0 3 -20 19 -19 16 -68 63 -109 105 -58 59 -65 64 -32 23z M660 1655 c14 -8 30
-14 35 -14 6 0 -1 6 -15 14 -14 8 -29 14 -35 14 -5 0 1 -6 15 -14z M1163 1663
c9 -2 23 -2 30 0 6 3 -1 5 -18 5 -16 0 -22 -2 -12 -5z M1013 1653 c20 -2 54
-2 75 0 20 2 3 4 -38 4 -41 0 -58 -2 -37 -4z M735 1625 c17 -8 37 -14 45 -14
8 0 -1 7 -20 14 -46 18 -64 17 -25 0z M893 1583 c9 -2 23 -2 30 0 6 3 -1 5
-18 5 -16 0 -22 -2 -12 -5z M975 1574 c46 -7 125 -8 125 -1 0 4 -33 6 -72 6
-40 -1 -64 -3 -53 -5z M1101 1540 c0 -8 4 -24 9 -35 5 -13 9 -14 9 -5 0 8 -4
24 -9 35 -5 13 -9 14 -9 5z M311 1480 c0 -8 4 -24 9 -35 5 -13 9 -14 9 -5 0 8
-4 24 -9 35 -5 13 -9 14 -9 5z M1132 1428 c3 -7 13 -37 23 -66 9 -29 19 -52
21 -49 5 5 -36 127 -43 127 -3 0 -3 -6 -1 -12z M346 1370 c3 -14 11 -32 16
-40 6 -10 7 -7 2 10 -3 14 -11 32 -16 40 -6 10 -7 7 -2 -10z M1220 1207 c0 -4
10 -26 21 -49 21 -40 21 -42 3 -55 -52 -38 -57 -43 -26 -26 54 29 56 36 28 90
-14 26 -25 44 -26 40z M411 1195 c0 -5 6 -21 14 -35 8 -14 14 -20 14 -15 0 6
-6 21 -14 35 -8 14 -14 21 -14 15z M451 1105 c0 -5 6 -21 14 -35 8 -14 14 -20
14 -15 0 6 -6 21 -14 35 -8 14 -14 21 -14 15z M1108 1017 c-61 -39 -106 -73
-68 -52 41 23 140 87 140 91 0 6 -2 6 -72 -39z M983 939 c-35 -22 -46 -37 -15
-20 22 13 58 40 52 41 -3 0 -20 -10 -37 -21z M565 870 c9 -16 18 -30 21 -30 2
0 -2 14 -11 30 -9 17 -18 30 -21 30 -2 0 2 -13 11 -30z M823 839 c-35 -22 -46
-37 -15 -20 22 13 58 40 52 41 -3 0 -20 -10 -37 -21z M743 789 c-35 -22 -46
-37 -15 -20 22 13 58 40 52 41 -3 0 -20 -10 -37 -21z M860 425 c13 -14 26 -25
28 -25 3 0 -5 11 -18 25 -13 14 -26 25 -28 25 -3 0 5 -11 18 -25z M1113 313
c9 -2 23 -2 30 0 6 3 -1 5 -18 5 -16 0 -22 -2 -12 -5z"/>
</g>
</svg>