<svg xmlns="http://www.w3.org/2000/svg" viewBox="0 0 223 500" width="223" height="500">
<g transform="translate(0.000000,500.000000) scale(0.100000,-0.100000)"
fill="#050202" stroke="none">
<path d="M990 4844 c-139 -36 -213 -93 -319 -244 -352 -499 -561 -1069 -626
-1710 -32 -312 -13 -746 46 -1065 97 -520 336 -1068 635 -1456 154 -201 467
-241 701 -90 135 87 215 300 183 488 -14 89 -49 163 -132 284 -102 148 -208
365 -208 426 0 31 41 61 120 88 330 112 550 350 642 693 26 99 36 330 18 439
-30 188 -124 386 -248 525 -95 106 -281 220 -427 264 -33 10 -73 30 -88 44
l-28 27 34 89 c43 111 98 222 147 294 20 30 58 86 83 123 173 254 97 616 -156
740 -116 56 -259 72 -377 41z m294 -153 c153 -75 234 -247 192 -411 -16 -63
-156 -290 -179 -290 -16 0 -607 371 -607 381 0 19 116 185 169 243 110 118
280 149 425 77z m-557 -424 c37 -24 175 -110 305 -191 190 -118 236 -151 230
-164 -3 -9 -23 -52 -44 -94 -35 -73 -97 -246 -112 -315 -7 -29 -11 -32 -45
-31 -155 2 -358 -55 -501 -140 -108 -65 -271 -231 -333 -342 l-49 -85 6 50
c47 415 194 881 385 1215 29 52 59 105 65 117 14 30 15 30 93 -20z m491 -893
c456 -94 765 -532 692 -982 -74 -454 -498 -784 -943 -733 -396 45 -703 331
-773 721 -73 408 173 822 570 961 145 50 311 63 454 33z m-974 -1343 c156
-264 433 -430 751 -450 l99 -6 14 -50 c37 -126 91 -269 135 -354 15 -30 24
-57 20 -61 -14 -13 -158 -107 -169 -111 -6 -2 -49 -28 -95 -57 -315 -200 -359
-224 -359 -203 0 5 -17 38 -38 72 -87 143 -212 422 -263 584 -11 39 -30 97
-40 130 -45 146 -120 517 -118 586 0 28 -2 31 63 -80z m1133 -1079 c110 -165
130 -238 99 -359 -70 -273 -412 -369 -608 -171 -65 66 -182 240 -172 255 8 13
593 383 604 382 3 0 37 -48 77 -107z"/>
</g>
<g transform="translate(0.000000,500.000000) scale(0.100000,-0.100000)"
fill="#973d3c" stroke="none">
<path d="M1073 4723 c9 -2 23 -2 30 0 6 3 -1 5 -18 5 -16 0 -22 -2 -12 -5z
M1153 4723 c9 -2 23 -2 30 0 6 3 -1 5 -18 5 -16 0 -22 -2 -12 -5z M869 4623
c-39 -42 -90 -105 -63 -78 30 29 116 125 113 125 -3 0 -25 -21 -50 -47z M1375
4620 c21 -22 41 -40 44 -40 3 0 -13 18 -34 40 -21 22 -41 40 -44 40 -3 0 13
-18 34 -40z M1483 4365 c0 -27 2 -38 4 -22 2 15 2 37 0 50 -2 12 -4 0 -4 -28z
M1377 4108 c-30 -41 -64 -97 -51 -83 16 16 84 115 79 115 -2 0 -15 -15 -28
-32z M1222 3845 c-17 -37 -14 -45 4 -12 9 16 14 31 11 33 -2 2 -9 -7 -15 -21z
M923 3463 c9 -2 25 -2 35 0 9 3 1 5 -18 5 -19 0 -27 -2 -17 -5z M901 3379
c-155 -26 -342 -123 -458 -237 -524 -519 -213 -1399 524 -1483 445 -51 869
279 943 733 93 576 -426 1083 -1009 987z M375 3188 l-80 -83 83 80 c45 44 82
81 82 82 0 8 -11 -3 -85 -79z M180 2943 c0 -24 3 -33 9 -25 7 12 4 62 -5 62
-2 0 -4 -17 -4 -37z M180 2096 c0 -20 2 -36 4 -36 8 0 12 61 4 66 -4 3 -8 -11
-8 -30z M375 1850 c27 -27 51 -50 54 -50 3 0 -17 23 -44 50 -27 28 -51 50 -54
50 -3 0 17 -22 44 -50z M975 1574 c46 -7 123 -8 118 -1 -2 4 -34 6 -71 6 -37
-1 -58 -3 -47 -5z M321 1450 c0 -8 4 -22 9 -30 12 -18 12 -2 0 25 -6 13 -9 15
-9 5z M351 1360 c0 -8 4 -22 9 -30 12 -18 12 -2 0 25 -6 13 -9 15 -9 5z M1250
1142 c6 -12 8 -28 4 -34 -4 -7 -3 -8 4 -4 16 10 15 18 -4 42 -14 18 -15 18 -4
-4z M1130 1030 c-25 -16 -42 -30 -37 -30 8 0 87 51 87 56 0 7 -4 5 -50 -26z
M1274 1044 c-18 -14 -18 -14 6 -3 31 14 36 19 24 19 -6 0 -19 -7 -30 -16z
M1340 991 c5 -11 15 -23 21 -27 6 -3 3 5 -6 20 -20 30 -30 35 -15 7z M970 929
c-22 -18 -22 -19 -3 -10 12 6 25 16 28 21 9 15 3 12 -25 -11z M1483 680 c0
-30 2 -43 4 -27 2 15 2 39 0 55 -2 15 -4 2 -4 -28z M860 425 c13 -14 26 -25
28 -25 3 0 -5 11 -18 25 -13 14 -26 25 -28 25 -3 0 5 -11 18 -25z M1320 379
c-22 -18 -22 -19 -3 -10 12 6 25 16 28 21 9 15 3 12 -25 -11z"/>
</g>
<g transform="translate(0.000000,500.000000) scale(0.100000,-0.100000)"
fill="#fd6665" stroke="none">
<path d="M1045 4705 c-22 -8 -50 -15 -63 -15 -23 0 -157 -127 -208 -197 -29
-39 -77 -123 -73 -126 2 -2 22 -12 44 -22 22 -11 70 -42 108 -69 45 -32 74
-46 87 -43 15 4 20 0 20 -14 0 -18 14 -24 50 -20 12 2 12 0 2 -7 -16 -11 81
-78 98 -67 5 3 10 -1 10 -9 0 -9 5 -16 11 -16 6 0 30 -13 53 -28 22 -15 49
-31 59 -35 9 -3 17 -11 17 -17 0 -17 34 -11 51 8 36 42 99 132 99 141 0 6 6
14 13 18 16 9 57 138 57 177 0 41 -38 167 -57 190 -40 49 -88 96 -96 96 -6 0
-15 7 -21 15 -14 19 -138 55 -186 55 -19 -1 -53 -7 -75 -15z m402 -352 c-3
-10 -5 -4 -5 12 0 17 2 24 5 18 2 -7 2 -21 0 -30z m-587 -33 c0 -5 -7 -10 -15
-10 -8 0 -15 5 -15 10 0 6 7 10 15 10 8 0 15 -4 15 -10z m260 -130 c0 -5 -4
-10 -9 -10 -6 0 -13 5 -16 10 -3 6 1 10 9 10 9 0 16 -4 16 -10z M635 4253
c-14 -15 -25 -33 -25 -40 0 -6 -3 -13 -7 -15 -12 -5 -74 -128 -88 -173 -6 -22
-17 -39 -23 -37 -7 1 -12 -5 -12 -13 0 -8 -9 -34 -19 -57 -11 -24 -30 -70 -42
-103 -13 -33 -29 -69 -36 -80 -7 -11 -13 -29 -13 -42 0 -12 -4 -24 -9 -27 -5
-3 -12 -22 -15 -41 -4 -19 -11 -35 -16 -35 -4 0 -11 -19 -15 -42 -8 -51 -24
-115 -36 -143 -4 -11 -10 -38 -13 -60 -3 -22 -17 -94 -31 -160 -14 -66 -25
-135 -23 -155 l3 -35 22 38 c12 20 20 45 17 55 -5 13 -4 14 4 3 11 -15 32 -7
32 13 0 11 164 186 175 186 2 0 36 20 74 45 38 25 76 45 84 45 9 0 17 3 19 8
5 11 94 53 125 58 16 2 63 11 105 20 43 8 108 16 145 17 l67 2 7 35 c4 19 12
36 18 38 6 2 11 17 11 32 0 16 5 32 10 35 5 3 10 15 10 25 0 11 7 36 16 57 46
104 69 163 69 175 0 4 6 13 13 20 19 19 15 25 -32 53 -24 14 -50 32 -56 40 -7
8 -28 15 -46 15 -21 0 -34 5 -34 13 0 13 -113 97 -131 97 -5 0 -22 8 -37 18
-82 56 -153 102 -158 102 -3 0 -17 9 -31 20 -34 27 -47 25 -78 -7z M210 2010
c1 -30 12 -104 26 -165 14 -60 28 -128 30 -150 3 -22 9 -49 13 -60 16 -39 30
-91 36 -128 4 -20 13 -49 21 -65 7 -15 14 -32 14 -38 0 -7 7 -25 15 -40 8 -16
15 -39 15 -51 0 -13 5 -23 10 -23 6 0 10 -8 10 -17 0 -10 7 -31 15 -47 8 -15
15 -37 15 -47 0 -11 3 -19 8 -19 9 0 42 -74 42 -96 0 -8 4 -13 9 -10 9 6 31
-36 31 -59 0 -7 16 -41 35 -75 19 -34 35 -66 35 -71 0 -5 3 -9 8 -9 8 0 47
-68 47 -84 1 -6 7 -10 15 -8 17 4 109 61 128 79 7 7 20 13 28 13 8 0 14 4 14
9 0 9 11 16 102 63 20 11 42 26 49 34 6 8 18 14 25 14 8 0 19 9 26 20 7 11 21
20 31 20 11 0 21 9 24 19 3 11 11 17 18 15 13 -5 112 53 132 78 9 11 7 25 -11
63 -13 28 -30 66 -39 85 -8 19 -22 51 -31 72 -9 20 -16 45 -16 56 0 12 -4 24
-10 27 -5 3 -10 19 -10 36 0 16 -4 29 -9 29 -9 0 -23 40 -25 69 -1 10 -21 14
-86 16 -47 1 -107 9 -135 18 -27 8 -71 18 -97 22 -26 3 -54 13 -62 21 -8 8
-19 14 -25 14 -11 0 -83 32 -91 40 -12 13 -107 68 -127 75 -13 3 -23 10 -23
15 0 4 -34 41 -75 81 -41 41 -75 81 -75 89 0 8 -9 21 -20 28 -11 7 -20 18 -20
25 0 6 -9 26 -20 42 l-20 30 0 -55z m757 -1056 c-9 -9 -28 6 -21 18 4 6 10 6
17 -1 6 -6 8 -13 4 -17z M1260 1020 c-13 -11 -29 -20 -35 -20 -7 0 -16 -7 -19
-15 -3 -9 -29 -27 -58 -40 -59 -27 -135 -70 -158 -90 -8 -6 -24 -15 -35 -20
-13 -5 -15 -9 -7 -12 6 -3 12 -9 12 -15 0 -6 -6 -5 -15 2 -13 10 -19 10 -33
-4 -10 -9 -23 -16 -29 -16 -6 0 -13 -3 -15 -8 -2 -4 -39 -29 -83 -56 -44 -27
-82 -51 -84 -52 -2 -2 17 -33 43 -69 25 -36 46 -70 46 -74 0 -16 28 -33 35
-21 3 5 11 10 18 10 8 0 8 -3 -1 -12 -18 -18 -15 -25 33 -73 45 -46 69 -55 79
-32 3 6 3 0 0 -14 -5 -25 -3 -27 69 -44 75 -18 133 -17 222 3 40 9 84 40 134
96 14 16 36 40 49 54 12 14 22 35 22 47 0 12 7 43 16 69 9 25 14 61 11 79 -9
63 -39 159 -55 177 -9 10 -33 40 -52 67 -19 26 -46 60 -61 76 l-26 27 -23 -20z
m-400 -300 c0 -5 -4 -10 -9 -10 -6 0 -13 5 -16 10 -3 6 1 10 9 10 9 0 16 -4
16 -10z"/>
</g>
<g transform="translate(0.000000,500.000000) scale(0.100000,-0.100000)"
fill="#de6d70" stroke="none">
<path d="M1010 4708 c-19 -6 -30 -13 -23 -15 6 -2 31 3 55 11 48 17 22 20 -32
4z M1210 4704 c25 -7 50 -13 55 -13 18 1 -59 27 -80 28 -11 0 0 -7 25 -15z
M1306 4666 c3 -9 12 -16 19 -16 7 0 37 -26 66 -57 29 -32 43 -44 31 -28 -19
29 -67 76 -105 104 -15 12 -17 12 -11 -3z M875 4618 l-50 -52 55 49 c30 27 57
50 59 52 2 2 0 3 -5 3 -5 0 -32 -23 -59 -52z M1456 4475 c11 -48 25 -76 18
-35 -4 19 -10 42 -15 50 -6 10 -7 5 -3 -15z M1442 4365 c0 -16 2 -22 5 -12 2
9 2 23 0 30 -3 6 -5 -1 -5 -18z M750 4336 c0 -2 29 -22 65 -45 76 -47 85 -47
18 1 -45 32 -83 52 -83 44z M830 4320 c0 -5 7 -10 15 -10 8 0 15 5 15 10 0 6
-7 10 -15 10 -8 0 -15 -4 -15 -10z M1461 4279 c-7 -22 -11 -43 -8 -45 2 -2 9
14 16 37 7 22 11 43 8 45 -2 2 -9 -14 -16 -37z M644 4292 c-6 -10 -20 -34 -33
-54 -12 -21 -18 -38 -12 -38 6 0 11 6 11 13 0 23 51 69 71 64 25 -7 24 -3 -4
16 -21 14 -24 13 -33 -1z M722 4254 c10 -10 20 -15 24 -12 3 4 -5 12 -18 18
-22 12 -22 12 -6 -6z M760 4236 c0 -3 26 -22 58 -42 31 -20 69 -45 84 -55 28
-19 50 -26 32 -10 -15 14 -174 112 -174 107z M938 4232 c-17 -7 -16 -8 2 -20
17 -11 20 -10 20 8 0 11 -1 20 -2 19 -2 0 -11 -4 -20 -7z M972 4196 c2 -1 12
-8 22 -16 11 -8 17 -10 13 -3 -4 6 -1 13 5 16 7 2 0 4 -15 4 -15 0 -27 0 -25
-1z M1095 4190 c3 -5 10 -10 16 -10 5 0 9 5 9 10 0 6 -7 10 -16 10 -8 0 -12
-4 -9 -10z M531 4091 c-30 -59 -47 -102 -41 -106 9 -6 30 33 30 56 0 6 16 40
35 76 19 36 33 68 31 70 -2 2 -27 -41 -55 -96z M1145 4087 c51 -35 75 -49 75
-43 0 7 -76 56 -87 56 -4 0 1 -6 12 -13z M1048 4055 c12 -10 22 -24 22 -31 0
-9 11 -14 27 -14 26 0 27 1 8 13 -11 8 -33 22 -50 31 -27 16 -28 16 -7 1z
M1306 4025 c-3 -8 -13 -15 -23 -15 -15 0 -15 -2 -3 -9 8 -6 18 -7 22 -5 14 9
29 44 19 44 -5 0 -11 -7 -15 -15z M425 3863 c-58 -144 -61 -153 -43 -128 7 11
24 47 37 80 12 33 32 81 43 107 12 27 19 50 16 53 -2 3 -26 -48 -53 -112z
M1245 3932 c4 -8 0 -21 -11 -33 -9 -10 -14 -19 -10 -19 3 0 0 -13 -9 -30 -8
-16 -15 -35 -15 -42 0 -7 14 16 30 51 23 49 28 67 19 75 -9 8 -10 8 -4 -2z
M361 3703 c0 -6 -4 -20 -7 -30 -5 -14 -4 -15 5 -7 7 7 11 20 8 30 -3 11 -5 14
-6 7z M1146 3685 c-3 -9 -6 -22 -5 -28 0 -7 5 -1 10 12 5 13 8 26 5 28 -2 2
-6 -3 -10 -12z M336 3624 c-4 -14 -5 -28 -3 -31 3 -2 8 8 11 23 4 14 5 28 3
31 -3 2 -8 -8 -11 -23z M1096 3535 c-4 -16 -12 -38 -17 -49 -8 -14 -7 -17 2
-14 14 5 33 63 26 81 -3 7 -8 -1 -11 -18z M296 3494 c-4 -14 -5 -28 -3 -31 3
-2 8 8 11 23 4 14 5 28 3 31 -3 2 -8 -8 -11 -23z M950 3479 c-30 -5 -26 -7 23
-8 31 0 57 1 57 3 0 8 -47 11 -80 5z M278 3427 c-3 -19 -2 -25 4 -19 6 6 8 18
6 28 -3 14 -5 12 -10 -9z M696 3420 c-31 -14 -56 -29 -56 -33 0 -4 10 -3 22 4
11 6 51 22 87 35 49 17 58 22 34 21 -17 0 -56 -13 -87 -27z M537 3335 c-37
-25 -70 -45 -72 -45 -8 0 -175 -173 -175 -181 0 -4 33 27 73 68 79 82 139 129
220 174 28 16 45 29 37 28 -8 0 -45 -20 -83 -44z M252 3319 c-14 -60 -14 -86
0 -44 11 36 21 95 16 95 -3 0 -10 -23 -16 -51z M226 3199 c-4 -23 -5 -44 -2
-46 2 -2 7 14 11 37 4 23 5 43 2 46 -2 3 -7 -14 -11 -37z M254 3088 c3 -10 -5
-35 -17 -55 l-22 -38 -6 40 c-3 22 -7 31 -8 19 0 -12 -4 -43 -7 -70 l-6 -49
41 69 c32 53 39 72 30 85 -10 14 -10 14 -5 -1z M191 2085 c0 -16 4 -50 8 -75
l7 -45 5 53 c2 31 -1 62 -8 75 -12 21 -12 21 -12 -8z M290 1933 c1 -5 19 -26
42 -48 l41 -40 -38 48 c-37 47 -45 54 -45 40z M232 1825 c0 -16 2 -22 5 -12 2
9 2 23 0 30 -3 6 -5 -1 -5 -18z M430 1794 c0 -18 16 -33 45 -44 17 -6 26 -8
20 -3 -5 5 -22 19 -37 32 -16 14 -28 20 -28 15z M251 1735 c1 -11 5 -31 9 -45
8 -24 8 -24 9 5 0 17 -4 37 -9 45 -8 12 -10 11 -9 -5z M590 1682 c0 -7 81 -44
86 -39 2 2 -17 13 -41 25 -25 12 -45 18 -45 14z M278 1613 c5 -21 7 -23 10 -9
2 10 0 22 -6 28 -6 6 -7 0 -4 -19z M700 1629 c0 -9 77 -32 90 -27 5 2 -14 10
-41 19 -27 8 -49 12 -49 8z M295 1555 c4 -17 11 -34 16 -39 5 -5 4 5 -1 24
-12 42 -24 55 -15 15z M930 1570 c46 -9 127 -13 119 -6 -2 2 -40 6 -84 9 -60
4 -69 3 -35 -3z M1085 1552 c4 -33 17 -72 25 -72 4 0 3 18 -4 39 -12 43 -24
61 -21 33z M1144 1365 c4 -16 12 -34 17 -40 5 -5 4 6 -2 25 -15 45 -24 54 -15
15z M361 1350 c15 -45 24 -54 15 -15 -4 17 -12 34 -17 40 -5 5 -4 -6 2 -25z
M1190 1258 c0 -11 30 -78 35 -78 3 0 -2 17 -10 37 -15 36 -25 52 -25 41z M410
1213 c0 -4 5 -15 10 -23 8 -13 10 -13 10 2 0 9 -4 20 -10 23 -5 3 -10 3 -10
-2z M441 1150 c0 -8 8 -31 19 -50 25 -46 25 -27 0 25 -11 22 -19 33 -19 25z
M1243 1140 c2 -8 -5 -26 -17 -39 l-21 -24 28 18 c30 19 31 23 16 45 -9 13 -10
13 -6 0z M487 1054 c-3 -5 3 -25 14 -44 13 -26 18 -30 18 -15 0 25 -24 71 -32
59z M1290 1042 c0 -9 38 -52 46 -52 3 0 -3 14 -13 30 -16 29 -33 39 -33 22z
M1090 1024 c0 -9 -5 -12 -12 -8 -7 4 -8 3 -4 -4 5 -9 13 -9 27 -2 23 13 24 16
4 24 -9 3 -15 0 -15 -10z M1236 1014 c-11 -8 -16 -14 -10 -14 13 0 39 18 34
24 -3 2 -14 -2 -24 -10z M1032 980 c-12 -20 -12 -21 13 -4 28 18 31 24 12 24
-7 0 -18 -9 -25 -20z M1161 969 c-24 -15 -46 -31 -50 -34 -13 -14 74 26 88 40
26 26 7 23 -38 -6z M946 972 c-3 -6 -1 -14 5 -17 15 -10 25 3 12 16 -7 7 -13
7 -17 1z M1360 950 c11 -16 26 -33 32 -36 7 -4 -1 9 -16 29 -34 44 -46 50 -16
7z M540 930 c11 -22 23 -40 25 -40 3 0 -4 18 -15 40 -11 22 -23 40 -25 40 -3
0 4 -18 15 -40z M905 899 c-16 -11 -41 -25 -54 -30 -13 -5 -21 -12 -18 -15 3
-4 32 10 64 30 31 20 53 36 48 36 -6 0 -23 -9 -40 -21z M612 800 c13 -22 27
-40 31 -40 4 0 -3 18 -15 40 -13 22 -27 40 -31 40 -4 0 3 -18 15 -40z M790
830 c-8 -5 -12 -11 -10 -14 3 -2 14 2 24 10 22 15 10 19 -14 4z M1452 805 c0
-11 6 -36 13 -55 8 -22 13 -28 13 -15 0 11 -6 36 -13 55 -8 22 -13 28 -13 15z
M835 720 c3 -5 10 -10 16 -10 5 0 9 5 9 10 0 6 -7 10 -16 10 -8 0 -12 -4 -9
-10z M1460 595 c-7 -25 -11 -48 -8 -51 3 -2 11 16 18 41 7 25 11 48 8 51 -3 2
-11 -16 -18 -41z M730 611 c5 -11 15 -23 21 -27 6 -3 3 5 -6 20 -20 30 -30 35
-15 7z M821 506 c-9 -10 -7 -17 6 -27 12 -10 15 -11 9 -1 -4 7 -2 19 4 27 7 9
8 15 2 15 -5 0 -15 -6 -21 -14z M1407 477 c-15 -23 -53 -62 -92 -93 -14 -11
-10 -10 14 3 34 18 108 99 99 109 -3 2 -12 -6 -21 -19z M865 430 c16 -16 30
-28 32 -26 5 5 -45 56 -54 56 -4 0 6 -13 22 -30z M950 401 c0 -9 -8 -11 -21
-8 -16 4 -18 3 -8 -9 6 -8 15 -14 19 -14 10 0 22 31 15 38 -3 3 -5 0 -5 -7z
M1005 340 c11 -5 29 -9 40 -9 l20 0 -20 9 c-11 5 -29 9 -40 9 l-20 0 20 -9z
M1205 340 l-20 -9 20 0 c11 0 29 4 40 9 l20 9 -20 0 c-11 0 -29 -4 -40 -9z
M1098 323 c18 -2 45 -2 60 0 15 2 0 4 -33 4 -33 0 -45 -2 -27 -4z"/>
</g>
</svg>