<svg xmlns="http://www.w3.org/2000/svg" viewBox="0 0 223 500" width="223" height="500">
<g transform="translate(0.000000,500.000000) scale(0.100000,-0.100000)"
fill="#010206" stroke="none">
<path d="M990 4844 c-139 -36 -213 -93 -319 -244 -352 -499 -561 -1069 -626
-1710 -32 -312 -13 -746 46 -1065 97 -520 336 -1068 635 -1456 154 -201 467
-241 701 -90 135 87 215 300 183 488 -14 89 -49 163 -132 284 -102 148 -208
365 -208 426 0 31 41 61 120 88 330 112 550 350 642 693 26 99 36 330 18 439
-30 188 -124 386 -248 525 -95 106 -281 220 -427 264 -33 10 -73 30 -88 44
l-28 27 34 89 c43 111 98 222 147 294 20 30 58 86 83 123 173 254 97 616 -156
740 -116 56 -259 72 -377 41z m294 -153 c154 -75 234 -247 192 -411 -17 -64
-156 -290 -179 -290 -19 0 -607 372 -607 384 0 17 122 190 169 240 110 118
280 149 425 77z m-542 -433 c448 -278 489 -304 510 -320 16 -12 15 -19 -26
-103 -42 -87 -107 -266 -121 -332 -6 -32 -8 -33 -55 -33 -328 0 -661 -195
-822 -481 -57 -99 -58 -94 -24 111 29 176 75 373 105 455 5 11 21 61 36 110
16 50 32 97 36 105 5 8 27 60 49 115 50 121 128 278 175 351 19 30 35 59 35
64 0 18 19 10 102 -42z m470 -882 c129 -25 249 -78 358 -159 85 -64 99 -77
162 -159 195 -256 240 -555 126 -853 -17 -44 -35 -81 -40 -83 -4 -2 -8 -9 -8
-16 0 -25 -99 -153 -168 -217 -294 -273 -746 -310 -1073 -89 -366 249 -490
721 -293 1113 172 343 560 535 936 463z m-984 -1318 c156 -281 438 -456 766
-477 l99 -6 47 -145 c26 -80 62 -176 81 -215 18 -38 36 -78 41 -87 6 -14 -7
-27 -65 -64 -40 -26 -73 -50 -75 -55 -2 -5 -10 -9 -18 -9 -8 0 -27 -8 -42 -18
-98 -67 -401 -252 -412 -252 -5 0 -10 5 -10 12 0 6 -7 19 -15 28 -17 18 -158
294 -193 378 -107 254 -205 604 -236 847 -3 22 -8 61 -12 88 -4 26 -4 47 -1
47 3 0 23 -33 45 -72z m1142 -1095 c115 -171 137 -250 106 -371 -72 -283 -417
-369 -622 -156 -30 31 -54 62 -54 70 0 7 -4 14 -8 16 -16 7 -103 141 -99 153
3 6 58 45 124 85 65 40 199 124 298 187 99 62 182 113 185 113 3 -1 34 -44 70
-97z"/>
</g>
<g transform="translate(0.000000,500.000000) scale(0.100000,-0.100000)"
fill="#3b4196" stroke="none">
<path d="M1153 4723 c9 -2 23 -2 30 0 6 3 -1 5 -18 5 -16 0 -22 -2 -12 -5z
M884 4638 c-25 -23 -55 -56 -66 -72 -11 -17 -2 -10 21 16 23 26 56 59 74 73
18 13 29 25 24 25 -4 0 -28 -19 -53 -42z M1375 4620 c21 -22 41 -40 44 -40 3
0 -13 18 -34 40 -21 22 -41 40 -44 40 -3 0 13 -18 34 -40z M724 4438 c-35 -59
-37 -64 -19 -43 20 24 37 55 31 55 -3 0 -8 -6 -12 -12z M1483 4370 c0 -30 2
-43 4 -27 2 15 2 39 0 55 -2 15 -4 2 -4 -28z M705 4355 c11 -9 29 -21 40 -26
l20 -10 -20 16 c-11 9 -29 21 -40 26 l-20 10 20 -16z M835 4195 c11 -9 29 -21
40 -26 l20 -10 -20 16 c-11 9 -29 21 -40 26 l-20 10 20 -16z M915 4145 c11 -9
29 -21 40 -26 l20 -10 -20 16 c-11 9 -29 21 -40 26 l-20 10 20 -16z M1388
4123 c-18 -21 -31 -43 -25 -43 2 0 13 14 25 30 25 33 24 41 0 13z M510 4069
c-7 -11 -10 -23 -7 -25 2 -2 9 7 15 21 14 30 7 33 -8 4z M1090 4036 c0 -2 16
-13 36 -25 19 -12 32 -16 29 -11 -7 11 -65 43 -65 36z M1220 3957 c0 -3 12
-12 26 -22 15 -9 23 -12 20 -6 -7 11 -46 35 -46 28z M923 3463 c9 -2 25 -2 35
0 9 3 1 5 -18 5 -19 0 -27 -2 -17 -5z M790 3440 c-18 -12 -2 -12 25 0 13 6 15
9 5 9 -8 0 -22 -4 -30 -9z M885 3375 c-435 -79 -752 -512 -697 -948 90 -712
932 -1024 1454 -538 69 64 168 192 168 217 0 7 4 14 8 16 5 2 23 39 40 83 114
298 69 597 -126 853 -63 82 -77 95 -162 159 -197 146 -442 203 -685 158z M470
3276 c-30 -24 -82 -72 -115 -107 -52 -55 -49 -53 25 16 47 44 101 92 120 107
19 15 33 27 30 28 -3 0 -30 -20 -60 -44z M180 2943 c0 -24 3 -33 9 -25 7 12 4
62 -5 62 -2 0 -4 -17 -4 -37z M180 2101 c0 -17 2 -31 4 -31 8 0 13 51 5 56 -5
3 -9 -9 -9 -25z M375 1850 c27 -27 51 -50 54 -50 3 0 -17 23 -44 50 -27 28
-51 50 -54 50 -3 0 17 -22 44 -50z M975 1574 c46 -7 123 -8 118 -1 -2 4 -34 6
-71 6 -37 -1 -58 -3 -47 -5z M346 1370 c3 -14 11 -32 16 -40 6 -10 7 -7 2 10
-3 14 -11 32 -16 40 -6 10 -7 7 -2 -10z M1240 1099 c-22 -18 -22 -19 -3 -10
12 6 25 16 28 21 9 15 3 12 -25 -11z M1130 1030 c-25 -16 -39 -30 -33 -30 7 0
21 7 30 15 10 8 27 21 38 29 35 27 11 17 -35 -14z M1274 1044 c-18 -14 -18
-14 6 -3 31 14 36 19 24 19 -6 0 -19 -7 -30 -16z M1340 991 c5 -11 15 -23 21
-27 6 -3 3 5 -6 20 -20 30 -30 35 -15 7z M1050 979 c-22 -18 -22 -19 -3 -10
12 6 25 16 28 21 9 15 3 12 -25 -11z M970 929 c-22 -18 -22 -19 -3 -10 12 6
25 16 28 21 9 15 3 12 -25 -11z M1483 680 c0 -30 2 -43 4 -27 2 15 2 39 0 55
-2 15 -4 2 -4 -28z M800 503 c0 -5 10 -18 23 -29 l22 -19 -20 25 c-11 14 -21
27 -22 29 -2 2 -3 0 -3 -6z M1393 447 c-17 -18 -45 -45 -64 -60 -19 -15 -31
-27 -28 -27 11 0 87 64 109 93 29 37 20 34 -17 -6z M860 425 c13 -14 26 -25
28 -25 3 0 -5 11 -18 25 -13 14 -26 25 -28 25 -3 0 5 -11 18 -25z"/>
</g>
<g transform="translate(0.000000,500.000000) scale(0.100000,-0.100000)"
fill="#656dfd" stroke="none">
<path d="M1011 4700 c-59 -17 -71 -25 -148 -105 -83 -87 -91 -99 -73 -110 6
-3 10 -14 9 -23 0 -12 -3 -10 -10 7 -8 19 -12 21 -24 11 -8 -7 -15 -16 -15
-21 0 -4 -11 -25 -25 -45 -32 -47 -32 -45 18 -69 23 -11 65 -36 92 -55 28 -20
66 -45 85 -56 19 -10 41 -25 48 -32 8 -7 24 -10 36 -7 15 5 17 4 7 -3 -13 -10
-2 -19 78 -66 8 -5 17 -3 23 5 7 11 8 9 6 -6 -2 -12 2 -19 10 -17 6 1 12 -3
12 -9 0 -5 4 -8 9 -5 5 3 29 -10 53 -29 23 -19 48 -39 53 -43 18 -14 45 -22
45 -12 0 5 6 15 13 22 50 51 127 172 145 230 26 81 27 113 3 198 -54 197 -243
298 -450 240z M646 4263 c-14 -14 -32 -37 -40 -52 -45 -87 -79 -147 -87 -156
-5 -5 -9 -19 -9 -31 0 -12 -7 -24 -15 -28 -8 -3 -15 -11 -15 -18 0 -7 -8 -29
-18 -48 -11 -19 -22 -47 -25 -62 -4 -15 -21 -56 -37 -91 -17 -36 -30 -72 -30
-80 0 -8 -7 -28 -15 -43 -8 -16 -15 -36 -15 -44 0 -8 -7 -24 -15 -34 -8 -11
-15 -31 -15 -44 0 -24 -15 -89 -30 -127 -10 -26 -28 -114 -41 -195 -5 -36 -12
-72 -16 -80 -3 -8 -7 -31 -9 -50 -2 -19 -6 -51 -9 -70 -8 -41 3 -34 34 22 11
21 18 46 15 55 -5 15 -4 16 5 3 10 -13 13 -12 23 5 19 33 160 175 203 204 22
15 65 41 95 57 30 16 57 32 58 37 2 4 9 7 16 7 7 0 30 9 52 19 23 11 54 22 70
25 16 2 29 5 29 6 0 8 247 37 268 32 13 -3 17 2 17 26 0 17 7 37 15 46 8 8 15
21 15 28 1 19 53 168 73 205 10 18 17 35 16 38 0 3 9 26 21 51 22 45 22 45 3
64 -24 22 -52 28 -73 15 -13 -7 -13 -6 -2 7 15 18 -13 41 -65 52 -18 4 -33 15
-36 26 -2 10 -21 26 -40 35 -20 9 -41 23 -48 31 -6 8 -16 14 -21 14 -9 0 -74
38 -153 90 -13 8 -46 29 -73 47 l-50 32 -26 -26z M205 2053 c4 -10 8 -47 9
-83 1 -36 7 -81 13 -100 16 -49 43 -181 43 -207 0 -12 5 -25 10 -28 6 -4 8
-10 5 -15 -3 -5 1 -22 9 -38 8 -15 17 -48 21 -72 3 -25 12 -49 18 -55 7 -5 13
-23 15 -40 2 -16 7 -34 12 -40 4 -5 11 -26 15 -45 4 -19 11 -39 15 -45 4 -5
11 -25 15 -42 3 -18 11 -33 16 -33 5 0 9 -11 9 -25 0 -14 5 -25 12 -25 6 0 9
-3 5 -6 -3 -3 3 -14 14 -25 10 -10 19 -33 19 -50 0 -16 4 -28 9 -24 9 5 18
-13 26 -54 5 -28 55 -111 66 -111 5 0 9 -11 9 -25 0 -14 5 -25 10 -25 6 0 10
-6 10 -13 0 -8 9 -22 20 -32 12 -10 18 -25 16 -32 -11 -27 14 -20 80 22 38 25
76 48 84 52 8 3 17 9 20 13 10 12 107 70 117 70 6 0 16 7 23 15 10 12 8 16
-11 23 l-23 9 22 5 c12 4 20 2 17 -2 -3 -5 -1 -11 4 -14 11 -7 61 14 61 25 0
5 17 16 37 24 31 13 35 18 23 26 -12 9 -12 10 3 5 20 -6 42 4 102 48 22 17 42
31 44 32 2 2 -6 23 -18 48 -11 26 -29 65 -40 89 -10 23 -26 58 -35 79 -9 20
-16 45 -16 56 0 12 -5 24 -10 27 -5 3 -10 17 -10 31 0 14 -7 36 -16 50 -9 13
-17 35 -18 47 -1 20 -7 22 -56 24 -130 4 -313 39 -330 64 -3 4 -16 9 -30 10
-14 2 -27 6 -30 9 -12 13 -157 98 -177 104 -13 4 -23 11 -23 14 0 4 -34 42
-75 84 -41 42 -75 84 -75 92 0 9 -4 16 -9 16 -5 0 -23 25 -40 55 -30 53 -51
75 -36 38z m59 -108 c-4 -8 -10 -12 -15 -9 -14 8 -10 24 6 24 9 0 12 -6 9 -15z
M1240 1014 c-19 -14 -43 -34 -53 -44 -9 -11 -30 -23 -45 -26 -15 -4 -41 -17
-59 -30 -17 -13 -36 -24 -40 -24 -5 0 -18 -8 -29 -18 -10 -10 -40 -29 -66 -42
-27 -13 -48 -27 -48 -32 0 -4 -7 -8 -15 -8 -8 0 -15 -4 -15 -10 0 -5 -6 -10
-14 -10 -26 0 -28 -20 -4 -40 13 -11 18 -19 12 -20 -6 0 -17 7 -24 15 -20 24
-35 19 -138 -51 -2 -1 17 -32 42 -69 25 -36 46 -70 46 -74 0 -19 26 -31 39
-18 10 9 11 7 6 -13 -5 -21 2 -33 40 -69 43 -41 49 -43 68 -31 19 11 20 11 10
-1 -20 -25 -1 -37 90 -60 85 -22 90 -22 141 -6 29 9 63 17 75 17 12 0 24 7 27
15 4 8 11 15 18 15 12 0 67 50 110 101 51 61 79 201 53 272 -8 23 -18 55 -21
70 -4 16 -11 34 -16 40 -5 7 -22 28 -38 47 -15 19 -43 56 -62 83 -38 54 -42
54 -90 21z"/>
</g>
<g transform="translate(0.000000,500.000000) scale(0.100000,-0.100000)"
fill="#666bd5" stroke="none">
<path d="M1025 4710 c-13 -5 -14 -9 -5 -9 8 0 24 4 35 9 13 5 14 9 5 9 -8 0
-24 -4 -35 -9z M870 4615 c-24 -25 -42 -45 -39 -45 3 0 25 20 49 45 24 25 42
45 39 45 -3 0 -25 -20 -49 -45z M1350 4635 c13 -14 26 -25 28 -25 3 0 -5 11
-18 25 -13 14 -26 25 -28 25 -3 0 5 -11 18 -25z M1410 4571 c5 -11 15 -23 21
-27 6 -3 3 5 -6 20 -20 30 -30 35 -15 7z M782 4478 c7 -15 15 -23 17 -17 2 6
-4 18 -13 27 -15 15 -15 15 -4 -10z M1462 4465 c0 -11 3 -29 8 -40 11 -25 11
1 0 35 -6 20 -8 21 -8 5z M755 4332 c15 -15 125 -83 125 -78 0 7 -93 71 -115
80 -13 4 -16 4 -10 -2z M598 4213 c-64 -113 -95 -172 -80 -158 9 9 40 64 88
156 8 15 26 38 41 53 17 17 23 30 17 36 -7 7 -30 -24 -66 -87z M1466 4295 c-3
-9 -6 -22 -5 -28 0 -7 5 -1 10 12 5 13 8 26 5 28 -2 2 -6 -3 -10 -12z M832
4188 c30 -25 108 -71 108 -64 0 2 -30 22 -67 45 -38 23 -56 31 -41 19z M1152
4090 c2 -6 19 -21 38 -32 l35 -22 -20 23 c-24 28 -59 48 -53 31z M1326 4048
c-14 -17 -26 -35 -26 -40 0 -4 -7 -5 -15 -2 -8 4 -15 4 -15 1 0 -3 7 -7 15
-11 10 -3 25 10 45 39 36 52 34 59 -4 13z M1057 4040 c3 -10 16 -21 30 -25 37
-9 36 -3 -2 22 -30 20 -32 20 -28 3z M493 4017 c-9 -19 -9 -28 -1 -33 6 -4 8
-3 4 4 -3 5 -1 12 5 14 6 2 10 12 8 23 -4 16 -6 15 -16 -8z M1162 3986 c4 -5
2 -16 -4 -25 -10 -13 -10 -14 1 -4 7 6 21 9 30 6 18 -7 16 -4 -14 17 -11 8
-17 10 -13 6z M462 3951 c-6 -17 -9 -31 -6 -31 7 0 25 52 20 57 -2 2 -8 -10
-14 -26z M1230 3879 c-7 -11 -10 -23 -7 -25 2 -2 9 7 15 21 14 30 7 33 -8 4z
M428 3875 c-3 -11 -15 -45 -27 -75 -13 -30 -18 -50 -13 -45 15 17 53 116 49
128 -2 6 -6 3 -9 -8z M361 3703 c0 -6 -4 -20 -7 -30 -5 -14 -4 -15 5 -7 7 7
11 20 8 30 -3 11 -5 14 -6 7z M1096 3545 c-3 -9 -6 -27 -6 -40 0 -13 -5 -26
-10 -28 -6 -3 -5 -4 2 -3 7 1 16 20 20 41 9 40 5 58 -6 30z M296 3494 c-4 -14
-5 -28 -3 -31 3 -2 8 8 11 23 4 14 5 28 3 31 -3 2 -8 -8 -11 -23z M978 3473
c12 -2 30 -2 40 0 9 3 -1 5 -23 4 -22 0 -30 -2 -17 -4z M850 3460 c-11 -7 -5
-8 20 -4 43 8 51 14 19 14 -13 0 -31 -5 -39 -10z M278 3427 c-3 -19 -2 -25 4
-19 6 6 8 18 6 28 -3 14 -5 12 -10 -9z M740 3434 c-25 -9 -49 -20 -55 -25 -12
-12 87 21 100 32 12 12 9 11 -45 -7z M253 3324 c-6 -27 -10 -51 -8 -52 6 -6
27 78 23 90 -2 6 -9 -11 -15 -38z M495 3306 c-28 -19 -84 -69 -125 -112 l-75
-79 85 81 c47 45 104 93 128 109 37 24 49 35 39 35 -1 0 -25 -15 -52 -34z
M223 3180 c-5 -34 -6 -57 -2 -53 8 9 23 113 16 113 -2 0 -9 -27 -14 -60z M255
3083 c3 -12 1 -24 -5 -28 -5 -3 -10 -11 -10 -18 0 -6 7 -1 16 11 11 17 12 26
4 39 -10 16 -10 15 -5 -4z M202 3040 c0 -19 2 -27 5 -17 2 9 2 25 0 35 -3 9
-5 1 -5 -18z M193 2972 c0 -18 1 -31 2 -30 12 15 25 49 17 44 -6 -3 -12 0 -15
6 -3 7 -5 -2 -4 -20z M191 2084 c1 -50 16 -122 19 -94 4 34 3 42 -6 64 -5 14
-4 17 5 11 11 -6 11 -3 1 16 -18 35 -20 35 -19 3z M264 1972 c4 -7 1 -12 -8
-12 -17 0 -22 -15 -8 -24 4 -2 13 4 20 14 9 14 9 21 0 26 -7 4 -8 3 -4 -4z
M295 1930 c3 -8 34 -42 67 -75 l62 -60 -54 60 c-84 95 -82 92 -75 75z M227
1845 c7 -49 13 -58 13 -19 0 16 -5 36 -10 44 -6 10 -7 2 -3 -25z M430 1794 c0
-18 16 -33 45 -44 17 -6 26 -8 20 -3 -5 5 -22 19 -37 32 -16 14 -28 20 -28 15z
M252 1735 c0 -11 4 -31 8 -45 6 -20 8 -21 8 -5 0 11 -4 31 -8 45 -6 20 -8 21
-8 5z M605 1676 c11 -9 25 -19 30 -23 11 -9 53 -18 45 -10 -3 2 -25 14 -50 26
-25 12 -36 15 -25 7z M700 1630 c0 -9 75 -33 88 -29 6 2 -12 11 -39 20 -27 8
-49 13 -49 9z M825 1590 c11 -5 29 -8 40 -8 16 0 15 2 -5 8 -34 11 -60 11 -35
0z M295 1555 c4 -17 11 -34 16 -39 5 -5 4 5 -1 24 -12 42 -24 55 -15 15z M998
1563 c12 -2 30 -2 40 0 9 3 -1 5 -23 4 -22 0 -30 -2 -17 -4z M1085 1547 c3
-23 22 -67 29 -67 5 0 -18 77 -25 85 -4 3 -5 -5 -4 -18z M331 1438 c0 -7 4
-22 9 -33 7 -16 8 -14 7 12 -1 18 -5 33 -9 33 -5 0 -8 -6 -7 -12z M1144 1365
c4 -16 12 -34 17 -40 5 -5 4 6 -2 25 -15 45 -24 54 -15 15z M1205 1218 c4 -13
11 -27 16 -33 5 -5 4 5 -2 23 -12 36 -24 44 -14 10z M1244 1137 c4 -12 -2 -26
-16 -38 l-23 -20 28 17 c30 18 32 22 16 44 -9 12 -10 12 -5 -3z M445 1132 c6
-4 11 -14 13 -22 2 -8 7 -21 12 -30 8 -13 9 -12 10 3 0 25 -18 57 -33 57 -7 0
-8 -3 -2 -8z M487 1054 c-7 -7 13 -54 24 -54 4 0 3 14 -2 30 -12 32 -13 33
-22 24z M1310 1020 c12 -16 24 -30 26 -30 3 0 -3 14 -13 30 -9 17 -21 30 -26
30 -5 0 1 -13 13 -30z M1160 969 c-44 -29 -43 -39 3 -18 17 8 59 52 45 48 -2
0 -23 -14 -48 -30z M956 971 c-19 -7 -19 -8 3 -14 15 -4 20 -10 15 -18 -4 -8
-3 -10 5 -5 8 6 9 12 2 20 -6 7 -8 16 -4 19 8 8 4 8 -21 -2z M1360 950 c11
-16 26 -33 32 -36 7 -4 -1 9 -16 29 -34 44 -46 50 -16 7z M557 902 c15 -29 29
-46 31 -38 2 8 -5 23 -15 34 -10 10 -24 27 -31 38 -7 10 0 -5 15 -34z M880
885 c-30 -19 -50 -35 -45 -35 6 0 35 16 65 35 30 19 50 35 45 35 -6 0 -35 -16
-65 -35z M611 803 c13 -21 29 -42 36 -46 7 -5 10 -13 7 -19 -4 -7 -2 -8 5 -4
9 6 5 17 -14 39 -14 18 -28 40 -32 50 -3 9 -10 17 -15 17 -5 0 1 -17 13 -37z
M795 830 c-4 -6 -11 -7 -17 -4 -7 4 -8 2 -4 -5 6 -9 12 -9 24 1 10 7 19 14 21
15 2 2 -1 3 -7 3 -6 0 -14 -5 -17 -10z M1451 809 c-1 -9 6 -32 14 -50 18 -43
18 -16 0 31 -7 19 -14 28 -14 19z M803 744 c-17 -13 -17 -14 0 -8 10 4 26 -1
37 -11 11 -10 22 -16 25 -13 3 2 -6 14 -19 25 -22 19 -26 20 -43 7z M690 674
c1 -10 50 -73 50 -63 0 3 -11 20 -25 39 -14 19 -25 30 -25 24z M1461 589 c-7
-22 -11 -43 -8 -45 2 -2 9 14 16 37 7 22 11 43 8 45 -2 2 -9 -14 -16 -37z
M821 506 c-7 -8 -8 -17 -3 -20 6 -3 13 1 16 10 9 23 2 28 -13 10z M1400 467
l-23 -32 29 27 c15 15 26 30 23 33 -3 2 -16 -10 -29 -28z M869 427 c19 -20 36
-37 38 -37 10 0 -14 29 -40 49 l-32 25 34 -37z M938 396 c-17 -13 -14 -26 5
-26 6 0 7 3 4 7 -4 3 -2 12 4 20 14 16 9 16 -13 -1z M1205 340 l-20 -9 20 0
c11 0 29 4 40 9 l20 9 -20 0 c-11 0 -29 -4 -40 -9z"/>
</g>
</svg>